<?xml version="1.0" encoding="UTF-8" standalone="no"?>
<svg
   xmlns:dc="http://purl.org/dc/elements/1.1/"
   xmlns:cc="http://creativecommons.org/ns#"
   xmlns:rdf="http://www.w3.org/1999/02/22-rdf-syntax-ns#"
   xmlns:svg="http://www.w3.org/2000/svg"
   xmlns="http://www.w3.org/2000/svg"
   xmlns:sodipodi="http://sodipodi.sourceforge.net/DTD/sodipodi-0.dtd"
   xmlns:inkscape="http://www.inkscape.org/namespaces/inkscape"
   width="184.11967mm"
   height="184.11967mm"
   viewBox="0 0 184.11968 184.11967"
   version="1.1"
   id="svg45"
   inkscape:version="1.0 (4035a4fb49, 2020-05-01)"
   sodipodi:docname="erase_paste.svg">
  <defs
     id="defs39" />
  <sodipodi:namedview
     id="base"
     pagecolor="#ffffff"
     bordercolor="#666666"
     borderopacity="1.0"
     inkscape:pageopacity="0.0"
     inkscape:pageshadow="2"
     inkscape:zoom="0.35"
     inkscape:cx="333.01013"
     inkscape:cy="334.43731"
     inkscape:document-units="mm"
     inkscape:current-layer="layer1"
     inkscape:document-rotation="0"
     showgrid="false"
     inkscape:window-width="1024"
     inkscape:window-height="684"
     inkscape:window-x="-8"
     inkscape:window-y="-8"
     inkscape:window-maximized="1" />
  <metadata
     id="metadata42">
    <rdf:RDF>
      <cc:Work
         rdf:about="">
        <dc:format>image/svg+xml</dc:format>
        <dc:type
           rdf:resource="http://purl.org/dc/dcmitype/StillImage" />
        <dc:title></dc:title>
      </cc:Work>
    </rdf:RDF>
  </metadata>
  <g
     inkscape:label="レイヤー 1"
     inkscape:groupmode="layer"
     id="layer1"
     transform="translate(-17.724402,-59.680129)">
    <path
       style="fill:#000000;stroke-width:0.136771"
       d="m 116.27871,243.66918 v -0.13057 l -0.51289,-0.0788 -0.51289,-0.0788 -0.68385,-0.18986 -0.68386,-0.18988 -0.61546,-0.0949 -0.61547,-0.0949 -0.77757,-0.57432 -0.77756,-0.57431 -2.64171,-2.57431 -2.6417,-2.57433 -9.61024,-9.55754 -9.61024,-9.55755 -0.30564,-0.0322 -0.30564,-0.0322 0.019,0.23935 0.019,0.23935 H 79.4038 72.78562 v -0.11512 -0.11511 l -0.85482,-0.24426 -0.85482,-0.24424 -1.44189,-0.52965 -1.44189,-0.52964 -0.13097,-0.005 -0.13097,-0.005 -0.54709,-0.26426 -0.54708,-0.26425 -0.23935,-0.005 -0.23935,-0.005 v -0.12252 -0.12251 l -0.6715,-0.43089 -0.6715,-0.43091 -1.76418,-1.87427 -1.76418,-1.87426 -0.17915,-0.4787 -0.17916,-0.4787 -0.25539,-0.57561 -0.25539,-0.57562 -0.13013,-0.51855 -0.13013,-0.51855 -0.3546,-1.43609 -0.35461,-1.4361 -0.26946,-1.54773 -0.26947,-1.54774 v -6.60969 -6.60967 l -0.21634,-0.083 -0.21634,-0.083 -4.7416,-0.002 -4.7416,-0.002 -1.57286,-0.12593 -1.57286,-0.12593 -6.01792,-0.0782 -6.01791,-0.0782 -1.70964,-0.0795 -1.70963,-0.0795 -0.64966,-0.20864 -0.64966,-0.20864 v -0.12103 -0.12103 H 29.1645 29.03648 l -1.08022,-0.71805 -1.08023,-0.71804 -1.214,-0.75224 -1.21399,-0.75224 -0.41576,-0.41897 -0.41575,-0.41897 -0.9302,-1.5642 -0.9302,-1.56421 -0.53449,-0.82063 -0.53449,-0.82062 -0.20584,-0.41031 -0.20583,-0.41031 -0.14065,-0.88901 -0.14066,-0.88901 0.01,-46.84398 0.01,-46.843975 0.0918,-1.094162 0.0917,-1.094166 1.21118,-1.846404 1.21117,-1.846405 0.25906,-0.370582 0.25906,-0.37058 v -0.07748 -0.07748 l 0.50872,-0.681403 0.50871,-0.681404 1.09317,-0.716944 1.09317,-0.716944 0.43213,-0.273542 0.43213,-0.273541 1.03208,-0.708718 1.03208,-0.708718 0.44896,-0.232166 0.44896,-0.232165 5.6144,-0.113944 5.61439,-0.113944 0.4787,-0.09231 0.4787,-0.09231 5.88114,-0.09884 5.88114,-0.09884 0.34322,-0.06511 0.34322,-0.06511 0.27225,-0.146631 0.27225,-0.146632 0.29012,-0.320293 0.29012,-0.320292 0.4706,-0.683854 0.4706,-0.683854 0.0944,-0.205156 0.0944,-0.205156 0.48008,-0.820624 0.48007,-0.820625 0.14394,-0.340055 0.14395,-0.340056 0.29406,-0.275413 0.29406,-0.275412 0.71815,-0.364045 0.71815,-0.364044 0.66055,-0.556983 0.66055,-0.556984 0.44113,-0.08823 0.44113,-0.08823 0.0736,-0.119105 0.0736,-0.119105 h 0.22789 0.22789 l 0.96078,-0.352745 0.96078,-0.352744 0.39683,-0.19986 0.39682,-0.19986 0.81946,-0.276057 0.81947,-0.276057 1.10882,-0.07298 1.10881,-0.07298 0.75224,0.1382 0.75224,0.1382 1.22033,0.506835 1.22033,0.506834 1.48087,0.521513 1.48087,0.521512 0.51291,0.486562 0.51291,0.486562 0.75224,0.371767 0.75224,0.371767 0.23911,0.238494 0.2391,0.238494 0.56837,1.065952 0.56837,1.065953 0.49185,0.74101 0.49185,0.74101 0.29236,0.421541 0.29237,0.421541 0.43445,0.410312 0.43445,0.410313 6.52203,0.09157 6.52204,0.09157 3.89796,0.08295 3.89797,0.08295 1.73808,0.137795 1.73808,0.137795 0.50108,0.209365 0.50108,0.209366 0.56464,0.364538 0.56464,0.364538 0.22603,0.139565 0.22603,0.139566 1.89392,1.15668 1.89391,1.15668 0.2348,0.279413 0.2348,0.279412 0.005,0.105743 0.005,0.105742 0.68385,1.032656 0.68386,1.032656 v 0.126731 0.126731 h 0.13677 0.13677 v 0.183958 0.183958 l 0.27354,0.247552 0.27354,0.247552 v 0.17256 0.172561 l 0.10258,0.04559 0.10258,0.04559 0.30773,0.438967 0.30774,0.438965 v 0.09304 0.09304 l 0.20353,0.15185 0.20353,0.151848 0.14812,2.872189 0.14813,2.87218 0.12304,4.23989 0.12303,4.2399 0.13217,1.16255 0.13217,1.16255 0.009,1.39709 0.009,1.39709 0.26455,0.14158 0.26455,0.14158 3.73599,-0.001 3.736,-0.001 1.57286,0.28663 1.57286,0.28663 0.44602,0.200455 0.44602,0.20046 0.13498,-0.0834 0.13497,-0.0834 0.3764,0.20432 0.3764,0.20433 1.36771,0.4354 1.36771,0.43541 0.43098,0.18879 0.43098,0.18879 h 0.12252 0.12252 l 0.33551,0.40452 0.33551,0.40452 0.10741,0.006 0.10741,0.006 7.14144,7.16432 7.14144,7.16431 2.30102,2.3468 2.30101,2.3468 0.35481,0.78088 0.3548,0.78089 0.29365,0.47869 0.29365,0.4787 0.36738,1.50448 0.36739,1.50448 v 0.50398 0.50399 l 0.13967,0.36735 0.13966,0.36735 0.12814,0.90477 0.12812,0.90477 0.14252,0.0475 0.14251,0.0475 v 7.51099 7.51099 h -0.13677 -0.13677 v 0.27355 0.27354 h 0.14974 0.14975 l 1.73053,1.67544 1.73055,1.67544 7.65948,7.59947 7.65947,7.59947 3.69281,3.61536 3.69281,3.61536 3.89797,3.82907 3.89797,3.82908 2.66703,2.66791 2.66703,2.6679 0.36112,0.75224 0.36113,0.75224 0.21803,0.82062 0.21803,0.82063 0.2956,1.25846 0.2956,1.25846 -0.13959,0.7931 -0.13958,0.7931 -0.36618,1.63768 -0.36618,1.63767 -0.36176,0.48227 -0.36177,0.48227 -0.12131,0.0836 -0.12133,0.0836 -9.45986,9.42614 -9.45986,9.42615 -10.49716,10.37244 -10.49715,10.37246 v 0.1658 0.16579 l 0.71805,0.0122 0.71804,0.0122 19.11042,0.0956 19.11042,0.0956 0.15682,0.18895 0.1568,0.18895 h 0.16407 0.16407 l 0.46884,0.56837 0.46885,0.5684 0.27354,0.30967 0.27354,0.30966 0.23935,0.28606 0.23935,0.28607 v 0.1352 0.13521 h -0.12181 -0.1218 l -0.082,0.51289 -0.0819,0.51289 -0.0911,0.61234 -0.0911,0.61233 -0.14967,0.16454 -0.14968,0.16453 -0.4787,0.69034 -0.47869,0.69035 -40.7235,0.003 -40.72382,0.003 z m 34.73649,-10.50335 3.71958,-3.65861 2.80655,-2.77233 2.80653,-2.77233 -0.18544,-0.22428 -0.18545,-0.22428 -1.88949,-1.85875 -1.88948,-1.85876 -1.91193,-1.88059 -1.91192,-1.8806 h -0.13075 -0.13075 v -0.20516 -0.20515 h -0.20516 -0.20515 v -0.14898 -0.14897 l -0.62072,-0.60326 -0.62072,-0.60327 h -0.0526 -0.0526 l -0.42083,-0.42083 -0.42083,-0.42083 v -0.12626 -0.12625 h -0.13041 -0.1304 l -0.62184,-0.63076 -0.62183,-0.63076 v -0.12148 -0.12148 h -0.11973 -0.11972 l -3.59013,-3.55604 -3.59014,-3.55603 h -0.19618 -0.19618 l 0.0694,-0.11238 0.0695,-0.11237 -0.23234,-0.19894 -0.23234,-0.19894 -0.12111,0.004 -0.1211,0.004 -0.11709,-0.31652 -0.11709,-0.31653 -0.14131,0.0873 -0.14132,0.0873 0.0376,-0.18114 0.0376,-0.18113 -0.24875,0.0206 -0.24875,0.0206 0.0689,-0.17955 0.0689,-0.17956 -7.22535,-7.15824 -7.22534,-7.15825 -2.23563,-2.18833 -2.23562,-2.18833 -0.10409,0.0342 -0.1041,0.0342 v -0.20516 -0.20516 h -0.21101 -0.21102 l -0.69916,0.64966 -0.69916,0.64967 -1.92782,1.89867 -1.92782,1.89867 -4.92374,4.85943 -4.92375,4.85942 -5.98372,5.94721 -5.98372,5.94722 v 1.67979 1.67979 l 3.56752,3.53186 3.56751,3.53187 8.09219,8.03161 8.09219,8.03163 15.88458,0.004 15.88457,0.004 3.71958,-3.65862 z m 14.34356,-14.26508 0.45803,-0.27925 5.60386,-5.56719 5.60385,-5.56718 4.56309,-4.51344 4.56309,-4.51343 3.0179,-2.98205 3.0179,-2.98205 v -1.68375 -1.68375 l -7.76174,-7.66112 -7.76174,-7.66112 -2.59864,-2.55268 -2.59865,-2.55269 -8.32217,-8.23465 -8.32216,-8.23465 -0.16082,-0.092 -0.16082,-0.092 -0.88581,-0.0213 -0.88581,-0.0213 -0.78763,0.0108 -0.78762,0.0108 -5.29417,5.23148 -5.29416,5.23148 -0.68836,0.66264 -0.68837,0.66264 -7.4882,7.45971 -7.48819,7.45972 v 0.1955 0.1955 l 0.89654,0.88339 0.89654,0.8834 0.11465,-0.0709 0.11465,-0.0709 0.0851,0.3389 0.085,0.3389 0.33529,0.0842 0.33528,0.0841 -0.0296,0.0889 -0.0296,0.0889 0.13677,0.0423 0.13677,0.0423 0.10142,0.27417 0.10142,0.27417 0.15906,-0.0983 0.15906,-0.0983 -0.088,0.14241 -0.088,0.1424 0.18204,0.15108 0.18204,0.15109 0.11192,-0.1014 0.11192,-0.10139 -0.0991,0.17212 -0.0991,0.17212 0.27417,0.10142 0.27417,0.10143 0.0423,0.13677 0.0424,0.13677 0.11274,-0.0376 0.11274,-0.0376 -0.077,0.12467 -0.0771,0.12466 0.18204,0.15108 0.18205,0.15108 0.11192,-0.10139 0.11192,-0.10139 -0.0838,0.14741 -0.0838,0.14741 5.16796,5.15251 5.16796,5.1525 0.0912,-0.0912 0.0912,-0.0912 v 0.16072 0.16073 l 1.95911,1.94782 1.95911,1.94783 0.3318,0.28909 0.3318,0.28908 0.34043,0.42897 0.34042,0.42895 h 0.17247 0.17246 v 0.13412 0.13411 l 1.17237,1.13102 1.17237,1.13101 2.448,2.42768 2.448,2.42768 h 0.14083 0.14082 v 0.14729 0.14729 l 0.39979,0.39979 0.3998,0.3998 h 0.14729 0.14729 v 0.20515 0.20516 h 0.11877 0.11878 l 0.63346,0.63347 0.63347,0.63346 v 0.11877 0.11878 h 0.11877 0.11878 l 0.63346,0.63346 0.63347,0.63347 0.006,0.0846 0.006,0.0846 0.53442,0.41031 0.53441,0.41031 0.006,0.17097 0.006,0.17096 h 0.1229 0.12292 l 2.8365,2.8038 2.8365,2.8038 h 0.18631 0.18632 l -0.029,0.10258 -0.029,0.10258 0.19867,0.30773 0.19867,0.30773 h 0.13806 0.13807 l 0.45805,-0.27924 z m -80.10254,-11.17058 0.69748,-0.24304 0.28868,-0.4418 0.28869,-0.4418 3.28263,-3.25101 3.28264,-3.25101 5.06525,-4.99213 5.06525,-4.99214 3.96148,-3.89301 3.96149,-3.89302 7.9327,-7.87429 7.93271,-7.87429 7.86431,-7.73586 7.86432,-7.73585 2.3593,-2.3171 2.35929,-2.31711 v -0.26929 -0.2693 l 0.3517,-0.66066 0.3517,-0.66066 -0.044,-2.85354 -0.044,-2.85353 -0.15782,-0.15755 -0.15782,-0.15754 -11.94639,-0.0647 -11.94639,-0.0647 -0.4787,-0.22871 -0.4787,-0.22871 -1.89108,-1.84651 -1.89108,-1.84652 -0.24699,-0.50531 -0.24698,-0.50532 -0.10204,-12.04619 -0.10204,-12.04619 -0.10386,-0.0642 -0.10386,-0.0642 -23.2967,-0.004 -23.2967,-0.004 -1.30317,1.30317 -1.30318,1.30317 v 46.77149 46.77149 l 1.09417,1.11227 1.09417,1.11226 0.3972,0.24949 0.3972,0.24948 6.2758,0.0129 6.2758,0.0128 0.69747,-0.24305 z m -26.31181,-29.60772 0.16412,-0.16413 -5.4e-4,-8.76016 -5.5e-4,-8.76017 0.13293,-7.18046 0.13292,-7.18046 0.0687,-17.36989 0.0686,-17.36988 0.14471,-0.95438 0.14471,-0.95438 0.86047,-1.30234 0.86048,-1.30233 0.67434,-1.06951 0.67433,-1.0695 0.51607,-0.67432 0.51608,-0.67433 h 0.1481 0.1481 l 0.49892,-0.37612 0.49892,-0.37612 0.22979,-0.13677 0.22979,-0.13677 1.76092,-1.19018 1.76092,-1.190185 0.60739,-0.14428 0.6074,-0.14428 11.96744,-0.13348 11.96744,-0.13348 2.25672,-0.13789 2.25672,-0.13788 4.81309,-0.001 4.8131,-0.001 0.0717,-0.11597 0.0717,-0.11596 0.017,-8.39057 0.017,-8.39057 -1.36119,-1.343251 -1.36119,-1.343248 -11.58889,0.03648 -11.5889,0.03648 -0.33215,0.410312 -0.33215,0.410312 -0.18278,0.341927 -0.18278,0.341927 -0.7455,1.230941 -0.74549,1.23093 -0.0952,0.20516 -0.0952,0.20515 -0.3439,0.54709 -0.34389,0.54708 -0.0912,0.20516 -0.0912,0.20515 -0.21363,0.17442 -0.21363,0.17442 -0.82063,0.42221 -0.82062,0.42222 -0.20516,0.17108 -0.20515,0.17108 -0.68386,0.23834 -0.68385,0.23834 -0.27354,0.11778 -0.27354,0.11778 -1.28667,0.41597 -1.28667,0.41596 -0.15528,0.12887 -0.15528,0.12887 -1.22508,0.28761 -1.22508,0.28761 -0.35803,0.074 -0.35803,0.074 -0.39601,-0.20479 -0.39602,-0.20479 -0.68205,-0.0987 -0.68205,-0.0988 -0.34193,-0.17865 -0.34192,-0.17865 -1.64125,-0.56339 -1.64125,-0.56339 -0.58733,-0.21185 -0.58733,-0.21186 -0.77233,-0.46507 -0.77233,-0.46507 h -0.15218 -0.15218 l -0.41953,-0.44451 -0.41952,-0.4445 -0.70147,-1.20094 -0.70148,-1.20094 v -0.0715 -0.0715 l -0.63175,-0.984312 -0.63176,-0.984309 -0.33485,-0.499349 -0.33486,-0.499348 -0.29852,-0.08006 -0.29842,-0.08004 -11.33887,-0.0019 -11.33887,-0.0019 -1.38081,1.362606 -1.38081,1.362602 -0.0409,45.857495 -0.0409,45.85749 0.084,0.83666 0.084,0.83666 1.28863,1.28328 1.28863,1.28329 0.44625,0.0846 0.44626,0.0846 12.93167,0.018 12.93168,0.018 z m 88.34707,-49.16196 0.71805,-0.0862 -8.2e-4,-0.42546 -8.2e-4,-0.42545 -0.14085,-0.50713 -0.14085,-0.50714 -0.50255,-0.58703 -0.50244,-0.58703 -7.86982,-7.90282 -7.86981,-7.90281 -0.61155,-0.48049 -0.61155,-0.48049 -0.68777,0.0403 -0.68778,0.0403 -0.0355,9.77911 -0.0355,9.7791 0.23262,0.17097 0.23263,0.17096 8.89815,-0.001 8.89815,-0.001 0.71805,-0.0863 z m -77.21597,-48.451841 0.50401,-0.117103 0.93208,-0.623659 0.93208,-0.62366 0.97382,-0.963991 0.97382,-0.963992 0.0958,-1.224841 0.0958,-1.22484 -0.0978,-1.459974 -0.0978,-1.459974 -1.13284,-1.18552 -1.13285,-1.18552 -1.04543,-0.523676 -1.04544,-0.523676 -0.98189,-0.0022 -0.98189,-0.0022 -0.94846,0.499639 -0.94846,0.49964 -0.41925,0.322811 -0.41925,0.322811 -0.9232,0.908974 -0.9232,0.908974 0.005,2.423803 0.005,2.423801 0.17068,0.307282 0.17069,0.307281 0.81606,0.840562 0.81605,0.840563 0.89335,0.724041 0.89335,0.724041 0.67952,0.05245 0.67951,0.05244 0.4787,0.02139 0.47869,0.02139 0.50401,-0.117102 z"
       id="path61" />
  </g>
</svg>
