<?xml version="1.0" encoding="UTF-8" standalone="no"?>
<svg
   xmlns:dc="http://purl.org/dc/elements/1.1/"
   xmlns:cc="http://creativecommons.org/ns#"
   xmlns:rdf="http://www.w3.org/1999/02/22-rdf-syntax-ns#"
   xmlns:svg="http://www.w3.org/2000/svg"
   xmlns="http://www.w3.org/2000/svg"
   xmlns:sodipodi="http://sodipodi.sourceforge.net/DTD/sodipodi-0.dtd"
   xmlns:inkscape="http://www.inkscape.org/namespaces/inkscape"
   width="97.9161mm"
   height="97.9161mm"
   viewBox="0 0 97.916099 97.9161"
   version="1.1"
   id="svg50"
   inkscape:version="1.0 (4035a4fb49, 2020-05-01)"
   sodipodi:docname="paste.svg">
  <defs
     id="defs44" />
  <sodipodi:namedview
     id="base"
     pagecolor="#ffffff"
     bordercolor="#666666"
     borderopacity="1.0"
     inkscape:pageopacity="0.0"
     inkscape:pageshadow="2"
     inkscape:zoom="0.38"
     inkscape:cx="841.90692"
     inkscape:cy="199.97147"
     inkscape:document-units="mm"
     inkscape:current-layer="layer1"
     inkscape:document-rotation="0"
     showgrid="false"
     inkscape:window-width="1024"
     inkscape:window-height="684"
     inkscape:window-x="-8"
     inkscape:window-y="-8"
     inkscape:window-maximized="1"
     showguides="false" />
  <metadata
     id="metadata47">
    <rdf:RDF>
      <cc:Work
         rdf:about="">
        <dc:format>image/svg+xml</dc:format>
        <dc:type
           rdf:resource="http://purl.org/dc/dcmitype/StillImage" />
        <dc:title></dc:title>
      </cc:Work>
    </rdf:RDF>
  </metadata>
  <g
     inkscape:label="レイヤー 1"
     inkscape:groupmode="layer"
     id="layer1"
     transform="translate(-44.526807,-55.289732)">
    <path
       id="path66"
       style="fill:#000000;stroke-width:0.264583"
       d="m 80.392027,152.3078 c -1.45248,-0.85604 -3.16162,-1.39021 -3.76249,-3.12717 -0.88348,-1.66519 -2.0577,-3.29109 -1.65986,-5.27626 -5.4e-4,-2.95942 -0.001,-5.91884 -0.002,-8.87826 -5.86493,-0.0509 -11.72986,-0.10173 -17.594791,-0.1526 -1.8658,-1.31946 -4.43704,-1.94059 -5.24903,-4.30324 -0.91673,-1.4384 -1.86706,-2.86773 -1.49785,-4.65333 0,-19.15402 0,-38.308049 0,-57.462069 1.28664,-1.76881 1.66434,-4.33709 3.87372,-5.22066 1.44122,-0.97012 2.84611,-2.06166 4.68992,-1.68602 4.374281,-0.0763 8.748571,-0.15255 13.122851,-0.22882 1.46069,-1.74461 2.25555,-4.25842 4.67147,-4.87031 1.59694,-1.08835 3.40178,-1.26402 5.2812,-1.11221 1.78087,0.0366 3.40197,1.27816 4.94242,2.0613 1.34062,1.13672 1.82537,3.02774 3.23821,4.04541 4.82782,0.0882 9.740853,-0.15835 14.516153,0.1362 1.91537,1.21678 4.42471,1.86003 5.30264,4.16124 1.0408,1.34091 1.63253,2.81753 1.43113,4.53384 0.10827,3.14446 0.26278,6.28755 0.31366,9.43371 2.90243,0.19768 5.98972,-0.5977 8.65356,0.88176 2.72822,0.69625 4.13936,3.40901 6.20039,5.12675 2.69782,2.81542 5.63233,5.47662 8.18138,8.38899 0.82209,1.90606 1.63479,3.8139 1.3057,5.937239 -0.004,15.40265 -0.008,30.80531 -0.0114,46.20797 -1.37149,2.02863 -2.07912,4.70152 -4.54256,5.67043 -1.28898,1.17003 -2.85159,1.39148 -4.52961,1.21284 -15.09584,0.0238 -30.191673,0.0475 -45.287513,0.0713 -0.52924,-0.29934 -1.05849,-0.59869 -1.58773,-0.89803 z m 48.736883,-6.24137 c 1.63055,-1.10243 0.57234,-3.34327 0.87249,-5.00899 0,-12.24776 0,-24.49552 0,-36.74328 -5.06607,0 -10.13213,0 -15.1982,0 -0.94368,-1.12703 -2.42363,-2.03027 -3.05805,-3.28635 0,-4.989969 0,-9.979929 0,-14.969899 -9.47347,0 -18.946933,0 -28.420403,0 -1.13313,1.06478 -2.52478,2.02066 -2.00668,3.78094 0,18.442749 0,36.885499 0,55.328249 0.98132,1.43918 2.29108,2.10264 4.03318,1.74498 14.30172,0 28.603453,0 42.905173,0 0.29083,-0.28188 0.58166,-0.56377 0.87249,-0.84565 z M 75.029567,107.55531 c 0.0236,-7.03351 0.0472,-14.067009 0.0708,-21.100519 1.33177,-1.82011 2.01287,-4.31183 4.33559,-5.1091 1.3278,-0.9045 2.69806,-1.65619 4.36041,-1.3565 7.28779,-0.11508 14.57559,-0.23017 21.863383,-0.34526 0,-3.27853 0,-6.55706 0,-9.83558 -1.06478,-1.13313 -2.02066,-2.52478 -3.78094,-2.00668 -3.937783,0 -7.875573,0 -11.813353,0 -1.39823,1.75592 -2.14027,4.26682 -4.54097,4.86931 -1.54057,1.08314 -3.29697,1.22073 -5.11932,1.06943 -1.98242,0.24401 -3.54311,-1.31327 -5.31819,-1.95489 -1.05409,-1.24349 -1.7892,-3.09724 -3.02982,-3.98388 -4.46315,0 -8.92629,0 -13.389441,0 -1.08797,1.03982 -2.31495,2.02333 -1.8236,3.70293 0,18.42325 0,36.846509 0,55.269759 1.00531,1.12248 1.94987,2.38842 3.64506,1.88147 4.823211,0 9.646421,0 14.469631,0 0.0236,-7.0335 0.0472,-14.06699 0.0708,-21.10049 z m 54.632813,-9.539539 c 0.24574,-0.98069 -2.06515,-2.24242 -2.80664,-3.33164 -2.9202,-2.91803 -5.84039,-5.83607 -8.76059,-8.7541 0,4.09957 0,8.19915 0,12.29872 3.80745,-0.0973 7.72453,0.18182 11.46442,-0.14754 l 0.10281,-0.0653 z M 83.395037,67.006261 c 1.70596,-0.58892 1.11931,-2.82903 0.90249,-4.08396 -1.03695,-1.36682 -2.46316,-1.7003 -4.10151,-1.47063 -1.32439,0.46393 -2.78917,1.65391 -2.31754,3.27027 -0.30988,1.48883 1.32459,2.53117 2.51355,3.03795 1.16986,0.0588 2.14283,0.2122 3.00301,-0.75363 z" />
  </g>
</svg>
