<?xml version="1.0" encoding="UTF-8" standalone="no"?>
<svg
   xmlns:dc="http://purl.org/dc/elements/1.1/"
   xmlns:cc="http://creativecommons.org/ns#"
   xmlns:rdf="http://www.w3.org/1999/02/22-rdf-syntax-ns#"
   xmlns:svg="http://www.w3.org/2000/svg"
   xmlns="http://www.w3.org/2000/svg"
   xmlns:sodipodi="http://sodipodi.sourceforge.net/DTD/sodipodi-0.dtd"
   xmlns:inkscape="http://www.inkscape.org/namespaces/inkscape"
   width="71.067741mm"
   height="71.067741mm"
   viewBox="0 0 71.067741 71.067741"
   version="1.1"
   id="svg8"
   inkscape:version="1.0 (4035a4fb49, 2020-05-01)"
   sodipodi:docname="Amazonギフト券.svg">
  <defs
     id="defs2" />
  <sodipodi:namedview
     id="base"
     pagecolor="#ffffff"
     bordercolor="#666666"
     borderopacity="1.0"
     inkscape:pageopacity="0.0"
     inkscape:pageshadow="2"
     inkscape:zoom="1.6045941"
     inkscape:cx="124.7374"
     inkscape:cy="134.30124"
     inkscape:document-units="mm"
     inkscape:current-layer="g282"
     inkscape:document-rotation="0"
     showgrid="false"
     showguides="false"
     inkscape:window-width="1024"
     inkscape:window-height="684"
     inkscape:window-x="-8"
     inkscape:window-y="-8"
     inkscape:window-maximized="1"
     fit-margin-top="0"
     fit-margin-left="0"
     fit-margin-right="0"
     fit-margin-bottom="0" />
  <metadata
     id="metadata5">
    <rdf:RDF>
      <cc:Work
         rdf:about="">
        <dc:format>image/svg+xml</dc:format>
        <dc:type
           rdf:resource="http://purl.org/dc/dcmitype/StillImage" />
        <dc:title></dc:title>
      </cc:Work>
    </rdf:RDF>
  </metadata>
  <g
     inkscape:label="レイヤー 1"
     inkscape:groupmode="layer"
     id="layer1"
     transform="translate(-72.734338,-41.242418)">
    <path
       style="fill:#000000;stroke-width:0.264583"
       id="path60"
       d="" />
    <path
       style="fill:#000000;stroke-width:0.264583"
       id="path58"
       d="" />
    <path
       style="fill:#000000;stroke-width:0.264583"
       id="path56"
       d="" />
    <path
       style="fill:#000000;stroke-width:0.264583"
       id="path54"
       d="" />
    <path
       style="fill:#000000;stroke-width:0.264583"
       id="path52"
       d="" />
    <g
       id="g282"
       transform="translate(4.5995575,-6.570795)"
       style="fill:#000000">
      <path
         style="fill:#000000;fill-opacity:1;stroke-width:0.894366"
         d="m 95.011949,117.64834 c -7.43663,-1.61567 -15.090603,-5.81899 -20.386276,-11.19551 -2.384725,-2.42113 -4.158896,-4.57235 -3.942602,-4.78047 0.216295,-0.20813 2.848235,1.11056 5.848755,2.93043 6.580443,3.99116 12.834879,6.12005 21.922555,7.46202 5.703519,0.84224 8.061389,0.75894 14.537909,-0.51359 4.25165,-0.83537 9.93393,-2.49342 12.62728,-3.68455 5.56549,-2.46133 7.0428,-1.70617 3.38632,1.731 -3.50999,3.29946 -12.28615,7.29726 -18.5181,8.43553 -6.53816,1.19421 -8.42347,1.14732 -15.475841,-0.38486 z m 36.775691,-5.80076 c 0.34232,-1.22975 0.86063,-3.54393 1.1518,-5.1426 l 0.52939,-2.9067 h -4.76772 c -6.3805,0 -4.64497,-1.92092 2.25231,-2.4929 4.05938,-0.33664 5.04003,-0.13961 5.51912,1.10891 0.84153,2.19298 -1.11138,7.96313 -3.37044,9.95846 -1.93197,1.70643 -1.93529,1.70511 -1.31446,-0.52517 z M 88.625136,99.5859 c -7.673547,-3.780258 -9.304841,-16.140952 -3.102918,-23.51152 3.343459,-3.973474 8.260171,-6.165063 16.419732,-7.318976 l 7.14495,-1.010428 v -2.990952 c 0,-3.780639 -2.67437,-6.568417 -6.30121,-6.568417 -2.68777,0 -5.563923,2.192193 -7.624507,5.811364 -0.859495,1.509599 -1.49974,1.595686 -6.260563,0.841792 -5.120276,-0.810815 -5.29678,-0.928775 -5.118182,-3.420525 0.295912,-4.128477 4.155807,-9.051613 8.923263,-11.381248 5.92055,-2.893099 16.892139,-2.95976 22.281559,-0.135377 6.45163,3.381048 6.99885,4.961822 7.51178,21.699488 0.41886,13.66783 0.6133,15.016244 2.63424,18.268803 l 2.182,3.511761 -4.39428,3.86676 c -2.41685,2.126719 -4.86874,3.866765 -5.44864,3.866765 -0.57989,0 -2.20077,-1.313214 -3.60195,-2.91825 l -2.54759,-2.918247 -4.33811,2.918247 c -3.74292,2.51786 -5.09272,2.91545 -9.838038,2.89788 -3.285074,-0.0122 -6.716736,-0.61981 -8.521536,-1.50892 z m 16.124444,-9.275097 c 2.38238,-1.275008 4.33732,-6.12007 4.33732,-10.74944 v -3.723952 l -3.61154,0.48441 c -4.53897,0.608802 -7.83248,2.73148 -8.999109,5.799947 -0.946564,2.489652 -0.419474,6.122894 1.165299,8.032429 1.14408,1.378532 4.6793,1.456422 7.10803,0.156606 z"
         id="path298" />
      <path
         style="fill:#000000;fill-opacity:1;stroke-width:0.894366"
         d="m 90.960577,116.90861 c -6.267851,-2.06308 -12.480958,-5.96254 -17.185156,-10.7857 -1.94446,-1.99364 -3.283374,-3.6248 -2.975363,-3.6248 0.308011,0 3.544202,1.60965 7.191535,3.577 15.458686,8.33831 31.774717,9.22022 47.268557,2.55495 9.36681,-4.02949 5.59566,1.22474 -4.43833,6.18381 -6.18545,3.05701 -7.34615,3.31884 -15.70421,3.54246 -6.939436,0.18566 -10.211087,-0.1489 -14.157033,-1.44772 z m 40.827233,-4.12529 c 0.38652,-0.9838 0.91734,-3.29797 1.17958,-5.1426 l 0.47534,-3.35388 -4.8117,-0.0317 c -4.24122,-0.28632 -4.11268,-1.33374 0.4286,-2.33312 3.41235,0.72635 6.73296,-0.7231 7.41604,1.05698 0.67187,1.75088 -2.00534,8.84115 -3.92868,10.40463 -1.28344,1.04331 -1.37613,0.97001 -0.75918,-0.60032 z M 88.535538,100.00956 c -4.150142,-2.286843 -6.55096,-7.135009 -6.497178,-13.120274 0.09565,-10.644926 6.746263,-15.99292 22.32702,-17.95396 l 4.69542,-0.59098 v -3.354924 c 0,-8.252798 -9.315957,-8.617237 -13.900544,-0.543787 -0.828545,1.459067 -1.524911,1.551107 -6.260563,0.827468 -5.095713,-0.778659 -5.320754,-0.922559 -5.154903,-3.296236 0.755347,-10.810587 19.11257,-17.497458 31.09602,-11.327151 6.78596,3.494103 7.63549,5.888048 7.63549,21.516377 0,12.358218 0.12699,13.311488 2.32369,17.442914 l 2.32369,4.370264 -4.33602,3.793844 c -2.38481,2.086614 -4.82194,3.802115 -5.41584,3.812235 -0.59391,0.0101 -2.16333,-1.33952 -3.48762,-2.999185 l -2.40778,-3.017581 -3.92513,2.766688 c -5.09488,3.591198 -14.098324,4.383938 -19.015752,1.674288 z m 16.102972,-9.16472 c 2.59701,-1.389877 4.42229,-5.653792 4.42229,-10.3306 v -4.185376 l -4.21922,0.475567 c -3.25259,0.366615 -4.78935,1.11365 -6.707747,3.260707 -5.584118,6.249714 -0.566928,14.564312 6.504677,10.779702 z"
         id="path296"
         sodipodi:nodetypes="ssscsssscccccssccssscssssssscscccsssscsss" />
      <path
         style="fill:#000000;fill-opacity:1;stroke-width:0.894366"
         d="m 93.712404,117.48821 c -5.108942,-1.19938 -13.556541,-5.96414 -18.577474,-10.47839 -2.422125,-2.1777 -4.239754,-4.12357 -4.039176,-4.32414 0.200579,-0.20058 2.731666,1.03144 5.624638,2.73782 9.532716,5.62274 15.514084,7.18065 27.619108,7.19371 10.74716,0.0116 13.50659,-0.57956 24.9407,-5.3431 3.23598,-1.34814 1.02347,1.72515 -3.39511,4.71598 -8.34039,5.64538 -21.76959,7.94035 -32.172686,5.49812 z m 39.303816,-8.11041 c 1.64425,-4.66031 0.89266,-5.52263 -4.71979,-5.41514 l -1.59778,-1.15495 v 0 c 0,0 8.17479,-1.66481 9.08688,-0.19968 0.97518,1.56648 0.38891,5.1452 -1.31865,8.0493 -2.15762,3.66954 -2.95016,2.97051 -1.45066,-1.27951 z M 89.135271,99.876991 C 83.68232,96.405162 82.874708,94.763625 82.874708,87.15188 c 0,-5.696993 0.347278,-7.464142 1.870967,-9.520541 3.801003,-5.129902 8.794473,-7.295694 20.264595,-8.789259 4.2221,-0.549775 4.24824,-0.574 4.24824,-3.937228 0,-7.640977 -9.322768,-8.922246 -13.011885,-1.78828 -1.380752,2.670081 -1.486632,2.704444 -6.493412,2.107469 -2.799375,-0.333779 -5.387728,-0.87908 -5.751897,-1.21178 -1.142487,-1.043762 0.965989,-6.544946 3.551199,-9.265365 5.017005,-5.279399 13.376555,-7.596394 21.746745,-6.027488 5.26319,0.986533 8.18342,2.726325 11.08357,6.603288 1.63951,2.191734 1.89358,4.119502 2.29118,17.38488 0.41857,13.965173 0.58523,15.113366 2.60481,17.945033 l 2.15764,3.025234 -4.39355,3.871742 c -2.41646,2.129458 -4.87948,3.887205 -5.47338,3.906105 -0.59391,0.0189 -2.17982,-1.34421 -3.52425,-3.029136 l -2.44442,-3.063497 -3.91888,2.814321 c -3.28324,2.357852 -4.88756,2.862462 -9.89124,3.111122 -4.703891,0.23375 -6.542236,-0.066 -8.655469,-1.411509 z M 107.21742,88.165889 c 1.42723,-2.124982 2.04109,-4.344085 2.04109,-7.378522 0,-4.256267 -0.0532,-4.339569 -2.77152,-4.339569 -8.090537,0 -13.278886,7.46689 -9.217442,13.265413 2.236431,3.192954 7.292272,2.406552 9.947872,-1.547322 z"
         id="path294"
         sodipodi:nodetypes="sssssscssscssssscsssssssssssscssscsccsssss" />
      <path
         style="fill:#000000;fill-opacity:1;stroke-width:0.894366"
         d="m 100.69039,117.77276 c 1.59868,-0.19839 4.2147,-0.19839 5.81338,0 1.59868,0.1984 0.29067,0.36072 -2.90669,0.36072 -3.19736,0 -4.505369,-0.16232 -2.90669,-0.36072 z m -6.260563,-0.8397 c 0.614877,-0.24811 1.621039,-0.24811 2.235916,0 0.614877,0.24811 0.111796,0.4511 -1.117958,0.4511 -1.229754,0 -1.732835,-0.20299 -1.117958,-0.4511 z m 16.098583,0 c 0.61488,-0.24811 1.62104,-0.24811 2.23592,0 0.61488,0.24811 0.1118,0.4511 -1.11796,0.4511 -1.22975,0 -1.73283,-0.20299 -1.11796,-0.4511 z m -21.241189,-1.19641 c -1.634871,-1.05654 -0.222773,-1.05654 2.235916,0 1.179437,0.50682 1.33176,0.78539 0.447183,0.81781 -0.737852,0.027 -1.945246,-0.34098 -2.683099,-0.81781 z m 32.420769,-2.74046 c 5.32573,-2.74894 6.62202,-4.03464 3.13028,-3.10472 -1.10677,0.29476 -0.4651,-0.31092 1.42595,-1.34595 4.02256,-2.20167 5.58217,-1.52575 2.36175,1.02355 -2.52184,1.9963 -10.29986,6.18967 -11.36008,6.12456 -0.38528,-0.0237 1.61367,-1.23751 4.4421,-2.69744 z m -25.265839,0.45441 c 2.876655,-0.62145 20.886889,-0.93479 18.781689,-0.32677 -1.22976,0.35518 -6.26057,0.63921 -11.17958,0.63119 -4.91901,-0.008 -8.339961,-0.14502 -7.602109,-0.30442 z m -15.288463,-1.96809 c -3.251489,-2.18514 -7.276818,-5.75443 -8.844012,-7.84204 -1.270486,-1.69237 -1.25172,-1.70508 0.447183,-0.30276 0.975326,0.80506 4.188109,2.69741 7.139517,4.20522 2.951409,1.50782 5.044362,2.76084 4.651009,2.7845 -0.393354,0.0237 -1.939999,-0.59035 -3.436987,-1.36448 -3.878639,-2.00572 -4.155914,-0.96344 -0.366698,1.37842 1.747528,1.08004 3.177324,2.13211 3.177324,2.33794 0,0.59101 -0.300396,0.4611 -2.767336,-1.1968 z m 10.593041,0.97872 c 0.614876,-0.24811 1.621038,-0.24811 2.235915,0 0.614877,0.2481 0.111796,0.4511 -1.117958,0.4511 -1.229753,0 -1.732834,-0.203 -1.117957,-0.4511 z m 27.501751,-1.19642 c 2.4587,-1.05653 3.8708,-1.05653 2.23592,0 -0.73785,0.47684 -1.94525,0.84486 -2.6831,0.81781 -0.88458,-0.0324 -0.73225,-0.31098 0.44718,-0.81781 z m 13.75385,-1.11795 c 0.40771,-1.10678 0.99264,-3.05347 1.29986,-4.32598 0.52905,-2.19138 0.36269,-2.32134 -3.14777,-2.45889 -5.41274,-0.21209 -5.26975,-0.91293 0.14681,-0.91293 5.24034,0 5.59946,0.85884 3.19708,6.60857 -1.42139,3.40185 -2.68747,4.32368 -1.49602,1.08923 z M 88.608272,99.642889 c -4.365786,-2.661852 -6.468704,-6.735988 -6.472637,-12.539912 -0.0041,-6.10366 2.093158,-10.306734 6.796936,-13.621369 3.167069,-2.231754 6.179485,-3.082179 16.676829,-4.707982 3.196,-0.494989 3.35387,-0.6794 3.35387,-3.917762 0,-4.217129 -2.155,-6.358653 -6.39867,-6.358653 -3.179445,0 -6.126771,2.259048 -7.306737,5.600421 -0.478128,1.35394 -1.283805,1.495248 -5.72306,1.003761 -2.841628,-0.314607 -5.506188,-0.880339 -5.921244,-1.257182 -1.043991,-0.947873 2.283419,-8.051259 4.893607,-10.446919 3.579466,-3.285275 8.523172,-4.837549 15.403694,-4.836609 8.80783,0.0012 13.7319,2.331488 17.21689,8.147796 0.44212,0.737852 1.00507,7.982218 1.25102,16.098592 0.41599,13.727966 0.59547,14.964953 2.57364,17.738497 l 2.12647,2.981455 -4.36238,3.909805 c -2.39931,2.150393 -4.71057,3.927842 -5.13612,3.949882 -0.42556,0.022 -2.08191,-1.388106 -3.68079,-3.133666 l -2.90703,-3.173746 -2.679,2.254228 c -3.65392,3.074564 -6.68276,4.093864 -12.153224,4.089914 -3.04819,-0.002 -5.636023,-0.61233 -7.552064,-1.780551 z M 106.29168,89.340597 c 1.59727,-1.700211 2.20643,-3.553103 2.49931,-7.602113 l 0.38727,-5.353948 h -2.81932 c -6.533421,0 -10.811155,3.660043 -10.811155,9.250066 0,5.751906 6.662775,8.050159 10.743895,3.705995 z"
         id="path292"
         sodipodi:nodetypes="sssssssssssscsccsssscssscsssssccssssssscscccssssccscssssssssscsscscccscssscsss" />
    </g>
  </g>
</svg>
