<?xml version="1.0" encoding="UTF-8" standalone="no"?>
<svg
   xmlns:dc="http://purl.org/dc/elements/1.1/"
   xmlns:cc="http://creativecommons.org/ns#"
   xmlns:rdf="http://www.w3.org/1999/02/22-rdf-syntax-ns#"
   xmlns:svg="http://www.w3.org/2000/svg"
   xmlns="http://www.w3.org/2000/svg"
   xmlns:sodipodi="http://sodipodi.sourceforge.net/DTD/sodipodi-0.dtd"
   xmlns:inkscape="http://www.inkscape.org/namespaces/inkscape"
   inkscape:version="1.0 (4035a4fb49, 2020-05-01)"
   sodipodi:docname="aupay.svg"
   id="svg66"
   version="1.1"
   viewBox="0 0 120.10854 120.10854"
   height="120.10854mm"
   width="120.10854mm">
  <defs
     id="defs60" />
  <sodipodi:namedview
     inkscape:window-maximized="1"
     inkscape:window-y="-8"
     inkscape:window-x="-8"
     inkscape:window-height="684"
     inkscape:window-width="1024"
     showgrid="false"
     inkscape:document-rotation="0"
     inkscape:current-layer="layer1"
     inkscape:document-units="mm"
     inkscape:cy="229.32352"
     inkscape:cx="814.61747"
     inkscape:zoom="0.35"
     inkscape:pageshadow="2"
     inkscape:pageopacity="0.0"
     borderopacity="1.0"
     bordercolor="#666666"
     pagecolor="#ffffff"
     id="base" />
  <metadata
     id="metadata63">
    <rdf:RDF>
      <cc:Work
         rdf:about="">
        <dc:format>image/svg+xml</dc:format>
        <dc:type
           rdf:resource="http://purl.org/dc/dcmitype/StillImage" />
        <dc:title></dc:title>
      </cc:Work>
    </rdf:RDF>
  </metadata>
  <g
     transform="translate(122.93004,-87.491485)"
     id="layer1"
     inkscape:groupmode="layer"
     inkscape:label="レイヤー 1">
    <path
       id="path82"
       d="m -114.61728,179.37819 v -21.91197 h 10.34401 10.343996 l 1.95353,1.00364 1.95353,1.00365 2.53935,2.35023 2.53936,2.35023 1.2617,2.41509 1.2617,2.41509 v 3.65061 3.6506 l -1.24665,2.98366 -1.24665,2.98366 -3.3781,2.5774 -3.3781,2.57741 -7.44919,0.31537 -7.449196,0.31536 v 6.61597 6.61597 h -4.02465 -4.02464 z m 21.303086,-0.29401 2.07422,-1.59579 0.47044,-3.52693 0.47045,-3.52693 -1.9388,-2.45951 -1.93881,-2.45951 h -6.195646 -6.19565 v 7.60212 7.60211 l 5.58979,-0.0199 5.589786,-0.0199 2.07422,-1.59579 z m 10.89409,21.5293 v -0.67667 l 0.84247,-2.6772 0.84247,-2.6772 2.64324,-7.15492 2.64324,-7.15493 3.11889,-8.49648 3.1189,-8.49648 1.085,-2.90669 1.085,-2.90669 h 3.05726 3.05726 l 1.2823,2.90669 1.2823,2.90669 2.78333,8.04929 2.78334,8.0493 1.21933,3.13028 1.21933,3.13028 2.74986,7.45494 2.74987,7.45493 v 0.41977 0.41978 l -4.24824,-0.2726 -4.24824,-0.27259 -1.31398,-3.80106 -1.31397,-3.80105 h -7.74478 -7.74477 l -0.91904,2.4595 -0.91904,2.45951 -0.50295,1.56514 -0.50294,1.56514 h -4.05272 -4.05272 z m 21.72661,-21.0117 -2.17404,-6.48415 -0.69368,-0.71071 -0.69368,-0.71071 -1.85884,5.62972 -1.85883,5.62972 -0.61171,1.56515 -0.61171,1.56514 h 5.33826 5.33826 z m 26.569173,15.42385 v -6.26454 l -8.126852,-15.64743 -8.126851,-15.64744 h 4.82037 4.820379 l 5.210971,10.95598 5.210972,10.95599 5.332471,-10.95599 5.33248,-10.95598 h 4.450063 4.450062 l -0.497384,1.56514 -0.497375,1.56514 -7.165,13.73372 -7.16501,13.73371 v 6.61312 6.61311 h -4.024648 -4.024648 z m -82.728879,-58.98308 -1.78873,-0.73987 -2.14406,-2.308 -2.14405,-2.30799 0.54383,-5.82376 0.54383,-5.82375 2.49459,-5.15796 2.49459,-5.15796 4.22933,-4.27191 4.22933,-4.27192 4.26715,-1.861657 4.267146,-1.86166 5.81305,-1.244945 5.81304,-1.244945 h 6.48449 6.48449 v 0.833924 0.833925 l -2.75448,10.569238 -2.75448,10.56925 -0.41838,2.15068 -0.41838,2.15069 -0.85179,1.59157 -0.85178,1.59158 v 3.63626 3.63626 h 1.80871 1.80872 l 3.90711,-3.60145 3.90711,-3.60145 2.2328,-7.35453 2.23279,-7.35454 0.98124,-3.57747 0.98123,-3.57746 1.82212,-2.960508 1.82212,-2.960509 3.08198,-1.28773 3.08197,-1.28773 h 2.26464 2.26464 v 0.836143 0.836143 l -0.98114,2.51773 -0.98114,2.517731 -3.04351,11.99597 -3.0435,11.99596 v 3.43185 3.43185 h 3.59646 3.59646 l 4.78804,-4.69542 4.788053,-4.69542 1.968641,-6.70775 1.968641,-6.70775 0.7534,-2.38347 0.7534,-2.38348 -0.403867,-0.40387 -0.403868,-0.40386 3.830771,-4.209208 3.83077,-4.209202 3.903041,-0.513413 3.903041,-0.513413 -0.606997,1.912501 -0.607007,1.912501 -0.436021,2.404506 -0.436021,2.404508 -0.492125,0.79627 -0.492117,0.79627 -1.608106,6.42133 -1.608115,6.42133 -1.430557,5.33051 -1.430566,5.33051 v 1.6289 1.62889 l 1.384605,0.53132 1.384604,0.53133 2.956524,-2.12454 2.956534,-2.12453 4.415996,-5.36619 4.415996,-5.3662 3.021241,-4.24824 3.0212494,-4.24824 h 2.531486 2.531486 v 0.59116 0.59115 l -5.090724,6.78737 -5.0907244,6.78736 -4.970896,5.2349 -4.970897,5.23489 -2.415093,1.24926 -2.415093,1.24926 h -4.807532 -4.807524 l -1.944633,-2.06997 -1.944634,-2.06996 v -1.06032 -1.06031 h -0.784855 -0.784857 l -1.22747,1.48387 -1.22747,1.48388 -4.47183,2.08485 -4.47183,2.08485 -4.47183,0.005 -4.47183,0.005 -3.00217,-1.83026 -3.00217,-1.8303 -0.45601,-1.74382 -0.45602,-1.74381 h -0.73727 -0.73728 l -0.54619,0.88375 -0.54619,0.88376 -3.91477,2.29421 -3.91478,2.29421 -2.40099,0.43538 -2.401,0.43539 -3.01694,-0.99568 -3.01693,-0.99568 -1.5463,-2.61767 -1.54629,-2.61767 h -0.56292 -0.56292 l -1.6816,1.85814 -1.68159,1.85814 -3.774146,1.71932 -3.77415,1.71933 -4.29731,-0.0567 -4.29731,-0.0567 z m 14.84837,-6.54908 3.038956,-2.03613 2.79014,-4.15101 2.79014,-4.15102 2.42907,-9.9839 2.42906,-9.983908 -0.52638,-0.526386 -0.52639,-0.526387 -4.51677,2.115541 -4.51677,2.11554 -3.585326,3.88963 -3.58534,3.88964 -2.63198,5.86618 -2.63198,5.86618 -0.55172,3.45028 -0.55173,3.45028 0.52795,1.3758 0.52794,1.3758 h 3.02609 3.02609 z"
       style="fill:#000000;stroke-width:0.894366" />
  </g>
</svg>
