<?xml version="1.0" encoding="UTF-8" standalone="no"?>
<svg
   xmlns:dc="http://purl.org/dc/elements/1.1/"
   xmlns:cc="http://creativecommons.org/ns#"
   xmlns:rdf="http://www.w3.org/1999/02/22-rdf-syntax-ns#"
   xmlns:svg="http://www.w3.org/2000/svg"
   xmlns="http://www.w3.org/2000/svg"
   xmlns:sodipodi="http://sodipodi.sourceforge.net/DTD/sodipodi-0.dtd"
   xmlns:inkscape="http://www.inkscape.org/namespaces/inkscape"
   inkscape:version="1.0 (4035a4fb49, 2020-05-01)"
   sodipodi:docname="dbarai.svg"
   id="svg66"
   version="1.1"
   viewBox="0 0 47.360415 47.448619"
   height="47.44862mm"
   width="47.360416mm">
  <defs
     id="defs60" />
  <sodipodi:namedview
     inkscape:window-maximized="1"
     inkscape:window-y="-8"
     inkscape:window-x="-8"
     inkscape:window-height="684"
     inkscape:window-width="1024"
     showgrid="false"
     inkscape:document-rotation="0"
     inkscape:current-layer="layer1"
     inkscape:document-units="mm"
     inkscape:cy="75.966375"
     inkscape:cx="709.83176"
     inkscape:zoom="0.35"
     inkscape:pageshadow="2"
     inkscape:pageopacity="0.0"
     borderopacity="1.0"
     bordercolor="#666666"
     pagecolor="#ffffff"
     id="base" />
  <metadata
     id="metadata63">
    <rdf:RDF>
      <cc:Work
         rdf:about="">
        <dc:format>image/svg+xml</dc:format>
        <dc:type
           rdf:resource="http://purl.org/dc/dcmitype/StillImage" />
        <dc:title></dc:title>
      </cc:Work>
    </rdf:RDF>
  </metadata>
  <g
     transform="translate(95.205487,-128.06723)"
     id="layer1"
     inkscape:groupmode="layer"
     inkscape:label="レイヤー 1">
    <path
       id="path112"
       d="m -87.267986,175.31778 -0.793751,-0.19806 -1.256973,-0.55885 -1.256972,-0.55885 -1.463759,-1.38437 -1.463758,-1.38436 -0.851144,-1.73928 -0.851144,-1.73928 v -16.00729 -16.00729 l 0.851144,-1.73928 0.851144,-1.73928 1.463127,-1.38377 1.463128,-1.38376 1.522187,-0.71342 1.522187,-0.71341 h 16.007291 16.007292 l 1.522187,0.71341 1.522185,0.71342 1.463128,1.38376 1.46313,1.38377 0.851143,1.73928 0.851143,1.73928 v 16.00729 16.00729 l -0.713412,1.52219 -0.713414,1.52218 -1.383763,1.46313 -1.383766,1.46313 -1.73928,0.85114 -1.739281,0.85115 -15.478125,0.0441 -15.478124,0.0441 z m 6.663842,-9.79884 0.843009,-0.51402 0.325567,-0.60832 0.325567,-0.60833 v -1.06763 -1.06763 l -0.495054,-0.75555 -0.495054,-0.75555 -0.863462,-0.36078 -0.863462,-0.36077 h -0.704872 -0.704873 l -0.873269,0.53971 -0.873269,0.53971 -0.427653,1.11979 -0.427653,1.11979 0.343651,1.04281 0.34365,1.0428 0.899024,0.60498 0.899023,0.60499 0.95306,-0.001 0.95306,-0.001 0.84301,-0.51402 z m 10.675026,0.11465 0.776132,-0.40136 0.401353,-0.77613 0.401354,-0.77613 v -1.07536 -1.07536 l -0.868984,-0.94822 -0.868984,-0.94823 -1.181537,-0.12072 -1.181537,-0.12072 -0.875817,0.54946 -0.875817,0.54946 -0.402376,0.96302 -0.402375,0.96302 0.174581,0.93059 0.174581,0.9306 0.878716,0.87871 0.878716,0.87872 h 1.097931 1.09793 z m 10.828717,-0.0314 0.732565,-0.43273 0.432737,-0.73257 0.432737,-0.73256 -0.0039,-0.88522 -0.0039,-0.88522 -0.330684,-0.65352 -0.330684,-0.65352 -0.895168,-0.60325 -0.89517,-0.60325 -0.820767,10e-4 -0.820769,0.001 -0.84705,0.51648 -0.84705,0.51648 -0.438783,0.84851 -0.438782,0.84851 0.145026,1.08126 0.145029,1.08126 0.938482,0.86005 0.938482,0.86006 h 1.087541 1.087543 l 0.732565,-0.43274 z m -24.595711,-11.87641 0.926041,-0.16653 1.455209,-0.85826 1.455208,-0.85827 0.07077,-6.52993 0.07077,-6.52994 h -1.592122 -1.592122 v 2.54185 2.54185 l -0.463021,-0.18667 -0.463021,-0.18667 -0.931108,-0.13287 -0.931109,-0.13287 -1.185557,0.3171 -1.185559,0.3171 -1.066029,1.1084 -1.066029,1.1084 -0.310785,1.34639 -0.310785,1.34639 0.278044,1.02507 0.278044,1.02507 0.516794,0.84656 0.516794,0.84656 0.870185,0.5378 0.870185,0.5378 1.034708,0.23987 1.034707,0.23986 0.396875,-0.0888 0.396875,-0.0888 z m -2.675452,-2.8936 -0.691078,-0.38629 -0.32597,-0.78696 -0.325971,-0.78697 0.177467,-0.808 0.177467,-0.808 0.676825,-0.53239 0.676825,-0.53239 h 0.613327 0.613327 l 0.644732,0.29376 0.644732,0.29376 0.293759,0.64473 0.29376,0.64473 v 0.76655 0.76655 l -0.595313,0.67649 -0.595312,0.6765 -0.79375,0.13211 -0.79375,0.1321 z m 12.055711,2.46028 0.673907,-0.30705 0.0084,-0.28826 0.0084,-0.28826 0.359466,0.47394 0.359467,0.47394 2.724616,-0.55524 2.724617,-0.55525 0.182578,-0.11284 0.182581,-0.11284 0.157893,0.78946 0.157892,0.78945 0.205052,-0.006 0.205052,-0.006 0.661458,-0.50872 0.661459,-0.50873 -0.496528,-1.40362 -0.49653,-1.40361 -0.613392,-1.38907 -0.613389,-1.38906 h -0.228573 -0.228574 l -0.49635,0.36294 -0.49635,0.36294 0.44578,1.16726 0.445781,1.16726 v 0.17716 0.17715 l -0.992188,0.27554 -0.992187,0.27555 -0.285606,0.001 -0.285605,10e-4 1.01321,-4.01285 1.013209,-4.01285 v -0.45421 -0.45421 l -0.595312,-0.15953 -0.595313,-0.15954 -0.294576,-0.004 -0.294575,-0.004 -0.331366,1.65365 -0.331365,1.65365 -0.637945,2.51354 -0.637946,2.51354 -0.289567,0.7276 -0.289567,0.72761 h -0.364776 -0.364775 v -1.3972 -1.39721 l 0.79375,-0.2996 0.79375,-0.29961 v -0.81673 -0.81674 h -0.115068 -0.115067 l -0.678683,0.25804 -0.678682,0.25803 v -0.7872 -0.7872 h 0.810513 0.810514 l -0.08291,-0.8599 -0.08291,-0.85989 -0.727604,-0.0837 -0.727604,-0.0837 v -0.90847 -0.90847 h -0.926042 -0.926042 v 0.90847 0.90847 l -0.727604,0.0837 -0.727604,0.0837 -0.08291,0.85989 -0.08291,0.8599 h 0.810514 0.810513 v 1.03781 1.03782 l -0.926041,0.30562 -0.926042,0.30562 v 0.48701 0.48701 l 0.151408,0.39456 0.151408,0.39456 0.774633,-0.22216 0.774634,-0.22216 v 1.17215 1.17216 h -0.661458 -0.661458 v 0.25213 0.25214 l 0.307053,0.67391 0.307053,0.6739 h 0.474247 0.474248 z m 15.501115,-0.75666 1.047792,-0.53454 v -1.05296 -1.05295 h -0.137964 -0.137964 l -1.045565,0.69192 -1.045564,0.69192 -0.647997,-0.16264 -0.647996,-0.16263 -0.321045,-0.97278 -0.321049,-0.97278 0.172763,-2.53307 0.172765,-2.53307 0.06158,-0.66146 0.06158,-0.66146 h -0.923443 -0.923444 l -0.16973,0.79376 -0.169733,0.79375 -0.03131,3.02531 -0.0313,3.02532 0.534307,1.10373 0.534305,1.10373 0.590174,0.28482 0.590172,0.28481 0.870437,0.0179 0.870437,0.0179 1.047792,-0.53455 z m 5.808295,-1.51597 -0.0021,-0.99219 -0.274431,-1.71979 -0.274429,-1.7198 -0.313727,-0.92604 -0.313727,-0.92604 -0.423018,-0.79375 -0.423021,-0.79375 -1.10013,-0.0812 -1.100132,-0.0812 0.693134,1.38 0.693137,1.38 0.358696,1.34703 0.358698,1.34703 0.0031,1.60955 0.0031,1.60955 0.17639,0.17638 0.176387,0.17639 h 0.881946 0.881944 l -0.0021,-0.99218 z"
       style="fill:#000000;fill-opacity:1;stroke-width:0.264583" />
  </g>
</svg>
