<?xml version="1.0" encoding="UTF-8" standalone="no"?>
<svg
   xmlns:dc="http://purl.org/dc/elements/1.1/"
   xmlns:cc="http://creativecommons.org/ns#"
   xmlns:rdf="http://www.w3.org/1999/02/22-rdf-syntax-ns#"
   xmlns:svg="http://www.w3.org/2000/svg"
   xmlns="http://www.w3.org/2000/svg"
   xmlns:sodipodi="http://sodipodi.sourceforge.net/DTD/sodipodi-0.dtd"
   xmlns:inkscape="http://www.inkscape.org/namespaces/inkscape"
   inkscape:version="1.0 (4035a4fb49, 2020-05-01)"
   sodipodi:docname="dbarai_1.svg"
   id="svg66"
   version="1.1"
   viewBox="0 0 127.22978 127.22977"
   height="127.22977mm"
   width="127.22977mm">
  <defs
     id="defs60" />
  <sodipodi:namedview
     inkscape:window-maximized="1"
     inkscape:window-y="-8"
     inkscape:window-x="-8"
     inkscape:window-height="684"
     inkscape:window-width="1024"
     showgrid="false"
     inkscape:document-rotation="0"
     inkscape:current-layer="layer1"
     inkscape:document-units="mm"
     inkscape:cy="211.08661"
     inkscape:cx="556.40344"
     inkscape:zoom="0.71"
     inkscape:pageshadow="2"
     inkscape:pageopacity="0.0"
     borderopacity="1.0"
     bordercolor="#666666"
     pagecolor="#ffffff"
     id="base" />
  <metadata
     id="metadata63">
    <rdf:RDF>
      <cc:Work
         rdf:about="">
        <dc:format>image/svg+xml</dc:format>
        <dc:type
           rdf:resource="http://purl.org/dc/dcmitype/StillImage" />
        <dc:title></dc:title>
      </cc:Work>
    </rdf:RDF>
  </metadata>
  <g
     transform="translate(127.70641,-92.316669)"
     id="layer1"
     inkscape:groupmode="layer"
     inkscape:label="レイヤー 1">
    <path
       id="path196"
       d="m -106.26048,200.08113 -2.48455,-1.85324 -1.31651,-2.54584 -1.3165,-2.54585 v -2.14292 -2.14292 l 1.44499,-2.89657 1.445,-2.89656 2.80324,-1.70933 2.80324,-1.70934 2.95111,-0.003 2.951104,-0.003 2.584393,1.33644 2.584392,1.33644 1.395842,1.99284 1.39584,1.99284 v 4.80945 4.80945 l -3.040845,3.04085 -3.040845,3.04084 -4.337676,-0.0284 -4.337675,-0.0283 -2.48455,-1.85324 z m 35.507778,-0.99733 -3.172335,-2.90722 -0.490233,-3.65497 -0.490234,-3.65496 1.483206,-2.86821 1.483207,-2.8682 2.863271,-1.74584 2.86327,-1.74584 3.351296,-0.003 3.351296,-0.003 3.67388,3.31913 3.67387,3.31913 -0.38571,5.33238 -0.38571,5.33239 -3.02821,2.52806 -3.02821,2.52807 h -4.295162 -4.295157 l -3.172335,-2.90723 z m 36.500604,-0.15433 -3.34073,-3.06156 v -5.09001 -5.09002 l 3.50288,-3.028 3.50288,-3.028 h 3.98086 3.98085 l 3.47226,3.47224 3.47224,3.47225 v 4.23508 4.23509 l -3.47224,3.47224 -3.47226,3.47225 h -4.143 -4.14299 z m -82.939332,-39.32034 -2.6831,-1.17105 -3.30333,-3.6596 -3.30334,-3.6596 -0.61261,-3.26547 -0.6126,-3.26547 0.53952,-4.55538 0.53951,-4.55538 2.53951,-3.18849 2.53951,-3.1885 3.52002,-1.77661 3.52001,-1.7766 4.47184,-0.0121 4.47183,-0.0121 2.01232,0.73105 2.01232,0.73104 v -8.55675 -8.55674 h 5.381826 5.381821 l -0.239215,22.05923 -0.239216,22.05923 -3.130282,1.75395 -3.130281,1.75394 -3.117033,1.67626 -3.11704,1.67626 -5.37944,-0.035 -5.37945,-0.035 z m 13.63909,-10.8818 2.01232,-2.28675 v -2.59114 -2.59114 l -0.99299,-2.17938 -0.99299,-2.17937 -2.17937,-0.99299 -2.17937,-0.99299 h -2.07322 -2.07322 l -2.32328,1.82749 -2.32327,1.82748 -0.55959,2.98288 -0.5596,2.98288 1.46753,2.83789 1.46753,2.83789 1.9655,0.82538 1.9655,0.82538 2.6831,-0.42338 2.6831,-0.42339 z m 24.402947,8.60419 -0.925834,-1.72994 v -0.95316 -0.95316 h 2.235916 2.235915 v -3.8097 -3.8097 l -2.90669,0.009 -2.90669,0.009 -0.274678,-2.37329 -0.274677,-2.37329 3.181368,-1.04994 3.181367,-1.04995 v -3.5081 -3.50811 h -2.683098 -2.683099 v -3.13028 -3.13028 h 2.683099 2.683098 v -3.13028 -3.13029 h 3.130282 3.130282 v 3.57747 3.57746 h 2.235915 2.235916 v 2.6831 2.6831 h -2.235916 -2.235915 v 2.77879 2.77878 l 1.341549,-0.54287 1.341549,-0.54287 1.34155,-0.54287 1.341549,-0.54287 v 2.85647 2.85648 l -2.683099,1.01276 -2.683098,1.01275 v 4.78852 4.78851 l 1.491028,-0.28917 1.491028,-0.28917 0.636308,-2.23592 0.636309,-2.23591 0.979132,-3.57747 0.979132,-3.57746 1.312337,-4.91901 1.31234,-4.91902 1.01153,-5.1426 1.01153,-5.14261 h 3.16568 3.16567 l -0.57606,3.35387 -0.57606,3.35388 -0.99363,4.47183 -0.99363,4.47183 -1.73197,6.15106 -1.73198,6.15105 -0.48159,1.25503 -0.4816,1.25502 3.90732,-0.5891 3.90732,-0.58909 0.77373,-0.7041 0.77374,-0.70411 -1.60983,-4.21526 -1.60982,-4.21527 1.6778,-1.22684 1.67781,-1.22684 h 0.69722 0.69723 l 2.19479,4.69542 2.19478,4.69542 1.55414,4.8248 1.55414,4.82479 -1.65775,1.21218 -1.65775,1.21218 h -1.25434 -1.25434 l -0.49287,-1.88476 -0.49288,-1.88475 -2.77727,0.52848 -2.77727,0.52847 -7.11474,1.31358 -7.114741,1.31357 -0.964549,-0.8005 -0.964549,-0.80051 -1.311553,0.82951 -1.311554,0.82951 -2.875223,0.0137 -2.875222,0.0137 z m 46.603895,-1.42962 -2.69202,-2.26518 -1.06791,-3.23579 -1.0679,-3.23579 0.4162,-11.52603 0.4162,-11.52603 0.8156,-0.76439 0.81559,-0.76439 2.98924,0.46488 2.98923,0.46488 -0.56443,2.34588 -0.56442,2.34588 -0.51974,8.49648 -0.51972,8.49648 1.40316,3.35387 1.40316,3.35388 h 2.07394 2.07393 l 3.29045,-2.23592 3.29044,-2.23591 h 0.49464 0.49463 v 3.62119 3.62119 l -3.80105,1.72536 -3.80106,1.72536 -2.83807,0.0197 -2.83807,0.0196 z m 25.5782796,-1.98305 -0.33559,-0.67077 -0.21388,-5.81338 -0.21387,-5.81338 -0.94835,-3.57747 -0.94835,-3.57746 -2.6002496,-5.19504 -2.60025,-5.19504 3.75075,0.27602 3.7507396,0.27603 1.45297,2.6831 1.45297,2.6831 1.04833,3.57746 1.04834,3.57746 0.92351,4.73945 0.92351,4.73944 v 3.98063 3.98062 h -3.07749 -3.07751 z"
       style="fill:#070707;stroke-width:0.894366" />
  </g>
</svg>
