<?xml version="1.0" encoding="UTF-8" standalone="no"?>
<svg
   xmlns:dc="http://purl.org/dc/elements/1.1/"
   xmlns:cc="http://creativecommons.org/ns#"
   xmlns:rdf="http://www.w3.org/1999/02/22-rdf-syntax-ns#"
   xmlns:svg="http://www.w3.org/2000/svg"
   xmlns="http://www.w3.org/2000/svg"
   xmlns:sodipodi="http://sodipodi.sourceforge.net/DTD/sodipodi-0.dtd"
   xmlns:inkscape="http://www.inkscape.org/namespaces/inkscape"
   sodipodi:docname="help.svg"
   inkscape:version="1.0 (4035a4fb49, 2020-05-01)"
   id="svg28"
   version="1.1"
   viewBox="0 0 56.29705 56.29705"
   height="56.29705mm"
   width="56.29705mm">
  <defs
     id="defs22" />
  <sodipodi:namedview
     inkscape:window-maximized="1"
     inkscape:window-y="-8"
     inkscape:window-x="-8"
     inkscape:window-height="684"
     inkscape:window-width="1024"
     showgrid="false"
     inkscape:document-rotation="0"
     inkscape:current-layer="layer1"
     inkscape:document-units="mm"
     inkscape:cy="109.8492"
     inkscape:cx="59.356397"
     inkscape:zoom="1.5066667"
     inkscape:pageshadow="2"
     inkscape:pageopacity="0.0"
     borderopacity="1.0"
     bordercolor="#666666"
     pagecolor="#ffffff"
     id="base" />
  <metadata
     id="metadata25">
    <rdf:RDF>
      <cc:Work
         rdf:about="">
        <dc:format>image/svg+xml</dc:format>
        <dc:type
           rdf:resource="http://purl.org/dc/dcmitype/StillImage" />
        <dc:title></dc:title>
      </cc:Work>
    </rdf:RDF>
  </metadata>
  <g
     transform="translate(-55.6463,-165.96184)"
     id="layer1"
     inkscape:groupmode="layer"
     inkscape:label="レイヤー 1">
    <path
       id="path44"
       d="m 80.659948,166.21553 c -5.747544,0.82341 -11.252861,3.58037 -14.051915,8.88254 -0.722127,1.36795 -2.837683,6.20104 -0.725567,7.13528 1.399064,0.61886 6.708484,1.78621 8.048334,0.99563 1.237192,-0.72972 1.573742,-4.21603 2.596356,-5.48404 3.284538,-4.07361 10.282767,-4.42148 13.873427,-0.51959 6.328305,6.87728 -3.906837,11.90304 -7.878233,15.87471 -1.083204,1.08346 -1.918758,2.32066 -2.587625,3.69384 -0.940329,1.93067 -3.074987,9.72476 0.461963,10.03856 1.48881,0.13229 6.767512,0.74586 7.664185,-0.59769 0.581819,-0.87181 0.211138,-2.36088 0.318029,-3.35545 0.184679,-1.71953 0.898261,-3.2422 2.095236,-4.4876 3.842279,-3.99679 9.040812,-5.52714 11.229712,-11.12282 0.69479,-1.77588 0.91572,-3.6658 0.91652,-5.55625 0.005,-11.73194 -11.388466,-17.01167 -21.960422,-15.49712 m 2.116667,44.46133 c -7.876382,1.3917 -5.425546,13.11433 2.38125,11.41386 6.944518,-1.51289 4.541837,-12.63703 -2.38125,-11.41386 z"
       style="fill:#030303;stroke:none;stroke-width:0.264583" />
  </g>
</svg>
