<?xml version="1.0" encoding="UTF-8" standalone="no"?>
<svg
   xmlns:dc="http://purl.org/dc/elements/1.1/"
   xmlns:cc="http://creativecommons.org/ns#"
   xmlns:rdf="http://www.w3.org/1999/02/22-rdf-syntax-ns#"
   xmlns:svg="http://www.w3.org/2000/svg"
   xmlns="http://www.w3.org/2000/svg"
   xmlns:sodipodi="http://sodipodi.sourceforge.net/DTD/sodipodi-0.dtd"
   xmlns:inkscape="http://www.inkscape.org/namespaces/inkscape"
   sodipodi:docname="jcoinpay.svg"
   inkscape:version="1.0 (4035a4fb49, 2020-05-01)"
   id="svg340"
   version="1.1"
   viewBox="0 0 31.385706 31.299267"
   height="31.299267mm"
   width="31.385706mm">
  <defs
     id="defs334" />
  <sodipodi:namedview
     inkscape:window-maximized="0"
     inkscape:window-y="0"
     inkscape:window-x="0"
     inkscape:window-height="707"
     inkscape:window-width="1008"
     showgrid="false"
     inkscape:document-rotation="0"
     inkscape:current-layer="layer1"
     inkscape:document-units="mm"
     inkscape:cy="145.09027"
     inkscape:cx="397.9457"
     inkscape:zoom="0.35"
     inkscape:pageshadow="2"
     inkscape:pageopacity="0.0"
     borderopacity="1.0"
     bordercolor="#666666"
     pagecolor="#ffffff"
     id="base" />
  <metadata
     id="metadata337">
    <rdf:RDF>
      <cc:Work
         rdf:about="">
        <dc:format>image/svg+xml</dc:format>
        <dc:type
           rdf:resource="http://purl.org/dc/dcmitype/StillImage" />
        <dc:title></dc:title>
      </cc:Work>
    </rdf:RDF>
  </metadata>
  <g
     transform="translate(-0.54353324,-79.540104)"
     id="layer1"
     inkscape:groupmode="layer"
     inkscape:label="レイヤー 1">
    <path
       id="path356"
       d="m 13.404949,110.55188 -1.376229,-0.22963 -1.66648,-0.67078 -1.6664788,-0.67079 -1.786717,-1.31683 -1.786717,-1.31684 -1.316835,-1.78671 -1.316836,-1.78672 -0.677366,-1.68293 -0.677367,-1.682916 -0.29519496,-2.08739 -0.295195,-2.08738 0.295195,-2.08739 0.29519496,-2.08739 0.677367,-1.68292 0.677366,-1.68293 1.316836,-1.78672 1.316835,-1.78671 1.786717,-1.31684 1.786717,-1.31683 1.6829238,-0.67737 1.682924,-0.67737 2.087388,-0.29519 2.087389,-0.2952 2.087389,0.2952 2.087389,0.29519 1.682922,0.67737 1.682925,0.67737 1.786718,1.31683 1.786715,1.31684 1.316837,1.78671 1.316834,1.78672 0.677368,1.68293 0.677365,1.68292 0.295195,2.08739 0.295196,2.08739 -0.295196,2.08738 -0.295195,2.08739 -0.677365,1.682916 -0.677368,1.68293 -1.316834,1.78672 -1.316837,1.78671 -1.786715,1.31684 -1.786718,1.31683 -1.634157,0.65785 -1.634156,0.65784 -1.673135,0.2715 -1.673135,0.2715 -1.190625,-0.0289 -1.190625,-0.0289 z m 3.792715,-8.77819 0.951572,-1.05327 0.697221,-1.486956 0.697221,-1.48697 0.08851,-5.75468 0.08851,-5.75469 h -2.00674 -2.006741 v 4.9876 4.9876 l -0.301123,0.89938 -0.301123,0.89938 -0.617725,0.83281 -0.617725,0.83281 -1.197818,0.579846 -1.197819,0.57986 v 0.1145 0.11449 l 0.786052,1.73361 0.786052,1.7336 1.600051,-0.85282 1.600051,-0.85282 z"
       style="fill:#000000;stroke-width:0.264583" />
  </g>
</svg>
