<?xml version="1.0" encoding="UTF-8" standalone="no"?>
<svg
   xmlns:dc="http://purl.org/dc/elements/1.1/"
   xmlns:cc="http://creativecommons.org/ns#"
   xmlns:rdf="http://www.w3.org/1999/02/22-rdf-syntax-ns#"
   xmlns:svg="http://www.w3.org/2000/svg"
   xmlns="http://www.w3.org/2000/svg"
   xmlns:sodipodi="http://sodipodi.sourceforge.net/DTD/sodipodi-0.dtd"
   xmlns:inkscape="http://www.inkscape.org/namespaces/inkscape"
   sodipodi:docname="k.svg"
   inkscape:version="1.0 (4035a4fb49, 2020-05-01)"
   id="svg130"
   version="1.1"
   viewBox="0 0 40.914474 40.962429"
   height="40.962429mm"
   width="40.914474mm">
  <defs
     id="defs124" />
  <sodipodi:namedview
     fit-margin-bottom="0"
     fit-margin-right="0"
     fit-margin-left="0"
     fit-margin-top="0"
     inkscape:window-maximized="1"
     inkscape:window-y="-8"
     inkscape:window-x="-8"
     inkscape:window-height="684"
     inkscape:window-width="1024"
     showgrid="false"
     inkscape:document-rotation="0"
     inkscape:current-layer="layer1"
     inkscape:document-units="mm"
     inkscape:cy="452.95485"
     inkscape:cx="311.31194"
     inkscape:zoom="0.35"
     inkscape:pageshadow="2"
     inkscape:pageopacity="0.0"
     borderopacity="1.0"
     bordercolor="#666666"
     pagecolor="#ffffff"
     id="base" />
  <metadata
     id="metadata127">
    <rdf:RDF>
      <cc:Work
         rdf:about="">
        <dc:format>image/svg+xml</dc:format>
        <dc:type
           rdf:resource="http://purl.org/dc/dcmitype/StillImage" />
        <dc:title></dc:title>
      </cc:Work>
    </rdf:RDF>
  </metadata>
  <g
     transform="translate(-22.632048,-28.655695)"
     id="layer1"
     inkscape:groupmode="layer"
     inkscape:label="レイヤー 1">
    <g
       id="g88"
       transform="translate(-55.497972,-117.67598)"
       style="fill:#000000">
      <path
         style="fill:#000000;fill-opacity:1;stroke-width:0.264583"
         d="m 96.206007,187.17664 c -2.662983,-0.37514 -4.830997,-1.07337 -7.254293,-2.3363 -4.886815,-2.54683 -8.857419,-7.60776 -10.244986,-13.05826 -0.768944,-3.02048 -0.768944,-6.96586 0,-9.98634 1.82471,-7.16764 7.719718,-13.06265 14.887354,-14.88736 3.020487,-0.76894 6.965868,-0.76894 9.986348,0 7.16764,1.82471 13.06264,7.71972 14.88736,14.88736 0.76894,3.02048 0.76894,6.96586 0,9.98634 -1.81249,7.11961 -7.79373,13.13207 -14.75507,14.83209 -2.51501,0.61418 -5.533893,0.84038 -7.506713,0.56247 z m 1.058333,-20.38773 v -8.73125 h -4.233333 -4.233333 v 8.73125 8.73125 h 4.233333 4.233333 z m 12.19614,8.18407 c 1.28664,-0.91617 1.0623,-1.51872 -2.17871,-5.85194 -2.9345,-3.92341 -3.64936,-4.64142 -4.26821,-4.28698 -1.57483,0.90198 -4.740119,3.51409 -4.865991,4.01561 -0.162305,0.64667 -0.185976,0.60704 2.688651,4.50204 l 1.5875,2.15101 3.13415,0.009 c 2.75284,0.008 3.22765,-0.0579 3.90261,-0.53846 z m -4.51456,-11.49584 c 2.04366,-1.05682 2.04366,-4.22589 0,-5.28271 -2.71761,-1.40533 -5.511341,1.3861 -4.10638,4.103 0.74593,1.44246 2.57958,1.96925 4.10638,1.17971 z"
         id="path94" />
      <path
         style="fill:#000000;fill-opacity:1;stroke-width:0.264583"
         d="m 93.957049,186.65857 c -6.59388,-1.65302 -11.714705,-6.03869 -14.241231,-12.19674 -2.022202,-4.92884 -2.022202,-10.41701 0,-15.34584 4.286871,-10.44864 16.161619,-15.45835 26.544352,-11.19852 10.44864,4.28687 15.45836,16.16162 11.19852,26.54436 -2.56602,6.25433 -7.9306,10.76136 -14.6381,12.29814 -2.31218,0.52976 -6.538742,0.48141 -8.863541,-0.1014 z m 3.244712,-19.93581 -0.06971,-8.79739 h -4.233334 -4.233333 l -0.06971,8.79739 -0.06971,8.7974 h 4.372758 4.372759 z m 12.477699,8.11242 c 0.44772,-0.37674 0.81405,-0.87249 0.81405,-1.10167 0,-0.2992 -4.88088,-7.14404 -6.25697,-8.77463 -0.0512,-0.0606 -0.42094,-0.11025 -0.82172,-0.11025 -1.07052,0 -5.197182,3.19641 -5.305341,4.10939 -0.06074,0.51273 0.466234,1.4155 2.114581,3.62253 l 2.19548,2.93961 h 3.22293 c 3.08129,0 3.25871,-0.0301 4.03699,-0.68498 z m -4.89184,-11.21467 c 0.85175,-0.32384 1.73516,-1.7416 1.73516,-2.78473 0,-0.43656 -0.23774,-1.18367 -0.5283,-1.66024 -1.53806,-2.52264 -5.55514,-1.34485 -5.55514,1.62874 0,2.30626 2.10454,3.66929 4.34828,2.81623 z"
         id="path92" />
      <path
         style="fill:#000000;fill-opacity:1;stroke-width:0.264583"
         d="m 93.093594,175.5896 4.163629,-0.0825 0.07522,-8.79086 0.07522,-8.79086 -0.0055,8.86354 -0.0055,8.86354 -4.233333,0.01 -4.233334,0.01 4.163629,-0.0825 z m 8.896306,-0.26788 c -0.71588,-0.86423 -0.89271,-1.28144 -0.22764,-0.5371 0.65751,0.73589 0.68111,0.7403 3.95427,0.73792 3.21832,-0.002 3.3111,-0.0188 4.10104,-0.72998 l 0.80823,-0.72761 -0.77711,0.8599 -0.7771,0.85989 h -3.34908 c -2.86709,0 -3.40427,-0.0666 -3.73261,-0.46302 z m -2.106537,-2.77812 c -0.475765,-0.61847 -0.932254,-1.24917 -1.01442,-1.40156 -0.210688,-0.39076 0.960936,0.92462 1.601887,1.79843 0.86006,1.17251 0.35987,0.83461 -0.587467,-0.39687 z m 9.575537,-0.66146 c -0.65071,-0.95123 -0.6906,-1.0638 -0.16406,-0.46302 0.70016,0.79889 1.30018,1.71979 1.12054,1.71979 -0.0532,0 -0.48363,-0.56555 -0.95648,-1.25677 z m -11.406116,-1.79233 c -0.184076,-0.2218 -0.283444,-0.45451 -0.220819,-0.51714 0.06263,-0.0626 0.259195,0.11885 0.436821,0.40327 0.384125,0.61509 0.256018,0.68262 -0.216002,0.11387 z m 9.244756,-1.11809 c -0.629,-0.83674 -1.31678,-1.72971 -1.52839,-1.98437 -0.21161,-0.25466 -0.31527,-0.46302 -0.23037,-0.46302 0.0849,0 0.71474,0.74414 1.39964,1.65364 0.68489,0.90951 1.36283,1.80248 1.50653,1.98438 0.14369,0.1819 0.20164,0.33073 0.12875,0.33073 -0.0729,0 -0.64715,-0.68461 -1.27616,-1.52136 z m -8.974866,-0.97247 c 0,-0.0591 0.47625,-0.48474 1.058333,-0.94576 0.582083,-0.46102 1.053813,-0.73891 1.048293,-0.61754 -0.01,0.21706 -2.106626,1.77304 -2.106626,1.5633 z m 3.296976,-2.59228 c 0.44223,-0.39627 0.90942,-0.72369 1.03818,-0.72761 0.12877,-0.004 -0.10936,0.25233 -0.52916,0.56943 -1.1725,0.88565 -1.39968,0.95625 -0.50902,0.15818 z m 3.15895,0.18821 c -0.23949,-0.36551 -0.72403,-0.737 -1.07676,-0.82553 -0.35272,-0.0885 -0.58521,-0.21706 -0.51664,-0.28563 0.27854,-0.27854 1.2431,0.26721 1.7632,0.99762 0.30473,0.42796 0.48916,0.7781 0.40985,0.7781 -0.0793,0 -0.34016,-0.29905 -0.57965,-0.66456 z m -3.36321,-2.312 c -0.49058,-0.48586 -0.54414,-0.57721 -0.12311,-0.21001 0.45076,0.39313 1.23957,0.71889 1.99662,0.82454 l 1.25148,0.17466 -1.12836,0.0353 c -0.94353,0.0296 -1.27059,-0.1055 -1.99663,-0.82454 z m 3.91421,0.0224 c 0.40056,-0.31508 0.88821,-0.94016 1.08366,-1.38906 0.20492,-0.47065 0.35975,-0.62407 0.36572,-0.36238 0.0115,0.50608 -1.47853,2.32431 -1.90481,2.32431 -0.15007,0 0.0549,-0.25779 0.45543,-0.57287 z m -5.07917,-2.46984 c 0.002,-0.7276 0.0534,-0.99385 0.11419,-0.59167 0.0608,0.40218 0.0592,0.9975 -0.004,1.32292 -0.0628,0.32542 -0.11256,-0.004 -0.11058,-0.73125 z m 6.22789,-0.74766 c -0.0984,-0.48282 -0.0616,-0.65679 0.10411,-0.49113 0.14109,0.1411 0.20969,0.47755 0.15244,0.74767 -0.0771,0.36375 -0.14364,0.29722 -0.25655,-0.25654 z m -5.06293,-1.69973 c 0.72604,-0.71904 1.0531,-0.85411 1.99663,-0.82454 l 1.12836,0.0353 -1.25148,0.17466 c -0.75705,0.10565 -1.54586,0.43141 -1.99662,0.82454 -0.42103,0.3672 -0.36747,0.27585 0.12311,-0.21001 z m 3.97013,0.0578 c -0.40829,-0.3592 -0.63741,-0.65309 -0.50914,-0.65309 0.12827,0 0.51285,0.29765 0.85463,0.66145 0.79074,0.84171 0.61595,0.83748 -0.34549,-0.008 z m -14.524763,-0.85014 c 1.207457,-0.0491 3.112457,-0.0489 4.233334,6.1e-4 1.120877,0.0495 0.132958,0.0897 -2.195376,0.0893 -2.328333,-3.4e-4 -3.245414,-0.0408 -2.037958,-0.0899 z"
         id="path90" />
    </g>
  </g>
</svg>
