<?xml version="1.0" encoding="UTF-8" standalone="no"?>
<svg
   xmlns:dc="http://purl.org/dc/elements/1.1/"
   xmlns:cc="http://creativecommons.org/ns#"
   xmlns:rdf="http://www.w3.org/1999/02/22-rdf-syntax-ns#"
   xmlns:svg="http://www.w3.org/2000/svg"
   xmlns="http://www.w3.org/2000/svg"
   xmlns:sodipodi="http://sodipodi.sourceforge.net/DTD/sodipodi-0.dtd"
   xmlns:inkscape="http://www.inkscape.org/namespaces/inkscape"
   width="315.40128mm"
   height="315.40128mm"
   viewBox="0 0 315.40128 315.40127"
   version="1.1"
   id="svg8"
   inkscape:version="1.0 (4035a4fb49, 2020-05-01)"
   sodipodi:docname="paypal.svg">
  <defs
     id="defs2" />
  <sodipodi:namedview
     id="base"
     pagecolor="#ffffff"
     bordercolor="#666666"
     borderopacity="1.0"
     inkscape:pageopacity="0.0"
     inkscape:pageshadow="2"
     inkscape:zoom="0.31"
     inkscape:cx="906.54443"
     inkscape:cy="511.04388"
     inkscape:document-units="mm"
     inkscape:current-layer="layer1"
     inkscape:document-rotation="0"
     showgrid="false"
     inkscape:window-width="1024"
     inkscape:window-height="684"
     inkscape:window-x="-8"
     inkscape:window-y="-8"
     inkscape:window-maximized="1" />
  <metadata
     id="metadata5">
    <rdf:RDF>
      <cc:Work
         rdf:about="">
        <dc:format>image/svg+xml</dc:format>
        <dc:type
           rdf:resource="http://purl.org/dc/dcmitype/StillImage" />
        <dc:title />
      </cc:Work>
    </rdf:RDF>
  </metadata>
  <g
     inkscape:label="レイヤー 1"
     inkscape:groupmode="layer"
     id="layer1"
     transform="translate(101.44881,-103.66726)">
    <path
       style="fill:#000000;stroke-width:0.264583"
       d="m 18.905154,303.18551 -0.428326,-0.25027 -0.325607,-0.78609 -0.325609,-0.78609 0.37489,-0.75148 0.374894,-0.75149 5.916869,-8.32443 5.916869,-8.32442 -0.0013,-0.39687 -0.0013,-0.39688 -6.521579,-19.11294 -6.52158,-19.11295 0.164642,-0.46622 0.164643,-0.46623 0.535863,-0.59531 0.53586,-0.59531 h 6.585858 6.585855 l 0.577919,0.29765 0.577918,0.29764 0.56016,0.5092 0.560158,0.5092 3.525676,11.76087 3.525673,11.76086 0.1475,-0.007 0.1475,-0.007 8.09969,-11.96535 8.099687,-11.96536 0.869127,-0.59531 0.869127,-0.59531 h 6.672064 6.672067 l 0.69714,0.54837 0.69714,0.54837 v 0.89365 0.89367 l -19.835355,28.65432 -19.835355,28.65433 -0.841274,0.59531 -0.841272,0.59531 -6.773892,-0.008 -6.773894,-0.008 -0.428323,-0.25027 z m -50.239385,-14.95144 -1.71979,-0.3514 -1.14545,-0.41315 -1.14546,-0.41315 -1.55859,-0.83072 -1.5586,-0.83072 -1.52928,-1.4926 -1.52929,-1.4926 -1.04045,-1.56888 -1.04045,-1.56888 -0.72444,-1.86682 -0.72444,-1.86683 -0.4536,-2.24061 -0.45359,-2.24062 0.14601,-3.31563 0.14601,-3.31564 0.6924,-2.64583 0.69239,-2.64583 1.42132,-2.91042 1.42132,-2.91042 1.3096,-1.71979 1.3096,-1.71979 1.98424,-1.88103 1.98423,-1.88103 2.19004,-1.34776 2.19004,-1.34776 2.194795,-0.79417 2.194801,-0.79418 2.186887,-0.44312 2.186887,-0.44312 3.851534,0.14363 3.851534,0.14362 1.945286,0.56057 1.945285,0.56057 1.0974231,0.55595 1.097423,0.55596 0.976834,0.76861 0.976831,0.76861 0.574701,0.92989 0.574704,0.92988 0.11117,-0.11117 0.11117,-0.11117 0.262139,-1.68868 0.262141,-1.68869 0.669597,-0.59531 0.669597,-0.59531 h 6.6118546 6.6118563 l 0.64943,0.64943 0.649433,0.64943 v 0.43291 0.4329 l -3.2011803,20.28277 -3.201178,20.28277 -0.354775,0.8541 -0.354774,0.85411 -0.875816,0.53397 -0.875818,0.53397 -6.1635876,0.001 -6.163591,10e-4 -0.6813551,-0.68135 -0.681357,-0.68136 0.179377,-1.58547 0.179374,-1.58547 0.155686,-0.4057 0.155686,-0.40571 -1.956784,1.51189 -1.956782,1.51189 -1.719791,0.85886 -1.719792,0.85887 -1.719792,0.55287 -1.719791,0.55287 -1.569948,0.27808 -1.569947,0.27807 -2.795678,-0.0249 -2.795677,-0.0249 -1.719792,-0.35141 z m 13.758333,-12.30646 1.719792,-0.26818 1.852083,-0.90321 1.852084,-0.90321 1.105516,-0.94766 1.105514,-0.94767 1.0748431,-1.60959 1.074844,-1.60959 0.546084,-1.75947 0.546084,-1.75946 0.0085,-2.17775 0.0085,-2.17775 -0.420825,-1.26183 -0.420825,-1.26183 -0.991182,-1.30207 -0.991182,-1.30207 -1.6193721,-0.8857 -1.619372,-0.8857 -2.084795,-0.30094 -2.084795,-0.30095 -2.099556,0.43113 -2.099556,0.43114 -1.472319,0.71534 -1.472319,0.71535 -1.743252,1.73911 -1.743255,1.73911 -0.813898,1.71979 -0.813898,1.71979 -0.321823,1.65507 -0.321821,1.65507 0.124082,1.9168 0.124082,1.91681 0.533889,1.20407 0.533887,1.20406 0.86823,0.98886 0.868228,0.98886 1.132027,0.66341 1.132026,0.66341 1.675958,0.36378 1.675955,0.36377 0.926042,0.019 0.926041,0.019 1.719792,-0.26818 z m 161.528128,12.33441 -1.85208,-0.36085 -1.75244,-0.66685 -1.75244,-0.66686 -1.15002,-0.72597 -1.15001,-0.72597 -1.39832,-1.32247 -1.39832,-1.32248 -1.03879,-1.64481 -1.0388,-1.64482 -0.649,-1.55673 -0.649,-1.55672 -0.41026,-1.85208 -0.41026,-1.85209 -0.17628,-1.85208 -0.17627,-1.85208 0.31545,-2.63361 0.31545,-2.63361 0.64498,-2.26118 0.64498,-2.26119 1.16769,-2.43951 1.16769,-2.43951 1.04889,-1.52924 1.04889,-1.52924 1.35848,-1.50984 1.35848,-1.50985 2.14154,-1.6137 2.14155,-1.61371 1.75015,-0.88007 1.75015,-0.88007 2.12293,-0.6695 2.12292,-0.6695 2.22722,-0.32566 2.22721,-0.32567 3.0582,0.16567 3.05819,0.16566 1.62298,0.39112 1.62298,0.39113 1.50781,0.66683 1.50781,0.66682 0.99512,0.78816 0.99515,0.78815 0.63656,0.93469 0.63659,0.93468 0.16761,0.002 0.16762,0.002 0.18377,-1.71599 0.18376,-1.71598 0.48474,-0.59912 0.48474,-0.59912 6.66483,-0.0792 6.6648,-0.0792 0.6308,0.41331 0.63079,0.41332 0.14991,0.59723 0.14989,0.59724 -3.18945,20.36765 -3.18947,20.36765 -0.46196,0.92604 -0.46197,0.92604 -0.92604,0.46261 -0.92604,0.46261 -5.87221,5.3e-4 -5.87224,5.3e-4 -0.70054,-0.60258 -0.70054,-0.60257 -0.0254,-0.6542 -0.0254,-0.65419 0.21207,-1.42777 0.21203,-1.42776 -1.9278,1.50841 -1.92783,1.50841 -2.13723,1.02919 -2.13723,1.02919 -1.98437,0.56319 -1.98438,0.5632 -3.43958,0.10674 -3.43958,0.10674 -1.85209,-0.36085 z m 15.58906,-12.83987 1.56613,-0.5476 1.27489,-0.81809 1.2749,-0.8181 1.30672,-1.42977 1.30673,-1.42977 0.67283,-1.389 0.67284,-1.389 0.40494,-1.57694 0.40492,-1.57694 v -1.50404 -1.50405 l -0.52782,-1.70888 -0.52782,-1.70888 -1.08585,-1.23358 -1.08585,-1.23359 -1.1916,-0.69832 -1.19158,-0.69832 -1.49423,-0.3517 -1.49421,-0.3517 -1.37604,-0.004 -1.37604,-0.004 -1.40208,0.29239 -1.40209,0.29239 -1.71979,0.80863 -1.71979,0.80863 -1.74325,1.74325 -1.74326,1.74326 -0.8139,1.71979 -0.8139,1.71979 -0.32182,1.65507 -0.32182,1.65507 0.12408,1.9168 0.12408,1.91681 0.53389,1.20407 0.53389,1.20406 0.86823,0.98886 0.86823,0.98886 1.09461,0.64148 1.0946,0.64149 1.44879,0.40728 1.4488,0.40728 2.38125,-0.11556 2.38125,-0.11555 1.56614,-0.54761 z m -260.29296,11.60635 -0.69714,-0.54837 3.9e-4,-0.8407 3.9e-4,-0.84069 5.003999,-31.7229 5.004,-31.7229 0.95298,-0.95314 0.95298,-0.95315 13.68794,-0.0798 13.68794,-0.0797 2.61023,0.29682 2.61023,0.29682 2.01998,0.51322 2.01998,0.51322 2.12417,1.01531 2.12416,1.01532 1.62325,1.50284 1.62325,1.50284 0.84526,1.31722 0.84525,1.31721 0.68441,2.04892 0.68441,2.04892 0.0146,3.96875 0.0146,3.96875 -0.47483,2.24896 -0.47484,2.24896 -0.6699,2.101 -0.6699,2.10101 -0.75162,1.65765 -0.75162,1.65766 -1.00344,1.51176 -1.00344,1.51175 -1.4472,1.56314 -1.44719,1.56314 -1.60613,1.13889 -1.60614,1.1389 -1.5875,0.79386 -1.5875,0.79386 -2.24786,0.70878 -2.24786,0.70877 -2.51464,0.37909 -2.51464,0.37908 -5.95312,0.002 -5.95313,0.002 -0.91704,0.46261 -0.91704,0.46261 -0.45247,0.79375 -0.45246,0.79375 -1.37276,8.73125 -1.37275,8.73125 -0.35067,0.8541 -0.35067,0.85411 -0.87582,0.53397 -0.87582,0.53397 -6.64505,10e-4 -6.645039,10e-4 -0.69714,-0.54837 z m 33.822149,-36.71404 1.57867,-0.57325 0.91875,-0.74361 0.91875,-0.74361 0.74361,-0.91875 0.74361,-0.91875 0.56089,-1.57867 0.56088,-1.57867 0.13501,-2.2733 0.135,-2.2733 -0.33164,-1.03399 -0.33165,-1.03399 -0.64512,-0.86375 -0.64512,-0.86375 -1.24036,-0.62767 -1.24036,-0.62767 -1.90277,-0.29452 -1.90277,-0.29451 h -3.14057 -3.14057 l -0.55548,0.5175 -0.55547,0.5175 -0.15136,0.73927 -0.15137,0.73927 -1.19514,7.6198 -1.19513,7.61979 v 0.15016 0.15016 l 5.22552,-0.11922 5.22552,-0.11922 z M 74.090202,286.92743 73.440769,286.278 v -0.37863 -0.37863 l 5.044694,-31.97871 5.044694,-31.97871 0.38295,-0.59163 0.382947,-0.59163 0.711917,-0.4667 0.711915,-0.46671 12.579711,-0.0814 12.579713,-0.0814 3.4396,0.28119 3.43959,0.28118 2.43983,0.65294 2.43983,0.65294 1.92579,0.96967 1.92578,0.96967 1.8765,1.88173 1.87649,1.88174 0.81402,1.71979 0.81401,1.71979 0.41835,2.03937 0.41834,2.03936 -0.001,2.32626 -10e-4,2.32626 -0.40418,2.51354 -0.40417,2.51354 -0.53211,1.90927 -0.53212,1.90927 -0.79326,1.92719 -0.79326,1.92719 -1.02085,1.71979 -1.02085,1.7198 -1.64649,1.79564 -1.64649,1.79564 -1.66358,1.1871 -1.66358,1.1871 -1.9994,0.92378 -1.99939,0.92378 -2.45626,0.64721 -2.45626,0.64721 -2.24202,0.27492 -2.24201,0.27491 -5.69549,0.001 -5.695483,10e-4 -0.84705,0.51648 -0.84705,0.51648 -0.38867,0.75161 -0.38867,0.75161 -1.3615,8.71894 -1.3615,8.71895 -0.25677,0.99042 -0.25677,0.99042 -0.770895,0.39864 -0.770887,0.39864 h -6.904448 -6.904334 l -0.64943,-0.64943 z m 32.188938,-36.12519 1.42517,-0.26212 1.70984,-0.86236 1.70983,-0.86235 0.95093,-1.25969 0.95092,-1.25968 0.44598,-1.25386 0.44598,-1.25386 0.27193,-1.98685 0.27192,-1.98686 -0.26701,-1.40796 -0.26702,-1.40796 -0.59231,-0.83852 -0.59232,-0.83852 -0.53496,-0.45688 -0.53496,-0.45689 -1.4552,-0.57123 -1.45521,-0.57122 -4.31788,-0.13123 -4.31787,-0.13123 -0.646373,0.34592 -0.64637,0.34593 -0.2641,0.94571 -0.26411,0.94571 -1.18779,7.6198 -1.1878,7.61979 v 0.11927 0.11926 h 4.461803 4.4618 z m 82.87416,36.14357 -0.73366,-0.63106 0.0529,-1.02259 0.0529,-1.02259 5.02234,-31.86563 5.02235,-31.86563 0.54531,-0.54583 0.5453,-0.54583 6.02599,-0.0796 6.02597,-0.0796 0.70024,0.26623 0.70022,0.26622 0.41966,0.64048 0.41966,0.64048 -5.04873,31.97174 -5.04875,31.97173 -0.31803,0.66108 -0.318,0.66108 -0.89903,0.60519 -0.89903,0.60519 h -5.76694 -5.76696 z"
       id="path332" />
  </g>
</svg>
