<?xml version="1.0" encoding="UTF-8" standalone="no"?>
<svg
   xmlns:dc="http://purl.org/dc/elements/1.1/"
   xmlns:cc="http://creativecommons.org/ns#"
   xmlns:rdf="http://www.w3.org/1999/02/22-rdf-syntax-ns#"
   xmlns:svg="http://www.w3.org/2000/svg"
   xmlns="http://www.w3.org/2000/svg"
   xmlns:sodipodi="http://sodipodi.sourceforge.net/DTD/sodipodi-0.dtd"
   xmlns:inkscape="http://www.inkscape.org/namespaces/inkscape"
   width="31.210876mm"
   height="31.335131mm"
   viewBox="0 0 31.210876 31.335131"
   version="1.1"
   id="svg130"
   inkscape:version="1.0 (4035a4fb49, 2020-05-01)"
   sodipodi:docname="pring.svg">
  <defs
     id="defs124" />
  <sodipodi:namedview
     id="base"
     pagecolor="#ffffff"
     bordercolor="#666666"
     borderopacity="1.0"
     inkscape:pageopacity="0.0"
     inkscape:pageshadow="2"
     inkscape:zoom="0.44785584"
     inkscape:cx="58.981184"
     inkscape:cy="59.215995"
     inkscape:document-units="mm"
     inkscape:current-layer="layer1"
     inkscape:document-rotation="0"
     showgrid="false"
     inkscape:window-width="1024"
     inkscape:window-height="684"
     inkscape:window-x="-8"
     inkscape:window-y="-8"
     inkscape:window-maximized="1"
     fit-margin-top="0"
     fit-margin-left="0"
     fit-margin-right="0"
     fit-margin-bottom="0" />
  <metadata
     id="metadata127">
    <rdf:RDF>
      <cc:Work
         rdf:about="">
        <dc:format>image/svg+xml</dc:format>
        <dc:type
           rdf:resource="http://purl.org/dc/dcmitype/StillImage" />
        <dc:title></dc:title>
      </cc:Work>
    </rdf:RDF>
  </metadata>
  <g
     inkscape:label="レイヤー 1"
     inkscape:groupmode="layer"
     id="layer1"
     transform="translate(-104.13546,-134.3098)">
    <g
       transform="translate(54.679652,32.95571)"
       id="g211"
       style="fill:#000000">
      <path
         id="path221"
         d="m 63.331092,132.57214 c -0.873125,-0.0974 -2.480468,-0.45501 -3.571875,-0.79461 l -1.984375,-0.61746 -1.994864,0.70526 c -3.781326,1.33684 -4.116624,1.07092 -4.281655,-3.39578 -0.101513,-2.74754 -0.233644,-3.49559 -0.98142,-5.55625 -1.09672,-3.02225 -1.365976,-6.66649 -0.701543,-9.49503 1.639063,-6.9776 8.060214,-12.06069 15.235524,-12.06069 4.389501,0 7.766336,1.41668 11.010884,4.6194 3.536839,3.49123 4.80994,6.89881 4.528929,12.1221 -0.116279,2.1613 -0.298464,3.06573 -0.916451,4.54964 -1.412303,3.39119 -3.027045,5.41428 -5.80376,7.27146 -2.276694,1.52275 -4.159784,2.27032 -6.310711,2.50531 -0.870567,0.0951 -1.820974,0.20688 -2.112016,0.24837 -0.291042,0.0415 -1.243542,-0.004 -2.116667,-0.10172 z m 6.380099,-6.20835 c 2.279066,-1.12637 3.780415,-2.68892 4.967785,-5.17028 0.74244,-1.55154 0.82295,-1.9657 0.82295,-4.23333 0,-2.27786 -0.07922,-2.68078 -0.844849,-4.29704 -3.149672,-6.649 -11.56418,-8.22353 -16.838229,-3.15077 -4.869337,4.68349 -4.006951,12.96375 1.704681,16.36761 3.284707,1.95754 6.862041,2.12742 10.187662,0.48381 z m -9.403604,-12.21742 c -0.689542,-0.87661 -0.695274,-1.53721 -0.0192,-2.21328 0.763719,-0.76372 1.955716,-0.68495 2.631265,0.17387 0.628281,0.79873 0.527595,1.55593 -0.302318,2.27353 -0.770595,0.66631 -1.67345,0.5748 -2.309744,-0.23412 z m 7.152108,0.19553 c -1.163509,-1.16351 -0.417574,-2.93797 1.235041,-2.93797 0.903642,0 1.653969,0.78378 1.639401,1.71251 -0.02215,1.4118 -1.891252,2.20865 -2.874442,1.22546 z"
         style="fill:#000000;fill-opacity:1;stroke-width:0.264583" />
      <path
         id="path219"
         d="m 51.985991,131.97528 c -0.249561,-0.39398 -0.419616,-1.66909 -0.50283,-3.77031 -0.107149,-2.70563 -0.250994,-3.52618 -0.973017,-5.55049 -2.180889,-6.11447 -0.869645,-12.28372 3.543827,-16.67329 6.164693,-6.131316 15.887191,-6.136899 21.978489,-0.0126 2.101572,2.11295 3.285699,4.14971 4.080939,7.01943 1.039331,3.75056 0.618,7.42446 -1.29453,11.288 -0.842041,1.70103 -1.481214,2.54283 -3.026542,3.98599 -4.141258,3.86748 -9.446649,5.20407 -14.866307,3.74529 -3.219154,-0.86648 -3.54225,-0.87374 -5.394497,-0.1211 -2.105743,0.85564 -3.045031,0.87925 -3.545532,0.0891 z m 17.108938,-5.21103 c 0.964914,-0.37104 2.099845,-1.11563 3.071159,-2.0149 0.84736,-0.78451 1.605243,-1.36178 1.684184,-1.28284 0.07894,0.0789 0.131638,-0.0132 0.117107,-0.20484 -0.01452,-0.1916 0.324795,-1.06274 0.754063,-1.93587 0.685742,-1.3948 0.784675,-1.89262 0.815017,-4.10104 0.04389,-3.19515 -0.65546,-5.15485 -2.598174,-7.28049 -5.343254,-5.84637 -14.773744,-4.08387 -17.719928,3.31174 -0.806224,2.02381 -0.808794,5.37238 -0.0057,7.40833 1.170798,2.96808 3.864435,5.52649 6.795504,6.45435 1.826789,0.57829 5.084884,0.41534 7.086753,-0.35444 z m -8.213383,-12.19683 c -0.328604,-0.13069 -0.736236,-0.54219 -0.905848,-0.91445 -0.260017,-0.57068 -0.224451,-0.78976 0.226754,-1.39679 1.063123,-1.43029 2.996349,-0.86501 2.996349,0.87615 0,1.2375 -1.100451,1.91902 -2.317255,1.43509 z m 7.344338,0.0703 c -1.31576,-0.42384 -1.714812,-1.78357 -0.79375,-2.70463 1.034534,-1.03453 2.575637,-0.49244 2.760551,0.97104 0.141042,1.11625 -0.936037,2.06562 -1.966801,1.73359 z m 11.377083,2.04226 c 0,-0.15411 -0.119062,-0.20662 -0.264583,-0.11668 -0.339032,0.20953 -0.339032,0.39688 0,0.39688 0.145521,0 0.264583,-0.12609 0.264583,-0.2802 z"
         style="fill:#000000;fill-opacity:1;stroke-width:0.264583" />
      <path
         id="path217"
         d="m 52.209282,132.19963 c -0.438001,-0.32028 -0.529138,-0.83548 -0.666956,-3.77032 -0.135115,-2.8773 -0.288538,-3.77011 -0.999033,-5.81369 -1.897403,-5.45742 -1.156247,-10.67296 2.137147,-15.03917 1.50052,-1.98931 4.52262,-4.40419 5.591935,-4.46835 0.353273,-0.0212 0.596611,-0.11259 0.540752,-0.20308 -0.167816,-0.27186 2.009674,-0.99027 4.05225,-1.33694 2.869394,-0.487 7.617964,0.32272 9.085507,1.54924 0.22974,0.19201 0.530757,0.34911 0.668925,0.34911 0.138168,0 0.659082,0.27947 1.157586,0.62105 0.961475,0.65881 1.364248,2.02478 0.59703,2.02478 -0.222943,0 -0.3239,-0.15746 -0.24043,-0.37498 0.07914,-0.20624 -0.01733,-0.43685 -0.214378,-0.51246 -0.197051,-0.0756 -0.426294,0.0398 -0.509432,0.25643 -0.09643,0.25129 -0.04166,0.32624 0.151276,0.20699 0.172167,-0.1064 0.230531,-0.0706 0.135501,0.0832 -0.09181,0.14856 0.05657,0.47237 0.329726,0.71958 0.325655,0.29471 0.556633,0.35244 0.670836,0.16765 0.09579,-0.155 0.304662,-0.28182 0.464147,-0.28182 0.159489,0 0.09293,0.21774 -0.147904,0.48386 -0.240837,0.26612 -0.437883,0.6233 -0.437883,0.79375 0,0.39962 0.705038,0.4029 0.951307,0.004 0.116967,-0.18926 0.07258,-0.23365 -0.116676,-0.11668 -0.428805,0.26502 -0.365371,-0.14003 0.120348,-0.76848 0.379992,-0.49166 0.402839,-0.49417 0.322316,-0.0354 -0.05625,0.32046 0.128309,0.57509 0.525777,0.72542 0.549391,0.20778 0.594265,0.17056 0.43583,-0.36149 -0.13171,-0.44231 -0.0027,-0.36307 0.507198,0.31162 0.466944,0.61781 0.602168,1.00314 0.426365,1.21497 -0.141602,0.17062 -0.187182,0.3805 -0.10129,0.46639 0.08589,0.0859 -0.09373,0.0908 -0.399172,0.0109 -0.305435,-0.0799 -0.555336,-0.0228 -0.555336,0.12681 0,0.2932 -0.661051,0.27516 -0.96248,-0.0263 -0.167548,-0.16754 0.275682,-0.29249 0.764042,-0.21538 0.307536,0.0486 0.23399,-0.62103 -0.105505,-0.96052 -0.228865,-0.22887 -0.47394,-0.22138 -0.992188,0.0303 -0.378534,0.18384 -0.866838,0.32258 -1.085119,0.30832 -0.218282,-0.0143 -0.484349,0.0971 -0.591262,0.2475 -0.129609,0.18232 -0.195736,0.17402 -0.198438,-0.0249 -0.0022,-0.16408 0.174543,-0.44655 0.392825,-0.62771 0.535508,-0.44443 0.499276,-0.72559 -0.11879,-0.92175 -0.340342,-0.10802 -0.459989,-0.30876 -0.351912,-0.5904 0.109064,-0.28422 0.06037,-0.36285 -0.145793,-0.23543 -0.275093,0.17002 -0.444376,-0.30891 -0.340879,-0.9644 0.01722,-0.10914 -0.16184,-0.19843 -0.397939,-0.19843 -0.33547,0 -0.362902,0.08 -0.125539,0.36597 0.233463,0.28131 0.214307,0.40029 -0.0828,0.5143 -0.212593,0.0816 -0.441622,0.006 -0.508953,-0.16753 -0.06733,-0.17373 -0.109217,-0.048 -0.09308,0.27944 0.01614,0.32742 0.123066,0.59531 0.237617,0.59531 0.486333,0 0.626475,0.057 1.023501,0.41631 0.23009,0.20823 0.486058,0.31089 0.56882,0.22813 0.08276,-0.0828 0.228952,-0.0235 0.324871,0.13171 0.09592,0.1552 -0.01122,0.28219 -0.238088,0.28219 -0.22687,0 -0.412491,0.17859 -0.412491,0.39687 0,0.21828 -0.148828,0.41061 -0.330729,0.4274 -0.181901,0.0168 -0.509323,0.0466 -0.727604,0.0661 -0.218281,0.0196 -0.912895,-0.28335 -1.543584,-0.67322 -0.630688,-0.38987 -1.726073,-0.85734 -2.434188,-1.03882 -0.708115,-0.18149 -1.245168,-0.39829 -1.193453,-0.48178 0.135845,-0.21931 -4.362269,0.1475 -5.147525,0.41977 -2.696166,0.93484 -5.175852,3.18634 -6.407135,5.81753 -2.690106,5.74862 0.430828,12.64973 6.561775,14.50959 2.014712,0.61118 4.97382,0.50924 6.779925,-0.23356 1.019424,-0.41927 1.550326,-0.52477 1.632757,-0.32446 0.06718,0.16326 0.131551,0.10429 0.143039,-0.13103 0.01148,-0.23533 0.472636,-0.72681 1.024768,-1.0922 0.552136,-0.36538 1.464895,-1.33371 2.028354,-2.15182 0.56346,-0.81813 1.09841,-1.48749 1.188773,-1.48749 0.09037,0 0.182782,-0.24533 0.205367,-0.54517 0.07663,-1.01726 0.644509,-2.37839 0.96189,-2.30551 0.173755,0.0399 0.315918,-0.0465 0.315918,-0.19203 0,-0.14552 -0.152347,-0.2296 -0.33855,-0.18684 -0.189939,0.0436 -0.338548,-0.15963 -0.338548,-0.46302 0,-0.72525 0.375275,-0.68276 0.888564,0.10062 0.585068,0.89293 1.43615,1.12 1.900579,0.50709 0.385757,-0.5091 0.425349,-0.4686 0.493929,0.50517 0.04085,0.58003 -0.260416,0.97995 -0.744392,0.98813 -0.131694,0.002 -0.01588,-0.243 0.2574,-0.54495 0.492868,-0.54462 0.491053,-0.54755 -0.227013,-0.36733 -0.427323,0.10725 -0.875379,0.0559 -1.093739,-0.1253 -0.282171,-0.23418 -0.417949,-0.22921 -0.572575,0.021 -0.113374,0.18344 -0.06546,0.3737 0.108736,0.43177 0.171286,0.0571 0.311428,0.2314 0.311428,0.38735 0,0.15595 -0.238125,0.068 -0.529167,-0.19535 -0.291041,-0.26339 -0.529166,-0.41064 -0.529166,-0.32723 0,0.0834 -0.07279,0.34134 -0.161751,0.57317 -0.1247,0.32497 -0.04895,0.37877 0.330729,0.23489 0.470152,-0.17817 0.471377,-0.16535 0.02703,0.28291 -0.256001,0.25825 -0.39728,0.57985 -0.31396,0.71467 0.08332,0.13482 -0.03247,0.31571 -0.257305,0.40199 -0.306485,0.11761 -0.343792,0.27834 -0.149063,0.6422 0.330483,0.61751 0.331906,1.04928 0.0035,1.04928 -0.140952,0 -0.189252,-0.20836 -0.107331,-0.46302 0.118541,-0.36851 0.0946,-0.38652 -0.117295,-0.0882 -0.162648,0.22896 -0.176292,0.61138 -0.03507,0.98282 0.139949,0.36809 0.130755,0.6701 -0.02331,0.76531 -0.21676,0.13396 -0.372575,-0.38158 -0.294171,-0.97334 0.01262,-0.0953 -0.145799,-0.2381 -0.352068,-0.31725 -0.261223,-0.10024 -0.325038,-0.0136 -0.210283,0.28542 0.117671,0.30664 0.05169,0.38594 -0.230902,0.27751 -0.227378,-0.0873 -0.52919,0.062 -0.709634,0.35094 -0.256384,0.41053 -0.240765,0.50276 0.08513,0.50276 0.451136,0 0.535292,0.41378 0.134533,0.66146 -0.145521,0.0899 -0.264583,0.0573 -0.264583,-0.0726 0,-0.12985 -0.178594,-0.2361 -0.396875,-0.2361 -0.593432,0 -0.476166,0.26999 0.266972,0.61467 0.362844,0.1683 0.598099,0.20629 0.522788,0.0844 -0.07531,-0.12186 -0.01593,-0.29635 0.131966,-0.38775 0.147894,-0.0914 0.268899,0.0241 0.268899,0.25673 0,0.34844 0.06501,0.36283 0.369104,0.0818 0.414277,-0.38291 0.281575,-0.84436 -0.163684,-0.56918 -0.171403,0.10594 -0.211072,0.0543 -0.09839,-0.12797 0.103836,-0.16801 0.0627,-0.30547 -0.09141,-0.30547 -0.154109,0 -0.280199,-0.11906 -0.280199,-0.26458 0,-0.14552 0.178594,-0.26458 0.396875,-0.26458 0.218281,0 0.367109,0.1305 0.330729,0.29 -0.03638,0.15951 0.20778,0.39603 0.542579,0.52561 0.391646,0.15157 0.551195,0.14251 0.447405,-0.0254 -0.08873,-0.14356 -0.03523,-0.26102 0.11888,-0.26102 0.154109,0 0.292068,0.20836 0.306572,0.46302 0.01818,0.31916 0.09886,0.2575 0.259668,-0.19843 0.232793,-0.66005 0.2331,-0.6599 0.142607,0.0661 -0.05744,0.46085 0.03304,0.72761 0.246791,0.72761 0.234325,0 0.302355,-0.30571 0.22257,-1.00019 -0.104823,-0.91241 -0.05639,-1.00503 0.551876,-1.05537 0.479417,-0.0397 0.665644,0.0741 0.662731,0.40487 -0.0035,0.39378 -0.04101,0.40288 -0.260533,0.0632 -0.18637,-0.28839 -0.257588,-0.3022 -0.260533,-0.0505 -0.0021,0.19049 -0.123113,0.27276 -0.268634,0.18283 -0.312944,-0.19341 -0.312944,0.0655 0,0.79375 0.125066,0.29104 0.23576,0.38034 0.245986,0.19843 0.01024,-0.1819 0.144688,-0.33072 0.298797,-0.33072 0.154109,0 0.212897,0.10889 0.130643,0.24198 -0.08226,0.13309 1.3e-5,0.30229 0.182822,0.37599 0.182808,0.0737 -0.0031,0.1434 -0.413057,0.15489 -0.62452,0.0175 -0.717849,0.1078 -0.575374,0.5567 0.110681,0.34872 0.05916,0.51039 -0.147534,0.46302 -0.174678,-0.04 -0.37769,0.0926 -0.451138,0.29477 -0.09304,0.25607 -0.02281,0.30035 0.23151,0.14598 0.200779,-0.12186 -0.102986,0.27515 -0.675037,0.88223 -0.799401,0.84837 -1.17711,1.06942 -1.63219,0.9552 -0.472896,-0.11869 -0.609738,-0.0241 -0.679702,0.47 -0.06154,0.43461 -0.500769,0.84003 -1.476663,1.36301 -0.763985,0.40942 -1.389063,0.61778 -1.389063,0.46302 0,-0.15476 -0.238125,-0.28138 -0.529166,-0.28138 -0.291042,0 -0.529167,0.11533 -0.529167,0.25628 0,0.14095 0.208359,0.19077 0.463021,0.11069 0.395348,-0.12431 0.387958,-0.0844 -0.05057,0.27289 -0.282474,0.23016 -0.699193,0.4201 -0.926042,0.42209 -0.226848,0.002 -0.682111,0.0759 -1.011695,0.16418 -0.493868,0.13233 -0.573852,0.0735 -0.454837,-0.33434 0.09322,-0.31949 0.03339,-0.2839 -0.168792,0.1004 -0.286106,0.54381 -0.501687,0.59531 -2.492127,0.59531 -1.562386,0 -2.842378,-0.19355 -4.523631,-0.68405 -2.612977,-0.76231 -3.708015,-0.73511 -5.756615,0.14302 -1.488912,0.63823 -1.9984,0.67052 -2.682814,0.17007 z m 16.881252,-1.74571 c 0.346951,-0.4052 0.367954,-0.52916 0.08966,-0.52916 -0.199885,0 -0.425696,0.23812 -0.501806,0.52916 -0.171331,0.65517 -0.148826,0.65517 0.412146,0 z m 2.574933,0.24897 c 0,-0.15411 -0.119062,-0.20661 -0.264583,-0.11667 -0.339032,0.20953 -0.339032,0.39687 0,0.39687 0.145521,0 0.264583,-0.12609 0.264583,-0.2802 z m 0.96248,-0.43301 c -0.281813,-0.28181 -0.985117,-0.33122 -0.815834,-0.0573 0.08204,0.13274 0.340579,0.24135 0.574524,0.24135 0.233947,0 0.342537,-0.0828 0.24131,-0.18404 z m -4.225673,-0.6979 c 0,-0.19403 -0.156861,-0.35278 -0.348578,-0.35278 -0.260482,0 -0.274585,0.0892 -0.0558,0.35278 0.36441,0.43909 0.404376,0.43909 0.404376,0 z m 2.99861,0.24879 c 0,-0.25099 -0.791998,-0.37748 -0.933183,-0.14904 -0.08601,0.13916 0.08877,0.25303 0.388401,0.25303 0.29963,0 0.544782,-0.0468 0.544782,-0.10399 z m 0.953458,-0.61825 c 0.103664,0.10366 0.348263,0.0559 0.543552,-0.1062 0.275047,-0.22827 0.35978,-0.18303 0.375962,0.20073 0.01315,0.31213 0.0727,0.36574 0.160938,0.1449 0.07703,-0.19279 -0.133564,-0.60543 -0.467979,-0.91699 -0.437033,-0.40716 -0.56185,-0.44613 -0.443828,-0.13857 0.202571,0.5279 -0.795118,0.8612 -1.306772,0.43656 -0.257728,-0.21389 -0.344498,-0.18266 -0.344498,0.12397 0,0.47703 0.839571,0.73112 1.110094,0.33597 0.101227,-0.14787 0.268867,-0.18403 0.372531,-0.0804 z m -2.364568,-0.62128 c 0,-0.57437 -0.0651,-0.69803 -0.220909,-0.41962 -0.121499,0.21711 -0.14845,0.58357 -0.05989,0.81436 0.229814,0.59888 0.280797,0.52722 0.280797,-0.39474 z m 5.255516,-0.45152 c 0.0044,-0.30691 0.112755,-0.65365 0.240856,-0.77055 0.128582,-0.11733 0.152717,-0.0726 0.05388,0.0999 -0.09846,0.17185 -0.07156,0.37887 0.05979,0.46004 0.131349,0.0812 0.29555,-0.0693 0.364889,-0.33449 0.06934,-0.26515 -0.0064,-0.49238 -0.168357,-0.50494 -0.161936,-0.0126 -0.561792,-0.085 -0.888569,-0.16098 -0.473789,-0.11014 -0.629301,0.002 -0.767707,0.55342 -0.171556,0.68353 -0.178549,0.68537 -0.604771,0.15901 -0.237165,-0.29288 -0.651399,-0.5002 -0.92052,-0.4607 -0.63604,0.0934 -1.101947,0.54946 -0.561263,0.54946 0.223131,0 0.405693,-0.0955 0.405693,-0.21218 0,-0.3966 0.77283,0.0822 0.929513,0.5759 0.08655,0.27269 0.314534,0.43035 0.512477,0.35439 0.196112,-0.0752 0.439052,-0.003 0.539869,0.15976 0.281713,0.45582 0.795314,0.1569 0.804214,-0.46805 z m -0.842687,0.0638 c -0.08617,-0.22456 -0.09756,-0.46741 -0.02529,-0.53966 0.07225,-0.0723 0.194881,0.11147 0.2725,0.40828 0.164875,0.63049 -0.01831,0.72784 -0.247201,0.13138 z m -2.604844,0.1437 c -0.209534,-0.33903 -0.396875,-0.33903 -0.396875,0 0,0.14552 0.12609,0.26458 0.280199,0.26458 0.154109,0 0.206613,-0.11906 0.116676,-0.26458 z m -1.719792,-1.33023 c 0,-0.13236 -0.177911,-0.17239 -0.395356,-0.0889 -0.217445,0.0834 -0.328279,0.26024 -0.246301,0.39289 0.171466,0.27743 0.641657,0.0547 0.641657,-0.30394 z m 2.116667,-0.0926 c 0,-0.055 -0.208359,-0.2633 -0.463021,-0.46303 -0.419645,-0.3291 -0.429003,-0.31974 -0.0999,0.0999 0.345644,0.44073 0.562917,0.58089 0.562917,0.36313 z m 0.951307,-0.47016 c 0.116967,-0.18925 0.07258,-0.23364 -0.116676,-0.11667 -0.177327,0.10959 -0.305464,0.0276 -0.305464,-0.1954 0,-0.2113 -0.178594,-0.45271 -0.396875,-0.53648 -0.218282,-0.0838 -0.396875,-0.037 -0.396875,0.10399 0,0.14095 0.119062,0.25628 0.264583,0.25628 0.145521,0 0.264583,0.17859 0.264583,0.39687 0,0.46979 0.418452,0.52549 0.686724,0.0914 z m 3.315777,-0.1422 c 0.199718,-0.24621 0.224464,-0.36453 0.05499,-0.26293 -0.169471,0.1016 -0.35452,0.0456 -0.411218,-0.12453 -0.123306,-0.36992 -1.000442,-0.54509 -1.000442,-0.19979 0,0.13264 0.119062,0.24117 0.264583,0.24117 0.145521,0 0.250484,0.0893 0.233251,0.19844 -0.113456,0.71855 0.333423,0.79537 0.858833,0.14764 z m -1.356667,-4.08264 c 0,-0.12771 -0.12609,-0.23219 -0.280199,-0.23219 -0.15411,0 -0.206613,0.11906 -0.116676,0.26458 0.08994,0.14552 0.03743,0.26459 -0.116676,0.26459 -0.154109,0 -0.280199,0.13364 -0.280199,0.29697 0,0.20519 0.122671,0.19518 0.396875,-0.0324 0.218281,-0.18116 0.396875,-0.43386 0.396875,-0.56156 z m 2.38125,-13.99052 c 0,-0.29105 -0.119063,-0.52917 -0.264584,-0.52917 -0.145521,0 -0.264583,0.23812 -0.264583,0.52917 0,0.29104 0.119062,0.52916 0.264583,0.52916 0.145521,0 0.264584,-0.23812 0.264584,-0.52916 z m -4.948325,-0.35278 c 0.07446,-0.19403 -0.0205,-0.35278 -0.21105,-0.35278 -0.190535,0 -0.285507,0.15875 -0.211051,0.35278 0.17012,0.44332 0.251982,0.44332 0.422101,0 z m -1.655916,-0.81064 c -0.132628,-0.34884 -0.189212,-0.68619 -0.125743,-0.74966 0.06347,-0.0635 -0.0613,-0.1154 -0.277273,-0.1154 -0.29056,0 -0.31904,0.0887 -0.109514,0.34119 0.155737,0.18765 0.212638,0.4553 0.126442,0.59476 -0.129802,0.21003 0.01561,0.34899 0.567634,0.54247 0.03278,0.0115 -0.04892,-0.26453 -0.181546,-0.61336 z m 0.783407,0.10508 c 0,-0.14552 -0.126089,-0.26458 -0.280199,-0.26458 -0.154109,0 -0.206613,0.11906 -0.116676,0.26458 0.209534,0.33903 0.396875,0.33903 0.396875,0 z m -1.984375,-0.52916 c -0.08994,-0.14553 -0.305324,-0.26277 -0.478636,-0.26054 -0.189339,0.002 -0.156705,0.10643 0.08176,0.26054 0.508297,0.32848 0.59989,0.32848 0.396876,0 z m 2.726981,-1.87298 c 0.299263,-0.014 0.333124,-0.0669 0.101981,-0.15944 -0.380243,-0.15225 -1.373753,0.62445 -1.373753,1.07396 0,0.15535 0.185346,0.0178 0.411877,-0.30559 0.226533,-0.32342 0.613486,-0.59744 0.859895,-0.60893 z m -10.003022,0.0209 c 0,-0.14552 -0.12609,-0.26458 -0.280199,-0.26458 -0.154109,0 -0.206613,0.11906 -0.116676,0.26458 0.209534,0.33903 0.396875,0.33903 0.396875,0 z m 8.278841,-0.26495 c 0.07616,-0.29124 0.03052,-0.46281 -0.101433,-0.38126 -0.13195,0.0816 -0.239908,0.31984 -0.239908,0.52953 0,0.54763 0.179784,0.46953 0.341341,-0.14827 z m 3.627409,0.30742 c 0,-0.26632 -1.292778,-0.9253 -1.852084,-0.94407 -0.218281,-0.007 -0.485161,-0.19442 -0.593066,-0.41576 -0.146272,-0.30003 -0.179012,-0.26778 -0.128669,0.12674 0.04286,0.33585 0.266422,0.52916 0.611965,0.52916 0.299445,0 0.752803,0.20836 1.007465,0.46302 0.492061,0.49207 0.954389,0.60877 0.954389,0.24091 z m -7.672917,-0.32267 c 0,-0.15411 -0.119062,-0.20661 -0.264583,-0.11667 -0.339033,0.20953 -0.339033,0.39687 0,0.39687 0.145521,0 0.264583,-0.12609 0.264583,-0.2802 z m 1.5875,0.0156 c 0,-0.14552 -0.12609,-0.26458 -0.280199,-0.26458 -0.154109,0 -0.206613,0.11906 -0.116676,0.26458 0.209534,0.33903 0.396875,0.33903 0.396875,0 z m 1.726793,-0.21349 c -0.08146,-0.0815 -0.294955,-1.6e-4 -0.474433,0.18066 -0.25936,0.2613 -0.22897,0.29169 0.148114,0.14811 0.260937,-0.0994 0.407781,-0.2473 0.326319,-0.32877 z m -3.402487,-0.70091 c 0,-0.21188 -0.101161,-0.32272 -0.224803,-0.24631 -0.12364,0.0764 -0.156301,0.24977 -0.07258,0.38524 0.213949,0.34618 0.297382,0.3072 0.297383,-0.13893 z m 2.601736,-0.14393 c -0.08994,-0.14553 -0.364855,-0.26277 -0.610929,-0.26054 -0.385569,0.003 -0.392554,0.0395 -0.05053,0.26054 0.518152,0.33485 0.86841,0.33485 0.661459,0 z m 1.711687,-0.66146 c 0,-0.14552 -0.115414,-0.086 -0.256479,0.13229 -0.141065,0.21828 -0.256479,0.51594 -0.256479,0.66146 0,0.14552 0.115414,0.086 0.256479,-0.13229 0.141065,-0.21829 0.256479,-0.51594 0.256479,-0.66146 z m 0.537271,0.64584 c 0,-0.15411 -0.119062,-0.20661 -0.264583,-0.11668 -0.339032,0.20954 -0.339032,0.39688 0,0.39688 0.145521,0 0.264583,-0.12609 0.264583,-0.2802 z m -1.209596,-0.5797 c 0.131702,-0.10914 0.04102,-0.19843 -0.201514,-0.19843 -0.245129,0 -0.439174,0.20563 -0.436923,0.46302 0.0024,0.26423 0.08883,0.34942 0.201518,0.19843 0.108603,-0.14552 0.305218,-0.35388 0.436919,-0.46302 z M 66.42341,101.9627 c -0.190996,-0.0764 -0.419199,-0.067 -0.507118,0.0209 -0.08792,0.0879 0.06835,0.15045 0.347266,0.13896 0.308224,-0.0127 0.370919,-0.0754 0.159852,-0.15985 z m 11.868335,23.11595 c -0.0064,-0.11871 0.111557,-0.44613 0.262197,-0.72761 0.188801,-0.35277 0.188801,-0.51177 0,-0.51177 -0.15064,0 -0.273891,-0.11532 -0.273891,-0.25628 0,-0.14095 0.194839,-0.18151 0.432977,-0.0901 0.297733,0.11425 0.394152,0.0497 0.308682,-0.20674 -0.06836,-0.20509 -0.263205,-0.38777 -0.432978,-0.40596 -0.169775,-0.0182 -0.412861,-0.048 -0.540192,-0.0661 -0.12733,-0.0182 -0.23151,-0.34887 -0.23151,-0.73483 0,-0.63204 0.02733,-0.65175 0.275045,-0.19844 0.151273,0.27683 0.398597,0.58476 0.549606,0.6843 0.354128,0.23343 0.752181,-0.009 0.550444,-0.33587 -0.08519,-0.13784 -0.265724,-0.18211 -0.40119,-0.0984 -0.135464,0.0837 -0.246301,0.0261 -0.246301,-0.12798 0,-0.15411 0.148828,-0.28398 0.330729,-0.28861 0.189622,-0.005 0.116549,-0.17054 -0.17127,-0.3884 -0.276101,-0.20899 -0.603522,-0.31724 -0.727604,-0.24055 -0.124082,0.0767 -0.225605,0.0204 -0.225605,-0.12516 0,-0.14552 0.119062,-0.33816 0.264583,-0.4281 0.145521,-0.0899 0.264584,-0.0147 0.264584,0.16725 0,0.18192 0.172672,0.0997 0.383714,-0.18283 0.366811,-0.49096 0.376632,-0.48553 0.222906,0.1231 -0.12188,0.48255 -0.07677,0.58475 0.186331,0.42214 0.222988,-0.13781 0.283218,-0.11111 0.168407,0.0747 -0.09831,0.15906 0.02965,0.40582 0.28434,0.54835 0.43925,0.24582 0.439507,0.2852 0.005,0.76534 -0.251949,0.2784 -0.389691,0.57458 -0.306091,0.65818 0.0836,0.0836 -0.08947,0.60972 -0.384603,1.16916 -0.295133,0.55943 -0.541867,0.92003 -0.548297,0.80132 z m -2.657528,-1.39687 c 0,-0.21312 0.879168,-0.89961 1.143379,-0.8928 0.171505,0.004 0.100967,0.13081 -0.156755,0.28085 -0.257723,0.15004 -0.41179,0.3647 -0.342369,0.47702 0.06942,0.11233 -0.04714,0.20423 -0.259019,0.20423 -0.211878,0 -0.385236,-0.0312 -0.385236,-0.0693 z m 1.706095,-0.8347 c -0.111432,-0.25466 -0.183703,-0.55231 -0.1606,-0.66145 0.0231,-0.10914 -0.136588,-0.19844 -0.35487,-0.19844 -0.54752,0 -0.496522,-0.35697 0.132292,-0.92604 0.475877,-0.43067 0.529167,-0.4348 0.529167,-0.041 0,0.24084 -0.148828,0.4415 -0.330729,0.44593 -0.181902,0.004 -0.119867,0.1308 0.137855,0.28084 0.257723,0.15004 0.396301,0.38976 0.307952,0.53271 -0.08835,0.14295 -0.01675,0.43329 0.159123,0.6452 0.188584,0.22723 0.209539,0.38529 0.05109,0.38529 -0.147769,0 -0.359844,-0.20836 -0.471275,-0.46303 z m 2.3023,-2.18281 c -0.219392,-0.62935 -0.201919,-0.79375 0.08436,-0.79375 0.198583,0 0.421116,-0.14883 0.494514,-0.33073 0.07972,-0.19757 0.141862,-0.14431 0.154339,0.13229 0.01148,0.25467 -0.100441,0.46303 -0.248734,0.46303 -0.155483,0 -0.199343,0.28002 -0.103609,0.66145 0.232061,0.92461 -0.04612,0.82799 -0.380873,-0.13229 z m -3.479228,0.2802 c 0,-0.15411 0.119063,-0.2802 0.264583,-0.2802 0.339032,0 0.339032,0.18734 0,0.39688 -0.14552,0.0899 -0.264583,0.0374 -0.264583,-0.11668 z m 1.234723,-0.72117 c -0.09701,-0.097 -0.17639,-0.29942 -0.17639,-0.44979 0,-0.16579 0.123235,-0.15017 0.31309,0.0397 0.172201,0.17221 0.251576,0.37461 0.17639,0.4498 -0.07519,0.0752 -0.216078,0.0573 -0.31309,-0.0397 z m 2.475754,-1.80127 c -0.485225,-0.5165 -0.816181,-0.63307 -1.567474,-0.55213 -0.523809,0.0564 -0.80355,0.0435 -0.621649,-0.0288 0.181901,-0.0722 0.330729,-0.35958 0.330729,-0.63849 0,-0.30812 0.18169,-0.50553 0.463021,-0.50307 0.367147,0.003 0.387316,0.052 0.0974,0.23562 -0.274937,0.17413 -0.127286,0.34466 0.595312,0.68755 0.528511,0.2508 0.96093,0.56852 0.96093,0.70604 0,0.13753 0.119063,0.17647 0.264583,0.0865 0.145521,-0.0899 0.264584,0.0221 0.264584,0.24897 0,0.54655 -0.06526,0.52647 -0.78744,-0.24225 z m -3.117665,-0.4 c -0.425646,-0.68157 -0.416314,-0.74158 0.131755,-0.84713 0.412909,-0.0795 0.401063,-0.1475 -0.115755,-0.66432 -0.390933,-0.39093 -0.474888,-0.62272 -0.261546,-0.72212 0.172804,-0.0805 0.0463,-0.0799 -0.28112,0.001 -0.489252,0.12136 -0.59459,0.0384 -0.591262,-0.46547 0.0021,-0.33723 0.09153,-0.49009 0.198438,-0.3397 0.230999,0.32493 0.59096,0.33164 1.082529,0.0202 0.302247,-0.19151 0.302247,-0.2634 0,-0.45491 -0.240205,-0.1522 -0.254717,-0.2288 -0.04386,-0.23151 0.434306,-0.006 0.679207,0.45168 0.350661,0.65474 -0.147894,0.0914 -0.268899,0.3585 -0.268899,0.59356 0,0.34449 0.125251,0.30972 0.645747,-0.17926 0.547122,-0.514 0.762336,-0.56601 1.409113,-0.34054 0.480941,0.16766 0.927253,0.17439 1.206336,0.0182 0.375084,-0.2099 0.442349,-0.1141 0.43892,0.62515 -0.0029,0.63391 -0.07063,0.7678 -0.247126,0.4888 -0.133692,-0.21133 -0.17231,-0.50899 -0.08582,-0.66146 0.08649,-0.15247 0.05534,-0.18447 -0.06921,-0.0711 -0.396778,0.36109 -0.368806,1.07218 0.05435,1.3816 0.22911,0.16753 0.351993,0.5247 0.279034,0.81104 -0.113524,0.44557 -0.134334,0.43476 -0.161062,-0.0836 -0.01748,-0.33914 -0.201475,-0.59531 -0.427567,-0.59531 -0.218281,0 -0.396875,-0.18563 -0.396875,-0.41249 0,-0.22687 -0.09922,-0.35117 -0.220485,-0.27623 -0.121269,0.075 -0.220488,-0.0319 -0.220488,-0.23733 0,-0.20548 0.09922,-0.31227 0.220488,-0.23733 0.121267,0.075 0.220485,0.0102 0.220485,-0.14393 0,-0.15411 -0.168857,-0.28019 -0.375234,-0.28019 -0.206381,0 -0.5831,-0.0798 -0.837155,-0.17726 -0.314929,-0.12085 -0.40104,-0.0787 -0.270608,0.13229 0.11022,0.17834 0.0389,0.30955 -0.168262,0.30955 -0.197765,0 -0.498306,0.13873 -0.667867,0.30829 -0.234669,0.23467 -0.212275,0.37851 0.09377,0.60229 0.460153,0.33648 0.227187,1.3004 -0.249767,1.03346 -0.18307,-0.10246 -0.172095,-0.0285 0.02772,0.18673 0.181901,0.19597 0.330729,0.45156 0.330729,0.56798 0,0.38883 -0.398137,0.21765 -0.730105,-0.31391 z m -1.121979,-1.37891 c 0,-0.31073 0.0893,-0.4572 0.198438,-0.3255 0.10914,0.1317 0.297717,0.31357 0.41906,0.40415 0.121341,0.0906 0.03204,0.23706 -0.198437,0.3255 -0.301729,0.11579 -0.419061,0.003 -0.419061,-0.40415 z m 2.116667,-0.46115 c 0,-0.15411 0.119062,-0.2802 0.264583,-0.2802 0.339032,0 0.339032,0.18734 0,0.39688 -0.145521,0.0899 -0.264583,0.0374 -0.264583,-0.11668 z m 1.35541,-2.39209 c -0.505679,-1.04663 -0.505584,-1.05172 0.01434,-0.77346 0.306416,0.16399 0.461279,0.4419 0.373586,0.67043 -0.08326,0.21696 -0.03496,0.31936 0.108741,0.23055 0.149159,-0.0922 0.19539,0.0419 0.109284,0.31698 -0.143719,0.45913 -0.137941,0.45913 0.156223,-1.1e-4 0.226988,-0.35436 0.228819,-0.56922 0.0071,-0.83634 -0.179329,-0.21608 -0.198924,-0.4209 -0.04912,-0.51348 0.313031,-0.19347 0.624747,0.97991 0.409403,1.54109 -0.258419,0.67343 -0.586235,0.48895 -1.129589,-0.63566 z m -18.764993,0.47148 c -0.854789,-0.85479 -0.03771,-2.8575 1.165816,-2.8575 1.455691,0 2.248091,1.79569 1.207829,2.73711 -0.563981,0.5104 -1.915107,0.57892 -2.373645,0.12039 z m 7.011164,-0.15352 c -0.620542,-0.6857 -0.562258,-1.44748 0.162867,-2.1287 0.719207,-0.67566 1.430565,-0.72152 2.16576,-0.13963 0.384032,0.30395 0.43461,0.4541 0.184415,0.54747 -0.268356,0.10015 -0.254728,0.19602 0.06151,0.43266 0.340183,0.25456 0.352232,0.41159 0.07409,0.96547 -0.436303,0.86881 -1.98379,1.05737 -2.648633,0.32273 z m 1.880653,-0.46203 c -0.08146,-0.0815 -0.229407,0.0654 -0.328766,0.32632 -0.143584,0.37709 -0.113194,0.40748 0.148114,0.14811 0.180822,-0.17947 0.262115,-0.39297 0.180652,-0.47443 z m -0.742651,-0.52216 c 0.181158,-0.21828 0.269846,-0.39688 0.197086,-0.39688 -0.07276,0 -0.280511,0.1786 -0.461669,0.39688 -0.181158,0.21828 -0.269846,0.39687 -0.197085,0.39687 0.07276,0 0.280511,-0.17859 0.461668,-0.39687 z m 0.62543,-0.79223 c -0.08344,-0.21745 -0.27101,-0.32163 -0.416819,-0.23151 -0.16301,0.10074 -0.12686,0.25144 0.09387,0.3913 0.481756,0.30526 0.498268,0.29708 0.322947,-0.15979 z m 6.115117,1.69833 c -0.09585,-0.30201 -0.103617,-0.61977 -0.01725,-0.70613 0.08636,-0.0864 -0.04094,-0.37578 -0.282901,-0.64314 -0.241961,-0.26737 -0.361283,-0.56476 -0.265163,-0.66089 0.09612,-0.0961 0.174768,-0.0317 0.174768,0.14323 0,0.23154 0.138049,0.24411 0.507823,0.0462 0.279302,-0.14948 0.547193,-0.17021 0.595313,-0.0461 0.04812,0.12414 0.424063,-0.0951 0.835429,-0.48718 0.515739,-0.49157 0.622028,-0.71289 0.342369,-0.71289 -0.223065,0 -0.358982,0.0754 -0.302033,0.16753 0.05695,0.0921 -0.126886,0.31143 -0.408514,0.48731 -0.309229,0.19312 -0.512053,0.2141 -0.512053,0.053 0,-0.14675 0.119062,-0.26682 0.264583,-0.26682 0.145521,0 0.264583,-0.18093 0.264583,-0.40205 0,-0.4931 0.976588,-0.36624 1.915248,0.24879 0.352295,0.23083 0.700484,0.35975 0.773755,0.28647 0.07327,-0.0733 0.13322,0.029 0.13322,0.22736 0,0.22969 -0.191092,0.3106 -0.526444,0.2229 -0.385934,-0.10092 -0.46918,-0.045 -0.311896,0.20948 0.137245,0.22206 0.111072,0.28319 -0.07264,0.16965 -0.57023,-0.35242 -0.58279,0.33419 -0.01341,0.733 0.321077,0.22489 0.485362,0.50093 0.365077,0.61341 -0.120282,0.11249 -0.272097,0.055 -0.337362,-0.12785 -0.06527,-0.18281 -0.257329,-0.25302 -0.426799,-0.15602 -0.169471,0.097 -0.219867,0.0789 -0.111991,-0.0401 0.107879,-0.11908 0.074,-0.36368 -0.07528,-0.54356 -0.191831,-0.23114 -0.141835,-0.45662 0.170495,-0.76895 0.30495,-0.30496 0.356928,-0.52691 0.167706,-0.71613 -0.189222,-0.18922 -0.330764,-0.096 -0.456684,0.30073 -0.113856,0.35872 -0.326509,0.51967 -0.565468,0.42797 -0.210643,-0.0808 -0.45443,0.0392 -0.54175,0.26676 -0.08963,0.23359 -0.358886,0.3614 -0.618371,0.29355 -0.335725,-0.0878 -0.459597,0.0401 -0.459597,0.47443 0,0.46027 0.117144,0.56398 0.518485,0.45903 0.285168,-0.0746 0.580681,-0.29766 0.656693,-0.49575 0.07601,-0.19809 0.268344,-0.36016 0.4274,-0.36016 0.204666,0 0.202436,0.0868 -0.0076,0.29683 -0.163253,0.16325 -0.233857,0.46091 -0.156901,0.66145 0.09858,0.25688 -0.08345,0.36584 -0.615987,0.36869 -0.585279,0.003 -0.666318,0.0619 -0.359023,0.26053 0.342445,0.22131 0.335817,0.25704 -0.04832,0.26053 -0.244856,0.002 -0.523618,-0.24304 -0.619471,-0.54505 z m 2.525178,0.15862 c -0.208691,-0.25145 -0.228764,-0.40326 -0.05332,-0.40326 0.319762,0 0.69257,0.50196 0.509085,0.68545 -0.0666,0.0666 -0.271691,-0.0604 -0.455765,-0.28219 z m 1.867664,-2.10101 c -0.01148,-0.27891 0.05104,-0.43518 0.138965,-0.34726 0.08792,0.0879 0.09732,0.31612 0.02088,0.50711 -0.08446,0.21107 -0.147156,0.14838 -0.15985,-0.15985 z m -4.518805,-0.80018 c 0,-0.49709 -0.138462,-0.67707 -0.520864,-0.67707 -0.353396,0 -0.472083,0.12711 -0.36915,0.39535 0.08344,0.21745 0.2583,0.32948 0.38857,0.24897 0.130273,-0.0805 0.23686,-0.0203 0.23686,0.13381 0,0.54694 -0.476427,0.26678 -1.210778,-0.71199 -0.409432,-0.5457 -0.899813,-1.0874 -1.089737,-1.20377 -0.595188,-0.36469 -0.377827,-0.664 0.441034,-0.60731 0.868484,0.0601 1.14082,0.24368 1.226368,0.82655 0.06991,0.47635 -0.202404,0.5002 -0.668004,0.0585 -0.285221,-0.27059 -0.284798,-0.22492 0.0024,0.25113 0.230553,0.38225 0.451638,0.49829 0.644464,0.33826 0.185682,-0.1541 0.511884,-0.0906 0.887907,0.17274 0.694032,0.48611 1.064864,0.27094 0.651346,-0.37795 -0.168002,-0.26362 -0.548052,-0.41954 -0.916683,-0.37607 -0.551979,0.0651 -0.577474,0.0324 -0.206571,-0.26459 0.396706,-0.31767 0.462873,-0.43445 0.529286,-0.93415 0.0145,-0.10914 0.108683,0.0992 0.209283,0.46303 0.1099,0.39742 0.408879,0.69424 0.749017,0.7436 l 0.566105,0.0821 -0.53744,0.91089 c -0.706658,1.1976 -1.013394,1.35741 -1.013394,0.52794 z m 3.836458,-0.41249 c -0.291042,-0.12507 -0.37728,-0.23576 -0.191643,-0.24599 0.258752,-0.0143 0.241729,-0.20384 -0.07294,-0.81234 -0.225756,-0.43657 -0.350295,-0.79375 -0.276755,-0.79375 0.07354,0 0.376672,0.47624 0.67363,1.05833 0.296957,0.58208 0.507735,1.04996 0.468397,1.03974 -0.03934,-0.0102 -0.309647,-0.12093 -0.600689,-0.24599 z m -0.801497,-0.51663 c 0.152281,-0.2464 0.04174,-0.29239 -0.42214,-0.17562 -0.345646,0.087 -0.478877,0.0896 -0.296069,0.006 0.182809,-0.0838 0.257736,-0.27322 0.166508,-0.42083 -0.09716,-0.1572 0.06657,-0.14399 0.395226,0.0319 0.643697,0.34449 0.679138,0.44207 0.255633,0.70381 -0.198514,0.12269 -0.23323,0.0719 -0.09916,-0.14502 z m -2.505795,-1.84901 c 0,-0.15411 0.119063,-0.28019 0.264584,-0.28019 0.339031,0 0.339031,0.18734 0,0.39687 -0.145521,0.0899 -0.264584,0.0374 -0.264584,-0.11668 z m -3.439583,-2.11666 c 0,-0.15411 0.119063,-0.2802 0.264583,-0.2802 0.339032,0 0.339032,0.18734 0,0.39687 -0.14552,0.0899 -0.264583,0.0374 -0.264583,-0.11667 z m 3.96875,0.0285 c 0,-0.16978 -0.218281,-0.30868 -0.485069,-0.30868 -0.26679,0 -0.485071,-0.1786 -0.485071,-0.39688 0,-0.51618 0.08614,-0.50157 0.763511,0.1295 0.310748,0.28951 0.484362,0.60701 0.385813,0.70556 -0.09855,0.0986 -0.179184,0.0403 -0.179184,-0.1295 z"
         style="fill:#000000;fill-opacity:1;stroke-width:0.264583" />
      <path
         id="path215"
         d="m 52.257113,132.2346 c -0.600233,-0.4389 -0.896362,-2.81626 -0.390726,-3.1368 0.209004,-0.13249 0.23179,-0.22492 0.05604,-0.22732 -0.173869,-0.002 -0.308301,-0.54286 -0.32556,-1.30891 -0.01617,-0.71766 -0.165581,-1.87852 -0.332028,-2.57968 -0.166447,-0.70116 -0.324545,-1.47327 -0.351328,-1.71579 -0.02678,-0.24252 -0.202087,-0.62577 -0.389564,-0.85166 -0.187476,-0.2259 -0.379249,-0.82371 -0.426161,-1.32847 -0.07108,-0.76482 -0.01171,-0.8902 0.356295,-0.75244 0.383463,0.14354 0.39411,0.10692 0.08088,-0.2782 -0.198389,-0.24392 -0.451783,-0.38721 -0.563098,-0.31841 -0.532163,0.32889 -0.683759,-2.88733 -0.250183,-5.30784 0.432254,-2.41313 0.807917,-3.32897 1.223883,-2.98375 0.240978,0.2 0.346982,0.20201 0.346982,0.007 0,-0.15475 -0.114573,-0.35218 -0.254606,-0.43872 -0.315244,-0.19484 0.09253,-1.18771 1.117252,-2.72034 1.025778,-1.53422 2.022699,-2.49193 2.370317,-2.27709 0.15861,0.098 0.214687,0.059 0.124617,-0.0867 -0.09007,-0.14573 0.159424,-0.56992 0.554432,-0.94264 0.975272,-0.92023 4.209202,-2.65952 4.551549,-2.44794 0.420162,0.25968 0.007,0.72612 -0.520868,0.58808 -0.305266,-0.0798 -0.453604,0.0221 -0.43316,0.29754 0.01719,0.23164 -0.205497,0.45205 -0.498075,0.49298 -0.510806,0.0715 -0.511416,0.0665 -0.01756,-0.14266 0.311303,-0.13185 0.400732,-0.28522 0.228416,-0.39171 -0.155753,-0.0963 -0.421417,-0.008 -0.590363,0.1951 -0.240226,0.28946 -0.19998,0.44741 0.184652,0.72469 0.270506,0.19501 0.596693,0.53316 0.724861,0.75145 0.200985,0.34229 0.171468,0.34693 -0.214632,0.0337 -0.315766,-0.25613 -0.447663,-0.27102 -0.447663,-0.0505 0,0.17193 -0.108893,0.2453 -0.241985,0.16304 -0.133092,-0.0823 -0.302286,2e-5 -0.375987,0.18283 -0.08541,0.21185 -0.141576,0.17474 -0.15489,-0.10234 -0.02416,-0.5028 -0.722729,-0.85409 -0.954071,-0.47977 -0.08601,0.13916 0.02924,0.25303 0.25611,0.25303 0.226869,0 0.408703,0.0893 0.404075,0.19843 -0.01665,0.3927 -0.755095,1.1744 -0.978801,1.03614 -0.125771,-0.0777 -0.401584,-0.0319 -0.612917,0.10175 -0.287027,0.18157 -0.296615,0.2441 -0.0379,0.24712 0.194019,0.002 0.263314,0.1384 0.157557,0.30952 -0.125611,0.20324 -0.07152,0.23299 0.16164,0.0889 0.246618,-0.15242 0.30539,-0.0992 0.198398,0.1796 -0.08911,0.23223 -0.003,0.39618 0.207981,0.39618 0.198006,0 0.300852,-0.0957 0.228545,-0.21271 -0.07231,-0.117 0.06571,-0.59401 0.306694,-1.06002 l 0.438159,-0.84731 0.467993,0.62043 0.467994,0.62044 -0.03544,-0.61757 c -0.02662,-0.46391 0.113685,-0.62888 0.56392,-0.66302 0.880467,-0.0668 1.165559,0.42692 0.730637,1.26523 -0.202361,0.39005 -0.265546,0.77246 -0.14041,0.8498 0.125135,0.0773 0.305635,-0.10551 0.401111,-0.40633 0.137974,-0.43472 0.249813,-0.48368 0.545084,-0.23862 0.288375,0.23933 0.404738,0.22168 0.520075,-0.0789 0.08172,-0.21296 0.112894,-0.51212 0.06928,-0.6648 -0.04362,-0.15268 0.01,-0.2895 0.119133,-0.30406 0.10914,-0.0145 0.198437,0.0331 0.198437,0.10584 0,0.0728 0,0.35797 0,0.63381 0,0.31975 -0.375964,0.68752 -1.037346,1.01475 -1.036563,0.51285 -1.037569,0.51282 -1.331101,-0.0385 -0.186109,-0.34955 -0.24532,-0.38206 -0.161582,-0.0887 0.08009,0.28056 -0.01119,0.46302 -0.23163,0.46302 -0.242541,0 -0.316941,-0.19842 -0.223213,-0.59531 0.132666,-0.56177 0.119306,-0.56788 -0.237128,-0.1084 -0.361394,0.46587 -0.394265,0.46659 -0.760671,0.0166 -0.347221,-0.42642 -0.333578,-0.45188 0.146213,-0.2728 0.424567,0.15846 0.463792,0.13164 0.198437,-0.13567 -0.238158,-0.23992 -0.411239,-0.25267 -0.618366,-0.0455 -0.207127,0.20713 -0.207127,0.33739 0,0.46541 0.412842,0.25515 0.354571,0.6757 -0.09362,0.6757 -0.209693,0 -0.454623,0.1187 -0.544287,0.26379 -0.106506,0.17232 0.0827,0.17035 0.545734,-0.006 0.496945,-0.18894 0.814289,-0.1819 1.061864,0.0236 0.194206,0.16118 0.507146,0.20217 0.695421,0.0911 0.188276,-0.11108 -0.197257,0.38468 -0.85674,1.1017 -0.659483,0.71702 -1.451802,1.72039 -1.76071,2.22971 -0.696289,1.14803 -1.405855,3.50924 -1.405855,4.67823 0,0.48291 -0.131801,0.87802 -0.292891,0.87802 -0.16109,0 -0.224358,-0.1786 -0.140596,-0.39688 0.222477,-0.57976 -0.02991,-0.48497 -0.362284,0.13607 -0.156873,0.29312 -0.190828,0.51715 -0.07545,0.49784 0.934858,-0.15647 1.237538,1.02195 0.461751,1.79774 -0.22521,0.22521 -0.327973,0.4846 -0.22836,0.57641 0.09961,0.0918 0.234266,0.0181 0.299231,-0.16379 0.06497,-0.1819 0.221662,-0.33072 0.348216,-0.33072 0.303002,0 0.811132,1.85893 0.601046,2.19886 -0.08979,0.14528 -0.0432,0.18995 0.103522,0.0993 0.146726,-0.0907 0.394017,0.11439 0.549536,0.45572 0.155519,0.34133 0.66688,1.05808 1.136357,1.59279 0.642714,0.73201 0.778512,1.04727 0.549678,1.27611 -0.380438,0.38043 -0.391749,0.72725 -0.02372,0.72725 0.154109,0 0.206614,-0.11907 0.116677,-0.26459 -0.08994,-0.14552 0.08866,-0.26458 0.396875,-0.26458 0.308218,0 0.486812,0.11906 0.396875,0.26458 -0.08994,0.14552 0.06179,0.26459 0.337163,0.26459 0.599038,0 0.894894,0.24807 0.690422,0.57891 -0.08356,0.13521 -0.317025,0.10079 -0.533187,-0.0786 -0.301714,-0.2504 -0.45335,-0.24481 -0.704049,0.026 -0.250561,0.27062 -0.248141,0.3048 0.01121,0.15838 0.181901,-0.1027 0.330729,-0.0606 0.330729,0.0935 0,0.33759 -0.291397,0.35334 -1.107255,0.0598 -0.462923,-0.16652 -0.73685,-0.0907 -1.121491,0.31052 -0.42057,0.43868 -0.432057,0.50136 -0.06615,0.36094 0.243545,-0.0935 0.442809,-0.0546 0.442809,0.0863 0,0.14095 0.119063,0.25628 0.264584,0.25628 0.145521,0 0.264583,-0.1786 0.264583,-0.39688 0,-0.51366 0.382552,-0.50569 0.907143,0.0189 0.228675,0.22869 0.415774,0.29936 0.415774,0.15707 0,-0.14229 0.228418,-0.19898 0.507597,-0.12597 0.279178,0.073 0.725662,-0.003 0.992187,-0.16969 0.43457,-0.27122 0.42314,-0.28564 -0.110722,-0.13968 -0.331383,0.0906 -0.595312,0.0445 -0.595312,-0.10405 0,-0.48146 0.507265,-0.59329 1.119011,-0.24669 0.330429,0.18721 1.017499,0.46443 1.526822,0.61602 0.509323,0.1516 0.926042,0.41073 0.926042,0.57585 0,0.52826 0.378568,0.69986 0.551246,0.24987 0.206559,-0.53828 0.551184,-0.56924 0.551184,-0.0495 0,0.21189 -0.08905,0.3302 -0.197888,0.26294 -0.108838,-0.0673 -0.248226,0.0273 -0.309751,0.21008 -0.08706,0.25868 -0.196694,0.2624 -0.494492,0.0168 -0.247869,-0.20444 -0.519283,-0.22917 -0.770631,-0.0702 -0.548753,0.34708 -0.784877,0.3114 -0.784877,-0.11859 0,-0.23443 0.184745,-0.32379 0.499306,-0.24154 0.274619,0.0718 0.57132,0.014 0.659337,-0.12836 0.08874,-0.14359 -0.244206,-0.30613 -0.747427,-0.36487 -0.664063,-0.0775 -0.93662,0.006 -1.016187,0.30984 -0.114426,0.43757 0.39016,1.06162 0.858388,1.06162 0.151662,0 0.27575,0.17485 0.27575,0.38857 0,0.25371 -0.152797,0.32993 -0.440279,0.21962 -0.319682,-0.12268 -0.380956,-0.073 -0.223702,0.18147 0.141062,0.22825 0.114098,0.28709 -0.07733,0.16878 -0.16165,-0.0999 -0.23146,-0.34438 -0.155135,-0.54328 0.194238,-0.50618 -0.429376,-0.82645 -0.745591,-0.38292 -0.26091,0.36596 -0.189226,0.0381 0.202038,-0.92414 0.183902,-0.45227 -0.464036,-0.72788 -0.965241,-0.41059 -0.291754,0.18469 -0.25775,0.23897 0.156285,0.24948 0.475345,0.0121 0.461889,0.0547 -0.132292,0.4192 -0.363802,0.22317 -0.453099,0.34175 -0.198437,0.26351 0.254661,-0.0782 0.46302,-0.0269 0.46302,0.11401 0,0.14096 -0.238125,0.25629 -0.529166,0.25629 -0.582411,0 -0.601454,0.0329 -0.369151,0.63829 0.08895,0.23181 0.294584,0.33285 0.463021,0.22752 0.570479,-0.35674 1.005565,-0.29555 1.514045,0.21293 0.562305,0.56231 1.074546,0.67358 0.971772,0.2111 -0.03638,-0.16371 0.09518,-0.35639 0.292349,-0.42818 0.257379,-0.0937 0.310313,0.0213 0.187674,0.40768 -0.09395,0.29601 -0.04691,0.61478 0.104527,0.70838 0.438593,0.27106 0.319199,0.66811 -0.200904,0.66811 -0.261937,0 -0.608433,0.13218 -0.769989,0.29374 -0.215264,0.21526 -0.635848,0.18377 -1.574271,-0.11789 -1.184811,-0.38086 -2.593896,-0.58093 -3.066469,-0.4354 -0.109141,0.0336 -0.287735,0.0857 -0.396875,0.11579 -0.109141,0.0301 -0.773855,0.31286 -1.477144,0.62839 -1.470707,0.65984 -2.00831,0.70804 -2.651523,0.23771 z m 2.078146,-0.72234 c -0.209534,-0.33903 -0.396875,-0.33903 -0.396875,0 0,0.14552 0.126089,0.26458 0.280198,0.26458 0.154109,0 0.206614,-0.11906 0.116677,-0.26458 z m 7.556886,-0.38683 c 0.136577,0.0844 0.248322,0.0911 0.248322,0.0149 0,-0.0762 -0.252493,-0.27373 -0.561095,-0.43889 -0.452429,-0.24213 -0.524845,-0.23113 -0.373916,0.0568 0.102949,0.19642 -0.05863,0.0595 -0.359062,-0.30434 -0.300434,-0.3638 -0.548891,-0.55758 -0.552127,-0.43062 -0.0032,0.12696 -0.174464,0.0909 -0.380507,-0.0801 -0.299569,-0.24862 -0.409966,-0.19956 -0.551026,0.24488 -0.209667,0.6606 0.346638,1.47983 0.738678,1.08779 0.168661,-0.16866 0.399282,-0.11829 0.662204,0.14462 0.361499,0.3615 0.428186,0.35916 0.641812,-0.0226 0.131117,-0.2343 0.35014,-0.35693 0.486717,-0.27253 z m -9.17164,0.16634 c 0.07495,-0.12127 -0.03709,-0.22048 -0.248968,-0.22048 -0.21188,0 -0.385236,0.0992 -0.385236,0.22048 0,0.28575 0.457601,0.28575 0.634204,0 z m 3.238693,-0.22814 c -0.281813,-0.28181 -0.985119,-0.33122 -0.815834,-0.0573 0.08204,0.13274 0.340577,0.24136 0.574524,0.24136 0.233946,0 0.342536,-0.0828 0.24131,-0.18405 z m 1.033193,-0.59142 c -0.08372,-0.13547 -0.03122,-0.32109 0.116677,-0.41249 0.147895,-0.0914 0.268899,-0.27823 0.268899,-0.41516 0,-0.13693 -0.214908,-0.0406 -0.477574,0.21405 -0.312128,0.30262 -0.380873,0.53037 -0.198437,0.65741 0.379371,0.26419 0.472141,0.25019 0.290435,-0.0438 z m 1.616631,-0.50278 c -0.241152,-0.26647 -0.378668,-0.54428 -0.30559,-0.61736 0.07308,-0.0731 -0.04384,-0.13287 -0.259806,-0.13287 -0.319326,0 -0.331681,0.0783 -0.06615,0.41893 0.339141,0.4351 0.777585,0.80474 0.962849,0.81174 0.05893,0.002 -0.09015,-0.21397 -0.331307,-0.48044 z m -2.553971,-0.32487 c 0,-0.15411 -0.119063,-0.20661 -0.264584,-0.11668 -0.339033,0.20954 -0.339033,0.39688 0,0.39688 0.145521,0 0.264584,-0.12609 0.264584,-0.2802 z m 1.410534,-0.86691 c 0.09733,0.0973 0.176966,-0.0285 0.176966,-0.27962 0,-0.25112 0.119062,-0.383 0.264583,-0.29306 0.145521,0.0899 0.264583,0.0374 0.264583,-0.11668 0,-0.45144 -0.317981,-0.32804 -1.110001,0.43076 -0.408145,0.39103 -0.742082,0.57336 -0.742082,0.40518 0,-0.1765 -0.186144,-0.23435 -0.440279,-0.13683 -0.330173,0.1267 -0.383639,0.075 -0.213794,-0.20674 0.193324,-0.32069 0.16094,-0.32253 -0.22118,-0.0126 -0.44925,0.36441 -0.62076,0.69429 -0.249226,0.47935 0.10914,-0.0631 0.436562,-0.0248 0.727604,0.0851 0.33063,0.12488 0.686125,0.0626 0.947513,-0.16598 0.230091,-0.20121 0.497981,-0.28621 0.595313,-0.18888 z m -4.585534,-0.86966 c 0,-0.29643 -0.49689,-0.0365 -0.639208,0.3344 -0.139347,0.36313 -0.100631,0.3795 0.236276,0.0999 0.221612,-0.18393 0.402932,-0.37936 0.402932,-0.4343 z m 1.092082,-0.56292 c 0.321288,-0.40967 0.314595,-0.42518 -0.05809,-0.13459 -0.231671,0.18064 -0.499561,0.25009 -0.595313,0.15434 -0.09575,-0.0957 -0.174093,-0.0352 -0.174093,0.13459 0,0.45299 0.411373,0.37626 0.827499,-0.15434 z m 1.024584,-1.11179 c 0,-0.12136 -0.165117,-0.28402 -0.366928,-0.36146 -0.256896,-0.0986 -0.327217,0.0111 -0.234503,0.36559 0.124697,0.47684 0.601431,0.47357 0.601431,-0.004 z m -1.058333,-0.004 c 0,-0.14095 -0.178594,-0.18774 -0.396875,-0.10398 -0.508177,0.195 -0.508177,0.36026 0,0.36026 0.218281,0 0.396875,-0.11532 0.396875,-0.25628 z m 2.377198,-0.48694 c -0.0035,-0.38556 -0.0395,-0.39255 -0.260531,-0.0505 -0.334856,0.51815 -0.334856,0.86841 0,0.66145 0.145521,-0.0899 0.26276,-0.36485 0.260531,-0.61092 z m -0.789698,-0.46319 c 0,-0.17846 -0.170684,-0.38997 -0.379298,-0.47002 -0.247442,-0.0949 -0.366989,0.0178 -0.343892,0.32447 0.03934,0.5222 0.72319,0.65983 0.72319,0.14555 z m -2.596224,-0.0327 c -0.190996,-0.0764 -0.419199,-0.067 -0.507118,0.0209 -0.08792,0.0879 0.06835,0.15045 0.347266,0.13896 0.308224,-0.0127 0.370919,-0.0754 0.159852,-0.15985 z m 3.919141,-0.36404 c 0,-0.15411 0.119062,-0.20661 0.264583,-0.11668 0.145521,0.0899 0.264583,0.0374 0.264583,-0.11667 0,-0.40464 -0.411269,-0.34419 -0.79375,0.11667 -0.227569,0.27421 -0.237583,0.39688 -0.0324,0.39688 0.16334,0 0.296981,-0.12609 0.296981,-0.2802 z m -3.86522,-0.62539 c -0.220922,-0.57571 -0.731996,-0.66508 -1.305239,-0.22824 -0.512525,0.39057 -0.512406,0.39316 0.01108,0.24119 0.291042,-0.0845 0.707761,-0.0391 0.926042,0.10088 0.520448,0.33373 0.537798,0.32836 0.368114,-0.11383 z m 2.39724,-0.301 c 0.580169,-0.38014 0.652135,-0.3749 0.908687,0.0662 0.426939,0.73396 0.346547,0.24198 -0.100536,-0.61525 -0.217384,-0.41682 -0.395978,-0.59239 -0.396875,-0.39015 -8.99e-4,0.20224 -0.209989,0.52057 -0.46465,0.70741 -0.385091,0.28253 -0.547259,0.26517 -0.963521,-0.10312 -0.480863,-0.42545 -0.486151,-0.41947 -0.134793,0.15249 0.435075,0.70823 0.365988,0.69728 1.151688,0.18247 z m -1.971604,-1.45486 c 0,-0.28245 -0.178593,-0.51355 -0.396875,-0.51355 -0.218281,0 -0.396875,0.11906 -0.396875,0.26458 0,0.14552 0.131801,0.26459 0.292891,0.26459 0.16109,0 0.221985,0.18477 0.135322,0.41061 -0.09035,0.23546 -0.046,0.34166 0.103985,0.24897 0.143853,-0.0889 0.261552,-0.39275 0.261552,-0.6752 z m 0.889431,-0.38126 c -0.195006,-0.50818 -0.360264,-0.50818 -0.360264,0 0,0.21828 0.115326,0.39688 0.256279,0.39688 0.140954,0 0.187747,-0.1786 0.103985,-0.39688 z m 0.201201,-0.84005 c -0.311903,-0.53637 -0.387221,-0.36469 -0.131904,0.30065 0.09074,0.23646 0.220714,0.37419 0.288836,0.30607 0.06812,-0.0681 -0.0025,-0.34115 -0.156932,-0.60672 z m -0.666196,-0.5435 c -0.08792,-0.0879 -0.150453,0.0683 -0.138964,0.34726 0.01269,0.30823 0.07539,0.37092 0.159852,0.15986 0.07643,-0.191 0.06703,-0.4192 -0.02089,-0.50712 z m -2.225399,-0.2751 c -0.17545,-0.0585 -0.239639,-0.245 -0.142641,-0.41447 0.097,-0.16947 0.07445,-0.21539 -0.05011,-0.10204 -0.422749,0.38473 -0.358501,0.95679 0.0882,0.78537 0.276786,-0.10621 0.31301,-0.19938 0.104544,-0.26886 z m -0.479333,-1.00093 c 0.09035,-0.23545 0.046,-0.34166 -0.103984,-0.24896 -0.143854,0.0889 -0.261553,0.27368 -0.261553,0.41061 0,0.38059 0.189644,0.29672 0.365537,-0.16165 z m 1.087004,-0.12286 c -0.0914,-0.1479 -0.277024,-0.2004 -0.41249,-0.11668 -0.366989,0.22681 -0.298559,0.38558 0.166189,0.38558 0.226869,0 0.337705,-0.12101 0.246301,-0.2689 z m -0.557837,-1.72922 c 0.09035,-0.23546 0.046,-0.34166 -0.103985,-0.24897 -0.143853,0.0889 -0.261552,0.27369 -0.261552,0.41062 0,0.38059 0.189644,0.29672 0.365537,-0.16165 z m -1.322917,-0.52917 c 0.09035,-0.23545 0.046,-0.34166 -0.103984,-0.24896 -0.143854,0.0889 -0.261553,0.27368 -0.261553,0.41061 0,0.38059 0.189644,0.29672 0.365537,-0.16165 z m 2.447312,-1.26528 c -0.04443,-0.29115 -0.285428,-0.55941 -0.535543,-0.59612 -0.358099,-0.0525 -0.390539,0.0106 -0.152627,0.2973 0.16617,0.20022 0.237583,0.46848 0.158696,0.59612 -0.07889,0.12764 0.02615,0.23207 0.233415,0.23207 0.227426,0 0.344814,-0.20989 0.296059,-0.52937 z m 0.727688,0.20695 c 0.09035,-0.23546 0.046,-0.34166 -0.103984,-0.24897 -0.143854,0.0889 -0.261553,0.27369 -0.261553,0.41062 0,0.38059 0.189644,0.29672 0.365537,-0.16165 z m 0.832089,-1.12578 c -0.08146,-0.0815 -0.294956,-1.7e-4 -0.474432,0.18065 -0.259362,0.26131 -0.228971,0.2917 0.148113,0.14811 0.260937,-0.0994 0.407781,-0.2473 0.326319,-0.32876 z m -2.255959,-0.47207 c 0,-0.0504 -0.178594,-0.0231 -0.396875,0.0607 -0.218282,0.0838 -0.396875,0.2732 -0.396875,0.42097 0,0.15486 0.168118,0.12915 0.396875,-0.0607 0.218281,-0.18116 0.396875,-0.37059 0.396875,-0.42097 z m 2.08078,-0.26267 c 0.145148,0.0897 0.350059,0.0237 0.455359,-0.14668 0.119572,-0.19347 0.07677,-0.23889 -0.114009,-0.12099 -0.181003,0.11187 -0.305464,0.0207 -0.305464,-0.2237 0,-0.22687 -0.0893,-0.39839 -0.198437,-0.38116 -0.582157,0.0919 -0.615711,-0.0839 -0.101191,-0.5301 0.524808,-0.45517 0.534836,-0.51422 0.114694,-0.67545 -0.253217,-0.0972 -0.37576,-0.092 -0.272317,0.0114 0.239728,0.23973 -0.323718,0.93735 -0.612779,0.7587 -0.118977,-0.0735 -0.29293,-0.01 -0.386562,0.14176 -0.09363,0.1515 -0.01256,0.24274 0.180155,0.20276 0.192718,-0.04 0.31768,0.085 0.277694,0.27769 -0.03999,0.19272 0.04931,0.27499 0.198438,0.18282 0.346133,-0.21392 0.343672,0.0129 -0.008,0.74095 -0.26229,0.54296 -0.255352,0.5483 0.114688,0.0884 0.216626,-0.26923 0.512624,-0.41612 0.657772,-0.32641 z m -3.139114,0.31507 c 0,-0.0572 -0.184777,-0.17489 -0.410617,-0.26155 -0.235459,-0.0904 -0.341662,-0.046 -0.248968,0.10398 0.155379,0.25141 0.659585,0.37186 0.659585,0.15757 z m 0.389712,-0.43677 c -0.09388,-0.1519 -0.04326,-0.42971 0.112476,-0.61736 0.207192,-0.24965 0.18807,-0.34119 -0.07127,-0.34119 -0.202062,0 -0.328518,0.23697 -0.29415,0.55121 0.07138,0.65271 0.08381,0.68351 0.275725,0.68351 0.08135,0 0.0711,-0.12428 -0.02278,-0.27617 z m 1.029468,-0.38377 c -0.08344,-0.21744 -0.27101,-0.32162 -0.416818,-0.23151 -0.163011,0.10075 -0.126861,0.25144 0.09387,0.39131 0.481756,0.30525 0.498269,0.29708 0.322948,-0.1598 z m 0.627141,-2.21182 c -0.274035,-0.33764 -0.249883,-0.37357 0.150234,-0.22352 0.299669,0.11239 0.413512,0.0765 0.306482,-0.0967 -0.09365,-0.15153 -0.297794,-0.23301 -0.453645,-0.18106 -0.424336,0.14145 -0.457512,0.90362 -0.03933,0.90362 0.291434,0 0.298566,-0.0791 0.03626,-0.40232 z m 2.716179,-0.50032 c 0,-0.0728 -0.159783,3.1e-4 -0.355073,0.16239 -0.19529,0.16208 -0.452504,0.20642 -0.571586,0.0985 -0.119082,-0.10788 -0.127293,-0.0415 -0.01825,0.14744 0.152755,0.26471 0.283961,0.27245 0.571586,0.0337 0.205325,-0.17041 0.373319,-0.36936 0.373319,-0.44212 z m -1.761593,-0.68257 c 0.09575,0.0957 0.174093,0.0352 0.174093,-0.13458 0,-0.45299 -0.411373,-0.37626 -0.827499,0.15434 -0.321288,0.40967 -0.314595,0.42518 0.05809,0.13458 0.231671,-0.18064 0.499561,-0.25009 0.595313,-0.15434 z m 0.967843,-0.1943 c 0,-0.15411 0.110836,-0.21169 0.246301,-0.12797 0.135466,0.0837 0.316563,0.0385 0.402439,-0.10042 0.08588,-0.13895 0.391759,-0.20726 0.679741,-0.1518 0.747126,0.14389 0.647539,-0.25653 -0.154711,-0.62206 -0.392327,-0.17876 -0.608848,-0.19666 -0.513552,-0.0425 0.251852,0.4075 -0.09738,0.79207 -0.558584,0.61509 -0.290908,-0.11163 -0.320532,-0.21321 -0.101634,-0.3485 0.224306,-0.13863 0.207319,-0.22994 -0.062,-0.33329 -0.265641,-0.10194 -0.370953,0.0754 -0.370953,0.62464 0,0.42184 0.09741,0.76698 0.216477,0.76698 0.119063,0 0.216477,-0.12609 0.216477,-0.2802 z m -1.992367,-1.00661 c -0.08419,-0.0842 -0.263837,0.0221 -0.399217,0.23614 -0.18165,0.28723 -0.247208,0.29846 -0.250197,0.0429 -0.0022,-0.19049 -0.135826,-0.2649 -0.296883,-0.16537 -0.205136,0.12679 -0.187984,0.24578 0.05727,0.39736 0.362297,0.22391 1.163446,-0.23658 0.889025,-0.511 z m 4.277937,0.0962 c -0.08376,-0.21828 -0.03697,-0.39688 0.103984,-0.39688 0.140954,0 0.25628,-0.12007 0.25628,-0.26682 0,-0.16369 -0.19257,-0.14657 -0.498207,0.0443 -0.380542,0.23765 -0.427408,0.39202 -0.198438,0.65363 0.401835,0.45912 0.521044,0.44698 0.336381,-0.0342 z m -3.448634,-0.85439 c -0.08792,-0.0879 -0.150453,0.0684 -0.138964,0.34727 0.01269,0.30822 0.07539,0.37092 0.159852,0.15985 0.07643,-0.191 0.06703,-0.4192 -0.02089,-0.50712 z m -0.424436,0.0889 c 0,-0.0572 -0.178593,-0.17251 -0.396875,-0.25628 -0.218281,-0.0838 -0.396875,-0.037 -0.396875,0.10399 0,0.14095 0.178594,0.25628 0.396875,0.25628 0.218282,0 0.396875,-0.0468 0.396875,-0.10399 z m 1.486377,-0.16059 c -0.111486,0.21828 -0.02861,0.18399 0.184161,-0.0762 0.295032,-0.36078 0.320241,-0.61424 0.106201,-1.06779 -0.25993,-0.55078 -1.247572,-0.85702 -1.247572,-0.38683 0,0.11434 0.15875,0.20789 0.352778,0.20789 0.194028,0 0.352778,0.17859 0.352778,0.39687 0,0.21828 -0.09922,0.39688 -0.220487,0.39688 -0.121267,0 -0.220486,0.19317 -0.220486,0.42927 0,0.36991 0.0619,0.37906 0.447664,0.0661 0.385394,-0.31262 0.419469,-0.30792 0.244963,0.0338 z m 4.069873,-1.7198 c -0.408736,-0.49249 -0.440972,-0.49249 -0.440972,0 0,0.21828 0.173329,0.39688 0.385175,0.39688 0.312378,0 0.322924,-0.075 0.0558,-0.39688 z m -2.910416,-1.5875 c 0,-0.50817 -0.165258,-0.50817 -0.360264,0 -0.08376,0.21828 -0.03697,0.39688 0.103984,0.39688 0.140954,0 0.25628,-0.1786 0.25628,-0.39688 z m 7.744602,27.45589 c 0.682182,-0.0712 0.938073,-0.20356 0.809107,-0.41854 -0.144539,-0.24095 -0.09921,-0.24219 0.19396,-0.005 0.210419,0.17001 0.798821,0.35931 1.30756,0.42068 0.508738,0.0614 -0.02752,0.1106 -1.191688,0.10943 -1.164166,-0.001 -1.667689,-0.049 -1.118939,-0.10625 z m -0.79929,-1.58115 c -0.615188,-0.11849 -0.779768,-0.4618 -0.349011,-0.72802 0.135465,-0.0837 0.328942,-0.0185 0.429948,0.14492 0.130307,0.21084 0.247486,0.19386 0.403445,-0.0585 0.153418,-0.24824 0.206331,-0.17686 0.175206,0.23634 -0.02453,0.32558 -0.04902,0.57576 -0.05443,0.55594 -0.0054,-0.0198 -0.277732,-0.0876 -0.605154,-0.15069 z m 2.182813,-0.87161 c -0.08994,-0.14552 -0.04446,-0.26458 0.101062,-0.26458 0.14552,0 0.338167,0.11906 0.428104,0.26458 0.08994,0.14552 0.04446,0.26458 -0.101062,0.26458 -0.14552,0 -0.338167,-0.11906 -0.428104,-0.26458 z m -2.397205,-0.55498 c -0.229002,-0.37054 0.348283,-0.50306 0.643233,-0.14767 0.219215,0.26414 0.191294,0.34987 -0.113951,0.34987 -0.222372,0 -0.460549,-0.091 -0.529282,-0.2022 z m -0.741184,-0.37106 c -0.09184,-0.23933 -0.0013,-0.39688 0.227972,-0.39688 0.229313,0 0.319811,0.15755 0.227972,0.39688 -0.19083,0.49729 -0.265114,0.49729 -0.455944,0 z m 4.329014,0.16352 c 0,-0.14552 0.119062,-0.33817 0.264583,-0.42811 0.145521,-0.0899 0.264583,-0.0444 0.264583,0.10107 0,0.14552 -0.119062,0.33816 -0.264583,0.4281 -0.145521,0.0899 -0.264583,0.0445 -0.264583,-0.10106 z m -2.006305,-1.38963 c -0.07788,-0.12601 0.222622,-0.2291 0.667773,-0.2291 0.445151,0 0.809365,0.0457 0.809365,0.10144 0,0.22453 -1.345411,0.3408 -1.477138,0.12766 z m 3.930045,-0.65354 c 0.08792,-0.0879 0.316124,-0.0973 0.507119,-0.0209 0.211066,0.0845 0.148373,0.14715 -0.159853,0.15985 -0.278913,0.0115 -0.435184,-0.0511 -0.347266,-0.13897 z m -6.421657,-12.80473 c 0,-0.33903 0.187341,-0.33903 0.396875,0 0.08994,0.14552 0.03743,0.26459 -0.116677,0.26459 -0.154109,0 -0.280198,-0.11907 -0.280198,-0.26459 z m 5.441774,-0.2449 c -0.253591,-0.28021 -0.404918,-0.72669 -0.336282,-0.99218 0.102526,-0.39659 0.130267,-0.37917 0.155483,0.0976 0.01688,0.31917 0.295309,0.76565 0.618731,0.99219 0.323419,0.22653 0.460936,0.41188 0.305588,0.41188 -0.155345,0 -0.48993,-0.22927 -0.74352,-0.50949 z m -7.289806,-0.87348 c -0.0031,-0.75904 0.146298,-1.0846 0.648929,-1.41394 0.359139,-0.23531 0.805623,-0.36652 0.992187,-0.29157 0.212743,0.0855 0.166582,0.14407 -0.123813,0.15717 -0.254662,0.0115 -0.433255,0.16972 -0.396875,0.35162 0.03899,0.19494 -0.15112,0.29904 -0.463021,0.25355 -0.43589,-0.0636 -0.459209,-0.0293 -0.132292,0.19438 0.218282,0.14936 0.664766,0.27339 0.992188,0.27562 0.448987,0.003 0.587768,0.15038 0.56462,0.59936 -0.02486,0.48224 -0.0545,0.50306 -0.156066,0.10958 -0.09554,-0.37015 -0.282397,-0.44633 -0.785227,-0.32012 -0.473599,0.11886 -0.604715,0.0764 -0.464512,-0.15046 0.124338,-0.20118 0.08274,-0.24648 -0.114438,-0.12461 -0.170379,0.1053 -0.256162,0.2782 -0.19063,0.38424 0.06553,0.10603 0.0098,0.36569 -0.123924,0.57703 -0.173217,0.27381 -0.244239,0.10085 -0.247126,-0.60185 z m 2.697496,0.48361 c 0.187639,-0.20361 0.382849,-0.33059 0.433801,-0.28219 0.156937,0.14908 -0.240807,0.65238 -0.515562,0.65238 -0.14267,0 -0.105877,-0.16659 0.08176,-0.37019 z m 5.174688,-2.05563 c 0.15375,-0.15375 0.435722,-0.22749 0.626603,-0.16386 0.198159,0.066 0.07822,0.18599 -0.279546,0.27954 -0.440095,0.11509 -0.543396,0.0807 -0.347057,-0.11568 z m -7.611652,-4.94559 c 0,-0.12522 -0.305145,-0.67732 -0.678101,-1.2269 -0.47882,-0.70558 -0.595454,-1.08189 -0.396875,-1.28047 0.198579,-0.19857 0.281226,-0.11863 0.281226,0.27203 0,0.47124 0.135029,0.54017 0.910847,0.46499 0.909891,-0.0882 0.910294,-0.0877 0.383341,0.43924 -0.337992,0.33799 -0.468711,0.71275 -0.363851,1.04314 0.09001,0.28359 0.0961,0.51563 0.01353,0.51563 -0.08257,0 -0.150121,-0.10245 -0.150121,-0.22766 z m 1.129991,0.0678 c 0.08792,-0.0879 0.316122,-0.0973 0.507118,-0.0209 0.211067,0.0845 0.148372,0.14715 -0.159852,0.15985 -0.278915,0.0115 -0.435184,-0.0511 -0.347266,-0.13896 z m 0.604667,-0.86974 c -0.370751,-0.71695 -0.361919,-0.77381 0.140618,-0.90522 0.434671,-0.11367 0.478272,-0.0704 0.230237,0.22846 -0.23517,0.28336 -0.215344,0.45931 0.08567,0.76033 0.215409,0.21541 0.484447,0.30803 0.597861,0.20581 0.113415,-0.10221 0.120563,-0.037 0.01588,0.1449 -0.303314,0.52706 -0.644794,0.38851 -1.070271,-0.43428 z m 2.317283,0.0374 c -0.09063,-0.25466 -0.212984,-0.55232 -0.271894,-0.66146 -0.05891,-0.10914 0.01898,-0.19843 0.173088,-0.19843 0.154109,0 0.280198,0.22984 0.280198,0.51076 0,0.31932 0.223136,0.55374 0.595313,0.62543 l 0.595312,0.11466 -0.603616,0.036 c -0.358908,0.0214 -0.670421,-0.15168 -0.768401,-0.42699 z m 1.504309,0.34634 c 0,-0.0642 0.119062,-0.19026 0.264583,-0.28019 0.145521,-0.0899 0.264584,-0.0374 0.264584,0.11667 0,0.15411 -0.119063,0.2802 -0.264584,0.2802 -0.145521,0 -0.264583,-0.0525 -0.264583,-0.11668 z m -1.154014,-1.33853 c -0.08376,-0.21828 -0.03697,-0.39687 0.103985,-0.39687 0.140953,0 0.256279,0.17859 0.256279,0.39687 0,0.50818 -0.165258,0.50818 -0.360264,0 z m 0.227972,-0.76106 c -0.539538,-0.52446 -0.617306,-0.67906 -0.242823,-0.48272 0.57611,0.30205 1.319438,1.07723 1.140423,1.18928 -0.05712,0.0358 -0.461037,-0.2822 -0.8976,-0.70656 z m -2.921296,0.082 c -0.09592,-0.1552 -0.117655,-0.33893 -0.0483,-0.40828 0.06936,-0.0694 0.196603,0.0576 0.282774,0.28218 0.178907,0.46623 0.02642,0.54823 -0.234473,0.1261 z m 0.714114,-0.24698 c 0,-0.3638 0.06005,-0.51263 0.133453,-0.33073 0.0734,0.1819 0.0734,0.47956 0,0.66146 -0.0734,0.1819 -0.133453,0.0331 -0.133453,-0.33073 z m -2.029562,-0.24687 c 0.04901,-0.25451 -0.07261,-0.45868 -0.273218,-0.45868 -0.198853,0 -0.305316,0.091 -0.236583,0.2022 0.179205,0.28996 -0.359511,0.56753 -0.696845,0.35905 -0.178198,-0.11013 -0.08375,-0.3158 0.253501,-0.55202 0.304894,-0.21356 0.47281,-0.54512 0.387999,-0.76613 -0.08371,-0.21815 0.0085,-0.40786 0.20952,-0.43105 1.249128,-0.14408 1.778041,-0.11405 1.649675,0.0936 -0.08079,0.13072 -0.393167,0.20221 -0.694171,0.15887 -0.301004,-0.0433 -0.599274,0.0737 -0.662824,0.26019 -0.06355,0.18645 0.04445,0.30551 0.23999,0.26458 0.237654,-0.0497 0.329677,0.1449 0.277548,0.58705 -0.06375,0.54073 -0.02386,0.58902 0.21858,0.26458 0.233815,-0.3129 0.275274,-0.31779 0.195935,-0.0231 -0.151111,0.56125 -0.9768,0.60003 -0.869107,0.0408 z m 2.543514,-0.62506 c -0.334676,-0.55729 -0.329037,-0.56293 0.126559,-0.12656 0.262262,0.2512 0.419889,0.51368 0.350281,0.58328 -0.06961,0.0696 -0.284185,-0.13591 -0.47684,-0.45672 z m -1.415624,-0.097 c 0.181901,-0.0734 0.479557,-0.0734 0.661459,0 0.181901,0.0734 0.03307,0.13346 -0.33073,0.13346 -0.363802,0 -0.51263,-0.0601 -0.330729,-0.13346 z m 0.771702,-0.79491 c -0.300203,-0.3002 -0.194955,-0.61736 0.204871,-0.61736 0.209693,0 0.454002,0.1177 0.542908,0.26155 0.09602,0.15536 -0.02269,0.19082 -0.292372,0.0873 -0.308035,-0.1182 -0.392506,-0.0747 -0.26271,0.13533 0.20779,0.33621 0.09104,0.41689 -0.192697,0.13315 z m 6.438194,-0.0726 c 0,-0.15411 0.119063,-0.28019 0.264583,-0.28019 0.339032,0 0.339032,0.18734 0,0.39687 -0.14552,0.0899 -0.264583,0.0374 -0.264583,-0.11668 z m -4.832181,-0.59344 c -0.185303,-0.1177 0.217819,-0.20958 0.929577,-0.21187 0.691224,-0.002 1.256771,0.0425 1.256771,0.0993 0,0.21482 -1.873493,0.31129 -2.186348,0.11258 z"
         style="fill:#000000;fill-opacity:1;stroke-width:0.264583" />
      <path
         id="path213"
         d="m 52.512764,132.35388 c -0.07366,-0.11919 0.216966,-0.1652 0.645843,-0.10226 0.428878,0.063 0.779777,0.16047 0.779777,0.21671 0,0.20161 -1.294515,0.0977 -1.42562,-0.11445 z m 10.749098,0.0349 c 0.252964,-0.0662 0.729214,-0.0686 1.058333,-0.005 0.329118,0.0633 0.122147,0.11747 -0.459936,0.1204 -0.582083,0.003 -0.851362,-0.0488 -0.598397,-0.11506 z m -8.864867,-0.38021 c 0.179476,-0.18082 0.39297,-0.26211 0.474432,-0.18065 0.08146,0.0815 -0.06538,0.22941 -0.32632,0.32877 -0.377083,0.14358 -0.407474,0.11319 -0.148112,-0.14812 z m -2.046111,-0.39252 c 0,-0.21898 0.513749,-0.34281 0.631537,-0.15223 0.07641,0.12365 -0.03442,0.22481 -0.246301,0.22481 -0.21188,0 -0.385236,-0.0327 -0.385236,-0.0726 z m 4.7625,-0.46984 c 0,-0.22452 1.345411,-0.3408 1.477138,-0.12766 0.07788,0.12601 -0.222622,0.22911 -0.667773,0.22911 -0.445151,0 -0.809365,-0.0457 -0.809365,-0.10145 z m -5.50467,-4.52876 c -0.0054,-0.43657 0.0495,-0.64719 0.12197,-0.46806 0.07248,0.17913 0.07689,0.53632 0.0098,0.79375 -0.06708,0.25743 -0.126382,0.11087 -0.131774,-0.32569 z m 8.531802,-0.0146 c -0.49319,-0.39512 -0.489943,-0.40001 0.08172,-0.12298 0.327422,0.15867 0.595313,0.34383 0.595313,0.41147 0,0.20246 -0.137215,0.144 -0.677035,-0.28849 z m -8.806189,-1.4406 c 0,-0.3638 0.06005,-0.51263 0.133452,-0.33073 0.0734,0.1819 0.0734,0.47956 0,0.66146 -0.0734,0.1819 -0.133452,0.0331 -0.133452,-0.33073 z m -1.199715,-3.58211 c -0.09074,-0.23645 -0.157431,-0.56901 -0.148207,-0.73901 0.0092,-0.17 0.130844,-0.0239 0.270267,0.32463 0.139423,0.34855 0.206116,0.68111 0.148207,0.73902 -0.05791,0.0579 -0.179529,-0.0882 -0.270267,-0.32464 z m 2.640401,0.18662 c -0.07495,-0.12127 0.03709,-0.22048 0.248968,-0.22048 0.21188,0 0.385236,0.0992 0.385236,0.22048 0,0.28575 -0.457601,0.28575 -0.634204,0 z m -3.167344,-2.71381 c -0.09196,-0.45981 -0.150092,-1.50574 -0.12918,-2.3243 0.03312,-1.29655 0.06355,-1.19856 0.236218,0.76068 0.209427,2.3764 0.170181,2.94971 -0.107038,1.56362 z m 4.480018,-2.17034 c 0.09936,-0.26094 0.247303,-0.40778 0.328765,-0.32632 0.08146,0.0815 1.68e-4,0.29495 -0.180653,0.47443 -0.261307,0.25936 -0.291698,0.22897 -0.148112,-0.14811 z m 0.136168,-1.09102 c -0.01149,-0.27892 0.05105,-0.43519 0.138965,-0.34727 0.08792,0.0879 0.09732,0.31612 0.02089,0.50712 -0.08446,0.21107 -0.147157,0.14837 -0.159853,-0.15985 z m -4.497916,-1.32292 c -0.01149,-0.27891 0.05105,-0.43518 0.138964,-0.34726 0.08792,0.0879 0.09732,0.31612 0.02089,0.50711 -0.08446,0.21107 -0.147157,0.14838 -0.159852,-0.15985 z m 5.027083,-0.79375 c -0.01149,-0.27891 0.05105,-0.43518 0.138965,-0.34726 0.08792,0.0879 0.09732,0.31612 0.02089,0.50711 -0.08446,0.21107 -0.147156,0.14838 -0.159852,-0.15985 z m -4.7625,-0.59572 c -0.04033,-0.59683 0.304469,-1.14612 0.719447,-1.14612 0.381326,0 0.381518,0.0298 0.0021,0.33073 -0.229355,0.1819 -0.480836,0.50932 -0.558848,0.72761 -0.07801,0.21828 -0.151239,0.25778 -0.162728,0.0878 z m 11.16327,-1.57055 c 0.08792,-0.0879 0.316122,-0.0973 0.507118,-0.0209 0.211067,0.0845 0.148372,0.14715 -0.159852,0.15985 -0.278915,0.0115 -0.435185,-0.0511 -0.347266,-0.13896 z m -4.569575,-1.19636 c 0,-0.0728 0.357188,-0.4745 0.79375,-0.89275 0.436563,-0.41825 0.79375,-0.70093 0.79375,-0.62817 0,0.0728 -0.357187,0.4745 -0.79375,0.89275 -0.436562,0.41826 -0.79375,0.70093 -0.79375,0.62817 z"
         style="fill:#000000;fill-opacity:1;stroke-width:0.264583" />
    </g>
  </g>
</svg>
