<?xml version="1.0" encoding="UTF-8" standalone="no"?>
<svg
   xmlns:dc="http://purl.org/dc/elements/1.1/"
   xmlns:cc="http://creativecommons.org/ns#"
   xmlns:rdf="http://www.w3.org/1999/02/22-rdf-syntax-ns#"
   xmlns:svg="http://www.w3.org/2000/svg"
   xmlns="http://www.w3.org/2000/svg"
   xmlns:sodipodi="http://sodipodi.sourceforge.net/DTD/sodipodi-0.dtd"
   xmlns:inkscape="http://www.inkscape.org/namespaces/inkscape"
   inkscape:version="1.0 (4035a4fb49, 2020-05-01)"
   sodipodi:docname="quopay.svg"
   id="svg66"
   version="1.1"
   viewBox="0 0 40.379391 40.379391"
   height="40.379391mm"
   width="40.379391mm">
  <defs
     id="defs60" />
  <sodipodi:namedview
     inkscape:window-maximized="1"
     inkscape:window-y="-8"
     inkscape:window-x="-8"
     inkscape:window-height="684"
     inkscape:window-width="1024"
     showgrid="false"
     inkscape:document-rotation="0"
     inkscape:current-layer="layer1"
     inkscape:document-units="mm"
     inkscape:cy="108.83334"
     inkscape:cx="349.33782"
     inkscape:zoom="0.71"
     inkscape:pageshadow="2"
     inkscape:pageopacity="0.0"
     borderopacity="1.0"
     bordercolor="#666666"
     pagecolor="#ffffff"
     id="base" />
  <metadata
     id="metadata63">
    <rdf:RDF>
      <cc:Work
         rdf:about="">
        <dc:format>image/svg+xml</dc:format>
        <dc:type
           rdf:resource="http://purl.org/dc/dcmitype/StillImage" />
        <dc:title></dc:title>
      </cc:Work>
    </rdf:RDF>
  </metadata>
  <g
     transform="translate(72.920299,-119.37118)"
     id="layer1"
     inkscape:groupmode="layer"
     inkscape:label="レイヤー 1">
    <path
       id="path180"
       d="m -44.379041,155.08719 0.908826,-1.96704 v -0.37975 -0.37976 l -1.719792,-3.61079 -1.719792,-3.61079 v -0.12783 -0.12784 h 0.551284 0.55128 l 1.497505,3.175 1.497507,3.175 h 0.135758 0.135757 l 1.497508,-3.175 1.497504,-3.175 h 0.551281 0.551283 v 0.1344 0.13439 l -2.816939,5.95102 -2.81694,5.95102 h -0.605427 -0.605428 z m -10.335966,-2.3608 -0.79375,-0.3672 -0.57016,-0.62904 -0.570161,-0.62905 -0.327741,-1.11155 -0.327742,-1.11155 0.33064,-1.18093 0.330639,-1.18093 0.699554,-0.65216 0.699554,-0.65218 1.01492,-0.32452 1.014918,-0.32451 1.162866,0.32558 1.162866,0.32558 0.302008,0.3639 0.302008,0.36389 h 0.263046 0.263043 l -0.138379,-0.52916 -0.13838,-0.52917 h 0.636688 0.636688 v 3.96875 3.96875 h -0.636688 -0.636688 l 0.13838,-0.52917 0.138379,-0.52916 h -0.173863 -0.173864 l -0.755497,0.55856 -0.755498,0.55856 -1.152018,0.10696 -1.152018,0.10695 z m 3.730625,-1.59883 0.899583,-0.89959 v -1.3452 -1.3452 l -0.772046,-0.86407 -0.772047,-0.86407 h -1.323304 -1.323304 l -0.683177,0.64181 -0.683177,0.64182 -0.242853,0.87954 -0.242854,0.87954 0.250997,0.90903 0.250997,0.90904 0.806309,0.67846 0.80631,0.67847 h 1.064491 1.064492 z m -14.44625,-4.39209 v -6.08541 h 2.945333 2.945332 l 0.874296,0.54034 0.874296,0.54034 0.307624,0.93212 0.307623,0.9321 -0.162553,0.86649 -0.162553,0.86648 -0.591261,0.55385 -0.591262,0.55386 -0.744829,0.28221 -0.744828,0.28221 h -1.967151 -1.96715 v 2.91041 2.91042 h -0.661459 -0.661458 z m 6.322411,-1.43007 0.556756,-0.50403 v -0.93412 -0.93413 l -0.575288,-0.61237 -0.575287,-0.61236 h -2.202838 -2.202837 v 2.14382 2.14381 l 2.221369,-0.0933 2.221368,-0.0933 z m 2.975689,-7.2856 -1.417524,-0.52536 -0.963726,-0.71059 -0.963725,-0.71059 -1.234271,-1.18522 -1.234271,-1.18523 -0.750104,0.52274 -0.750104,0.52274 -0.899378,0.30505 -0.899378,0.30505 h -1.291932 -1.291933 l -0.969448,-0.40506 -0.969448,-0.40506 -0.814771,-0.62146 -0.814771,-0.62145 -0.754291,-1.38589 -0.754292,-1.38588 -0.0072,-1.62249 -0.0072,-1.6225 0.450947,-1.05834 0.450948,-1.05833 0.846487,-0.88308 0.846486,-0.88308 0.967908,-0.49897 0.967908,-0.49897 1.064038,-0.17015 1.064038,-0.17015 1.336606,0.32065 1.336606,0.32065 1.045528,0.75737 1.045528,0.75738 0.696978,1.1893 0.696979,1.18931 0.154121,1.49329 0.154122,1.4933 -1.087452,-0.55478 -1.087452,-0.55478 h -0.407415 -0.407416 v -0.41001 -0.41002 l -0.39046,-0.75506 -0.39046,-0.75507 -0.949377,-0.58675 -0.949378,-0.58674 -1.314629,0.12632 -1.314631,0.12631 -0.677963,0.63333 -0.677963,0.63332 -0.371736,0.71446 -0.371736,0.71447 v 0.82003 0.82003 l 0.404753,0.7827 0.404754,0.78271 0.808901,-0.59741 0.808901,-0.59741 2.556658,0.002 2.556658,0.002 0.926042,0.4968 0.926041,0.49681 1.869186,1.76846 1.869186,1.76846 1.190912,0.57651 1.190912,0.57652 h 1.729066 1.729066 l 0.899378,-0.30112 0.899378,-0.30112 0.842243,-0.62492 0.842242,-0.62492 h 0.230333 0.230336 l 0.911797,0.94097 0.911799,0.94098 -0.661459,0.51647 -0.661458,0.51648 -1.686235,0.84387 -1.686233,0.84388 -2.282516,0.0858 -2.282516,0.0858 z m 14.815252,-3.02366 -0.889775,-0.322 -1.03238,-0.86673 -1.032381,-0.86674 -0.585255,-1.10624 -0.585253,-1.10625 -0.0061,-1.98437 -0.0061,-1.98438 0.745294,-1.26792 0.745297,-1.26793 1.045527,-0.75738 1.045528,-0.75737 1.336606,-0.32065 1.336606,-0.32065 1.064038,0.17015 1.064038,0.17015 0.967909,0.49897 0.967907,0.49897 0.846486,0.88308 0.846487,0.88308 0.450948,1.05833 0.450948,1.05834 -0.0072,1.6225 -0.0072,1.62249 -0.754293,1.38588 -0.75429,1.38589 -0.814771,0.62145 -0.814771,0.62146 -0.96945,0.40506 -0.969446,0.40506 -1.397561,-0.0201 -1.397561,-0.0201 z m 4.367335,-3.11549 0.831728,-0.49935 0.425042,-0.89571 0.425043,-0.89571 v -0.83305 -0.83305 l -0.371737,-0.71447 -0.371734,-0.71446 -0.677963,-0.63332 -0.677963,-0.63333 -1.31463,-0.12631 -1.314633,-0.12632 -0.949375,0.58674 -0.949378,0.58675 -0.373134,0.72156 -0.373134,0.72156 -0.05848,0.64196 -0.05848,0.64196 0.04115,0.76857 0.04115,0.76857 1.050171,0.99901 1.050173,0.999 0.735764,0.10416 0.735767,0.10417 0.661458,-0.11979 0.661458,-0.11979 z m -18.029645,1.225 -0.79375,-0.42656 -0.722908,-0.68973 -0.722907,-0.68972 -0.411183,-1.07948 -0.411183,-1.07948 0.07576,-3.30729 0.07576,-3.30729 h 1.322917 1.322916 l 0.132292,3.49947 0.132292,3.49948 0.596649,0.59555 0.596648,0.59556 h 1.055661 1.055661 l 0.596648,-0.59556 0.596649,-0.59555 0.132292,-3.49948 0.132292,-3.49947 h 1.322916 1.322917 l 0.07236,3.43958 0.07236,3.43958 -0.60153,1.17529 -0.601527,1.17529 -1.007102,0.80128 -1.007101,0.80128 -1.771024,0.0869 -1.771023,0.0869 z"
       style="fill:#000000;stroke-width:0.264583" />
  </g>
</svg>
