<?xml version="1.0" encoding="UTF-8" standalone="no"?>
<svg
   xmlns:dc="http://purl.org/dc/elements/1.1/"
   xmlns:cc="http://creativecommons.org/ns#"
   xmlns:rdf="http://www.w3.org/1999/02/22-rdf-syntax-ns#"
   xmlns:svg="http://www.w3.org/2000/svg"
   xmlns="http://www.w3.org/2000/svg"
   xmlns:sodipodi="http://sodipodi.sourceforge.net/DTD/sodipodi-0.dtd"
   xmlns:inkscape="http://www.inkscape.org/namespaces/inkscape"
   sodipodi:docname="6gram.svg"
   inkscape:version="1.0 (4035a4fb49, 2020-05-01)"
   id="svg8"
   version="1.1"
   viewBox="0 0 103.8 103.8"
   height="103.8mm"
   width="103.8mm">
  <defs
     id="defs2" />
  <sodipodi:namedview
     inkscape:window-maximized="1"
     inkscape:window-y="-8"
     inkscape:window-x="-8"
     inkscape:window-height="684"
     inkscape:window-width="1024"
     showgrid="false"
     inkscape:document-rotation="0"
     inkscape:current-layer="layer1"
     inkscape:document-units="mm"
     inkscape:cy="285.38354"
     inkscape:cx="835.57347"
     inkscape:zoom="0.35"
     inkscape:pageshadow="2"
     inkscape:pageopacity="0.0"
     borderopacity="1.0"
     bordercolor="#666666"
     pagecolor="#ffffff"
     id="base" />
  <metadata
     id="metadata5">
    <rdf:RDF>
      <cc:Work
         rdf:about="">
        <dc:format>image/svg+xml</dc:format>
        <dc:type
           rdf:resource="http://purl.org/dc/dcmitype/StillImage" />
        <dc:title></dc:title>
      </cc:Work>
    </rdf:RDF>
  </metadata>
  <g
     transform="translate(115.24548,-72.658938)"
     id="layer1"
     inkscape:groupmode="layer"
     inkscape:label="レイヤー 1">
    <path
       id="path58"
       d="m -76.421613,174.68841 -5.3662,-1.77052 -4.471834,-3.3949 -4.47183,-3.3949 -2.89835,-4.31238 -2.89835,-4.31239 -1.34989,-4.54557 -1.34989,-4.54557 v -6.38309 -6.38309 l 1.44216,-4.85626 1.44215,-4.85626 2.97466,-5.81487 2.97466,-5.81487 12.918344,-20.570427 12.91835,-20.570426 10.390194,-0.251974 10.3902,-0.251975 v 0.483649 0.483649 l -4.77316,7.370438 -4.77316,7.370439 -6.40642,10.01077 -6.406424,10.010777 v 0.49803 0.49803 h 6.509394 6.50939 l 6.23533,2.99654 6.23533,2.99654 3.88119,4.22534 3.88118,4.22534 2.30132,5.02674 2.30132,5.02674 0.40947,6.38048 0.40948,6.38048 -1.53606,5.28386 -1.53606,5.28386 -2.21245,3.77525 -2.21244,3.77525 -3.24829,2.85204 -3.2483,2.85204 -5.85574,2.75141 -5.85575,2.7514 -8.94366,0.24546 -8.943664,0.24545 z m 19.928384,-13.92507 3.32514,-1.389 2.54142,-2.41206 2.54141,-2.41206 1.70683,-3.31824 1.70682,-3.31825 -0.0196,-4.73105 -0.0196,-4.73105 -1.65988,-3.57747 -1.65988,-3.57746 -3.0159,-2.85184 -3.0159,-2.85183 -2.51773,-0.94922 -2.51773,-0.94923 h -4.35539 -4.355394 l -2.51772,0.94923 -2.51774,0.94922 -3.0159,2.85183 -3.0159,2.85184 -1.65988,3.57746 -1.65988,3.57747 -0.0196,4.73105 -0.0196,4.73105 1.70682,3.31825 1.70683,3.31824 2.54141,2.41017 2.54142,2.41017 3.13028,1.35588 3.13028,1.35588 3.82979,0.035 3.829784,0.035 3.32515,-1.389 z"
       style="fill:#000000;stroke-width:0.894366" />
  </g>
</svg>
