<?xml version="1.0" encoding="UTF-8" standalone="no"?>
<svg
   xmlns:dc="http://purl.org/dc/elements/1.1/"
   xmlns:cc="http://creativecommons.org/ns#"
   xmlns:rdf="http://www.w3.org/1999/02/22-rdf-syntax-ns#"
   xmlns:svg="http://www.w3.org/2000/svg"
   xmlns="http://www.w3.org/2000/svg"
   xmlns:sodipodi="http://sodipodi.sourceforge.net/DTD/sodipodi-0.dtd"
   xmlns:inkscape="http://www.inkscape.org/namespaces/inkscape"
   sodipodi:docname="Amazon欲しい物リスト.svg"
   inkscape:version="1.0 (4035a4fb49, 2020-05-01)"
   id="svg8"
   version="1.1"
   viewBox="0 0 26.965595 30.398645"
   height="30.398645mm"
   width="26.965595mm">
  <defs
     id="defs2" />
  <sodipodi:namedview
     fit-margin-bottom="0"
     fit-margin-right="0"
     fit-margin-left="0"
     fit-margin-top="0"
     inkscape:window-maximized="1"
     inkscape:window-y="-8"
     inkscape:window-x="-8"
     inkscape:window-height="684"
     inkscape:window-width="1024"
     showguides="false"
     showgrid="false"
     inkscape:document-rotation="0"
     inkscape:current-layer="g282"
     inkscape:document-units="mm"
     inkscape:cy="57.446259"
     inkscape:cx="50.958605"
     inkscape:zoom="3.9341117"
     inkscape:pageshadow="2"
     inkscape:pageopacity="0.0"
     borderopacity="1.0"
     bordercolor="#666666"
     pagecolor="#ffffff"
     id="base" />
  <metadata
     id="metadata5">
    <rdf:RDF>
      <cc:Work
         rdf:about="">
        <dc:format>image/svg+xml</dc:format>
        <dc:type
           rdf:resource="http://purl.org/dc/dcmitype/StillImage" />
        <dc:title></dc:title>
      </cc:Work>
    </rdf:RDF>
  </metadata>
  <g
     transform="translate(-93.751301,-57.662251)"
     id="layer1"
     inkscape:groupmode="layer"
     inkscape:label="レイヤー 1">
    <path
       d=""
       id="path60"
       style="fill:#000000;stroke-width:0.264583" />
    <path
       d=""
       id="path58"
       style="fill:#000000;stroke-width:0.264583" />
    <path
       d=""
       id="path56"
       style="fill:#000000;stroke-width:0.264583" />
    <path
       d=""
       id="path54"
       style="fill:#000000;stroke-width:0.264583" />
    <path
       d=""
       id="path52"
       style="fill:#000000;stroke-width:0.264583" />
    <g
       style="fill:#000000"
       transform="translate(4.5995575,-6.570795)"
       id="g282">
      <g
         style="fill:#000000"
         transform="translate(5.0573599,52.921659)"
         id="g314">
        <path
           id="path330"
           d="m 90.23312,41.337152 c -0.709738,-0.20695 -1.790702,-0.633236 -2.402142,-0.947299 -1.408658,-0.72355 -3.72741,-2.641873 -3.72741,-3.083719 0,-0.277361 0.121794,-0.254336 0.698984,0.132149 1.308188,0.875958 3.850967,1.969448 5.287935,2.274009 2.867866,0.607837 6.52707,0.207396 8.827075,-0.965978 1.027787,-0.524339 1.316408,-0.553221 1.316408,-0.131732 0,0.704172 -2.834233,2.295485 -4.996307,2.805238 -1.750162,0.412635 -3.399327,0.385394 -5.004543,-0.08267 z m 10.21592,-1.17908 c 0,-0.04427 0.14789,-0.499681 0.32866,-1.012017 0.4632,-1.312851 0.33165,-1.48716 -1.128432,-1.495191 -1.087314,-0.006 -1.195598,-0.04312 -0.862539,-0.29584 0.542414,-0.411573 1.963451,-0.59601 2.632421,-0.341666 0.50484,0.191939 0.55241,0.295163 0.42132,0.914269 -0.17207,0.812701 -0.96041,2.31094 -1.21596,2.31094 -0.0965,0 -0.17547,-0.03622 -0.17547,-0.0805 z M 89.412363,36.700889 c -1.607983,-0.573479 -2.297787,-1.702867 -2.297787,-3.762073 0,-2.982569 1.830848,-4.511659 5.849178,-4.885123 l 1.463269,-0.135997 v -0.936939 c 0,-1.189133 -0.550559,-1.797228 -1.627179,-1.797228 -1.051272,0 -1.579024,0.330041 -1.950884,1.220028 l -0.315569,0.755262 -1.333031,-0.148098 c -1.714952,-0.190527 -1.927371,-0.392738 -1.549532,-1.475063 0.354053,-1.014192 1.221171,-1.957901 2.36722,-2.576314 0.717696,-0.387272 1.216767,-0.464215 3.011007,-0.464215 1.89145,0 2.262191,0.06383 3.075402,0.529488 1.689192,0.967259 1.855664,1.474569 1.97879,6.030207 0.101155,3.742758 0.138954,4.031733 0.63707,4.870421 l 0.529535,0.89159 -1.067215,0.98175 c -0.586968,0.539964 -1.208307,0.985595 -1.380754,0.99029 -0.172447,0.0047 -0.672083,-0.341567 -1.110301,-0.769476 l -0.796762,-0.778016 -0.825346,0.652539 c -1.35667,1.072617 -3.076614,1.370643 -4.657111,0.806967 z m 4.102556,-2.968249 c 0.63378,-0.676569 0.912104,-1.518376 0.912104,-2.758711 v -1.0639 l -0.914056,0.139564 c -1.616928,0.246883 -2.450268,0.850319 -2.650853,1.919532 -0.250406,1.334777 0.358559,2.247427 1.499598,2.247427 0.448127,0 0.862966,-0.174075 1.153207,-0.483912 z m 11.165191,-8.685879 c -0.21614,-0.289213 -0.674,-0.582046 -1.01747,-0.65074 l -0.62449,-0.124898 0.51704,-0.406706 c 0.28438,-0.223688 0.58159,-0.70059 0.66049,-1.059783 l 0.14344,-0.653077 0.49995,0.539464 c 0.27498,0.296705 0.76338,0.605579 1.08535,0.686385 l 0.58538,0.146922 -0.50629,0.381892 c -0.27845,0.21004 -0.60621,0.670901 -0.72835,1.024137 l -0.22207,0.642246 z m 0.31661,-1.506066 c -0.46792,-0.342882 -0.83714,0.222167 -0.44999,0.688656 0.22615,0.272497 0.29609,0.264895 0.53208,-0.05784 0.2247,-0.307306 0.21051,-0.41641 -0.0821,-0.630816 z m -4.30043,-0.150486 c -0.979835,-2.369893 -3.192566,-3.967981 -5.785573,-4.178482 l -1.344418,-0.109139 1.07268,-0.49698 c 2.160942,-1.001179 3.930428,-3.495711 4.262825,-6.009514 l 0.169875,-1.284707 0.502228,0.967824 c 1.240083,2.389705 3.349813,4.089653 5.632973,4.538836 l 1.26897,0.249654 -1.05401,0.488328 c -2.3502,1.088863 -3.82776,3.137275 -4.07986,5.656094 l -0.14019,1.400721 z m 0.37434,-4.401508 c 0.14638,-0.272481 0.56083,-0.674628 0.921,-0.893658 l 0.65485,-0.398238 -0.99529,-0.440264 c -0.60585,-0.267997 -1.14095,-0.696212 -1.36756,-1.094397 -0.469741,-0.825401 -0.607875,-0.823036 -0.775136,0.01327 -0.07371,0.368568 -0.509946,1.046044 -0.969406,1.505504 -0.575773,0.575773 -0.726279,0.83563 -0.484307,0.836184 0.578899,0.0013 1.74947,0.825207 2.137999,1.504782 l 0.36379,0.636321 0.12396,-0.587042 c 0.0682,-0.322872 0.24372,-0.80998 0.3901,-1.082462 z m 6.69005,3.237588 c -10e-4,-0.739611 -0.85743,-1.791109 -1.77504,-2.18082 l -0.90962,-0.386317 0.7897,-0.14815 c 1.00125,-0.187834 1.56909,-0.661935 2.09296,-1.747456 0.35536,-0.736354 0.43454,-0.798321 0.54964,-0.430144 0.36295,1.160918 0.93524,1.963326 1.70893,2.396053 l 0.84273,0.47134 -0.8808,0.237173 c -0.88831,0.239198 -1.98755,1.267115 -1.98755,1.858591 0,0.168358 -0.0968,0.306106 -0.21507,0.306106 -0.11829,0 -0.21544,-0.169369 -0.21588,-0.376376 z m 1.3195,-2.034681 c 0.1823,-0.06077 0.11766,-0.238952 -0.20301,-0.559624 -0.25876,-0.258759 -0.47047,-0.576785 -0.47047,-0.706725 0,-0.12994 -0.31454,0.0359 -0.69898,0.368538 l -0.69899,0.604792 0.53768,0.551502 c 0.50341,0.516349 0.5609,0.528529 0.90199,0.191087 0.20037,-0.198228 0.48467,-0.400534 0.63178,-0.44957 z"
           style="fill:#000000;fill-opacity:1;stroke-width:0.215072" />
        <path
           id="path328"
           d="m 90.555728,41.418987 c -1.844229,-0.505997 -4.085565,-1.710291 -5.323032,-2.860119 -1.208852,-1.123242 -1.560186,-1.879987 -0.53768,-1.158122 3.981672,2.810967 9.724188,3.405676 14.113976,1.461677 1.486568,-0.658323 1.424978,-0.648285 1.424978,-0.232205 0,0.45418 -2.318276,1.908174 -3.930921,2.465424 -1.756831,0.607073 -4.210146,0.745097 -5.747321,0.323345 z m 9.983902,-1.503028 c 0.37208,-0.935255 0.56995,-1.844395 0.4453,-2.046074 -0.0721,-0.1167 -0.67708,-0.212182 -1.344351,-0.212182 -1.717996,0 -1.153104,-0.488254 0.701521,-0.606348 1.07391,-0.06838 1.40288,-0.02095 1.42118,0.204916 0.0878,1.084441 -0.32794,2.221374 -1.01772,2.782888 -0.34048,0.277172 -0.36046,0.265222 -0.20593,-0.1232 z M 89.798476,36.81264 c -1.724277,-0.413521 -2.686902,-1.787547 -2.679177,-3.824184 0.01138,-2.999776 1.795324,-4.521393 5.758766,-4.91194 l 1.548958,-0.152631 v -0.940034 c 0,-1.192407 -0.54945,-1.800322 -1.627179,-1.800322 -1.048426,0 -1.5789,0.329744 -1.946733,1.210093 l -0.311417,0.745326 -1.337183,-0.143516 c -0.735451,-0.07893 -1.421897,-0.221327 -1.525437,-0.316429 -0.341785,-0.313932 0.09054,-1.706763 0.769947,-2.480567 1.187674,-1.352687 2.130459,-1.703307 4.580034,-1.703307 1.89145,0 2.262191,0.06383 3.075402,0.529488 1.689192,0.967259 1.855664,1.474569 1.97879,6.030207 0.1013,3.748126 0.138384,4.03078 0.639556,4.87474 l 0.532021,0.89591 -0.962164,0.870657 c -1.39391,1.261337 -1.662934,1.301611 -2.511249,0.375939 -0.393228,-0.429088 -0.767725,-0.780158 -0.832214,-0.780158 -0.06449,0 -0.474512,0.285467 -0.911161,0.634369 -1.13058,0.903387 -2.753641,1.242716 -4.23956,0.886359 z m 3.703893,-3.08 c 0.242417,-0.266152 0.549635,-0.695311 0.682706,-0.953685 0.293679,-0.570214 0.323682,-2.863843 0.03746,-2.863843 -0.112467,0 -0.690898,0.104317 -1.285401,0.231816 -1.505032,0.322771 -2.253632,1.210588 -2.108259,2.500334 0.05727,0.50811 0.224658,1.069065 0.371969,1.246564 0.420008,0.506079 1.780551,0.410793 2.301523,-0.161186 z m 11.356671,-8.596376 c -0.0823,-0.20343 -0.47451,-0.487366 -0.87164,-0.630968 l -0.72204,-0.261095 0.52749,-0.527488 c 0.29011,-0.290118 0.52748,-0.716458 0.52748,-0.947422 0,-0.386876 0.0521,-0.376101 0.66172,0.136864 0.36394,0.306239 0.81634,0.556798 1.00532,0.556798 0.28183,0 0.26185,0.08701 -0.11112,0.484022 -0.2501,0.266213 -0.54762,0.725929 -0.66117,1.021592 -0.17638,0.459269 -0.22824,0.483695 -0.35604,0.167697 z m 0.14487,-1.58976 c -0.27527,-0.201281 -0.39874,-0.182111 -0.60003,0.09316 -0.20128,0.275269 -0.18211,0.398747 0.0932,0.600028 0.27527,0.201282 0.39875,0.182111 0.60003,-0.09316 0.20128,-0.275269 0.18211,-0.398746 -0.0932,-0.600028 z m -4.63585,-0.833337 c -1.057492,-2.03254 -2.91161,-3.297692 -5.127307,-3.498605 l -1.260592,-0.114306 1.040135,-0.594046 c 1.945373,-1.111048 3.486346,-3.330159 3.963963,-5.708387 l 0.236687,-1.178554 0.367243,0.813883 c 0.930861,2.062973 3.756731,4.207625 5.938081,4.506612 l 1.03379,0.141696 -0.80292,0.277976 c -1.87568,0.649378 -3.76945,2.610398 -4.22274,4.372701 -0.10794,0.419646 -0.27532,1.079594 -0.37197,1.466552 l -0.17571,0.70356 z m 1.19574,-4.203184 c 0.3514,-0.351395 0.78234,-0.638901 0.95766,-0.638901 0.17531,0 0.25894,-0.09678 0.18583,-0.215072 -0.0731,-0.11829 -0.33856,-0.215072 -0.58991,-0.215072 -0.26676,0 -0.88816,-0.447329 -1.49281,-1.074647 -0.836917,-0.868288 -1.03582,-0.990134 -1.03582,-0.634535 0,0.667384 -0.56011,1.611401 -1.299352,2.189945 l -0.662662,0.518611 0.857621,0.256949 c 0.812493,0.243429 1.938713,1.277852 1.986913,1.824954 0.0122,0.138786 0.11929,-0.113437 0.23793,-0.560496 0.11863,-0.447059 0.5032,-1.10034 0.8546,-1.451736 z m 6.19769,3.544322 c 0,-0.707482 -0.69715,-1.646206 -1.46603,-1.97403 l -0.79223,-0.337785 0.61456,-0.170533 c 0.72226,-0.20042 1.34941,-0.719853 1.85102,-1.533103 l 0.36082,-0.584981 0.38181,0.865389 c 0.20999,0.475963 0.70029,1.074161 1.08955,1.329328 l 0.70775,0.463939 -0.83737,0.374904 c -0.49694,0.222486 -1.02031,0.684949 -1.28734,1.137531 -0.49619,0.840978 -0.62254,0.928121 -0.62254,0.429341 z m 1.45381,-1.817431 c 0.26477,0 0.20998,-0.143263 -0.23068,-0.603217 -0.31786,-0.331769 -0.57792,-0.721636 -0.57792,-0.866371 0,-0.144734 -0.31454,0.04985 -0.69898,0.432403 l -0.69899,0.695557 0.48392,0.483646 c 0.26615,0.266005 0.48391,0.597879 0.48391,0.737498 0,0.139618 0.20059,-0.0012 0.44575,-0.312832 0.24517,-0.311677 0.60201,-0.566684 0.79299,-0.566684 z"
           style="fill:#000000;fill-opacity:1;stroke-width:0.215072" />
        <path
           id="path326"
           d="M 90.770799,41.407139 C 88.80835,40.982163 86.89167,39.97759 85.389094,38.586468 c -1.518605,-1.40596 -1.667884,-1.817479 -0.332325,-0.916121 3.982904,2.68803 9.501876,3.150015 13.858987,1.160116 1.323414,-0.604404 1.318214,-0.603213 1.318214,-0.302155 0,0.739912 -3.096664,2.428911 -5.315108,2.898994 -1.766479,0.374313 -2.339312,0.371528 -4.148063,-0.02016 z m 9.736821,-1.383644 c 0.8573,-2.151692 0.72494,-2.479638 -0.976238,-2.41871 -1.076533,0.03856 -1.102122,0.02687 -0.587848,-0.268371 0.295724,-0.169776 1.045788,-0.312115 1.666806,-0.316304 1.11554,-0.0075 1.12913,2.15e-4 1.12913,0.644501 0,0.820614 -0.4591,1.937666 -0.96948,2.358884 -0.34747,0.286762 -0.37662,0.286762 -0.26237,0 z M 89.703297,36.766327 c -1.852371,-0.547272 -2.712775,-1.97963 -2.549022,-4.243484 0.18731,-2.58954 1.801958,-3.892688 5.437414,-4.388421 l 1.835334,-0.250268 V 27.01184 c 0,-1.265871 -0.471237,-1.828311 -1.531838,-1.828311 -1.139255,0 -1.665736,0.309389 -2.036502,1.196759 l -0.305846,0.731992 -1.342755,-0.131783 c -0.738515,-0.07248 -1.427468,-0.208873 -1.531008,-0.303094 -0.416033,-0.378594 0.120238,-1.805064 1.014968,-2.699794 2.009487,-2.009487 6.437602,-2.144649 8.246352,-0.251709 0.947893,0.992014 1.140285,1.959352 1.141653,5.740173 0.0012,3.193562 0.02195,3.350137 0.56905,4.283682 l 0.56785,0.968964 -1.08954,1.039348 c -0.599248,0.571642 -1.231884,1.039348 -1.405859,1.039348 -0.173975,0 -0.613734,-0.338738 -0.977243,-0.752751 -0.740232,-0.843078 -0.928083,-0.901511 -1.332328,-0.414425 -0.790765,0.952814 -3.29048,1.555676 -4.71068,1.136088 z m 3.724153,-2.951082 c 0.679395,-0.597599 0.999573,-1.464548 0.999573,-2.706556 0,-1.338865 -0.02794,-1.355202 -1.628339,-0.952216 -1.210791,0.304879 -2.027885,1.21655 -2.027885,2.262608 0,1.762769 1.402135,2.49964 2.656651,1.396164 z m 11.1379,-9.079837 c -0.27926,-0.226692 -0.64922,-0.412167 -0.82213,-0.412167 -0.24257,0 -0.21256,-0.129456 0.13136,-0.566684 0.24516,-0.311677 0.44575,-0.698806 0.44575,-0.860288 0,-0.417799 0.30039,-0.363312 0.75276,0.13654 0.2141,0.236579 0.51944,0.430144 0.67855,0.430144 0.3918,0 0.36463,0.314934 -0.0574,0.665183 -0.19066,0.158239 -0.40842,0.452347 -0.48391,0.653573 -0.12686,0.338177 -0.17567,0.334673 -0.64498,-0.0463 z m 0.48124,-1.210891 c -0.29838,-0.218178 -0.41186,-0.20056 -0.63003,0.09782 -0.21759,0.297572 -0.20161,0.412441 0.0877,0.63003 0.28917,0.217507 0.40424,0.199643 0.63003,-0.09782 0.2303,-0.303393 0.21572,-0.408183 -0.0877,-0.630029 z m -4.45657,-1.232883 c -0.887847,-2.040056 -2.261083,-3.06925 -4.388161,-3.288784 l -1.181284,-0.121919 0.827276,-0.402393 c 1.792477,-0.871874 3.304209,-3.04106 3.308654,-4.747592 0.0025,-0.976618 0.306016,-1.047914 0.620502,-0.145778 0.586033,1.681092 2.552893,3.213316 4.542023,3.538316 l 0.96652,0.157918 -1.07406,0.478296 c -1.89104,0.842118 -2.80429,2.070293 -3.08557,4.149622 l -0.16653,1.231025 z m 1.12188,-3.811026 c 0.33834,-0.276095 0.7975,-0.617277 1.02035,-0.758182 0.38192,-0.241482 0.37659,-0.256919 -0.0929,-0.26884 -0.95423,-0.02423 -2.27527,-0.986735 -2.674051,-1.948296 l -0.222989,-0.53768 -0.148356,0.645216 c -0.248191,1.079411 -0.862249,2.061475 -1.524598,2.438292 -0.788489,0.44858 -0.802054,0.68002 -0.03992,0.681056 0.851696,0.0012 1.870221,0.697709 2.206174,1.508761 l 0.29001,0.700149 0.28553,-0.979243 c 0.16829,-0.57714 0.53814,-1.185374 0.90071,-1.481233 z m 6.04959,3.170735 c 0,-0.424942 -1.04755,-1.629541 -1.41709,-1.629541 -0.51659,0 -0.32696,-0.307334 0.39811,-0.645216 0.38076,-0.177435 0.89648,-0.629956 1.14603,-1.005603 l 0.45374,-0.682994 0.3447,0.722844 c 0.18959,0.397564 0.63734,0.939197 0.995,1.203628 l 0.65029,0.480784 -0.80148,0.359262 c -0.44081,0.197594 -0.93881,0.61659 -1.10666,0.931102 -0.3315,0.621146 -0.66264,0.753943 -0.66264,0.265734 z m 1.41357,-1.414469 c 0.16885,0 0.307,-0.09678 0.307,-0.215072 0,-0.11829 -0.0982,-0.215072 -0.21823,-0.215072 -0.12003,0 -0.40128,-0.300989 -0.625,-0.668864 -0.40103,-0.659448 -0.41025,-0.662331 -0.65513,-0.204777 -0.1366,0.255248 -0.50863,0.563991 -0.82674,0.686096 l -0.57837,0.22201 0.57668,0.304506 c 0.31717,0.167478 0.63931,0.501854 0.71587,0.743057 0.13457,0.424009 0.15341,0.420472 0.56806,-0.106667 0.23587,-0.29987 0.56701,-0.545217 0.73586,-0.545217 z"
           style="fill:#000000;fill-opacity:1;stroke-width:0.215072" />
        <path
           id="path324"
           d="m 90.132857,41.184746 c -1.543727,-0.414872 -3.547276,-1.550432 -4.931744,-2.795189 -1.261992,-1.134638 -1.327156,-1.450805 -0.131835,-0.639637 2.403781,1.63125 4.964133,2.368886 8.174849,2.355171 2.098749,-0.009 2.584281,-0.08768 4.30144,-0.697328 2.849913,-1.011814 2.907093,-1.018759 2.043183,-0.248109 -0.897477,0.800595 -2.970406,1.82911 -4.307419,2.137194 -1.355866,0.312429 -3.763905,0.259996 -5.148474,-0.112102 z m 10.671023,-1.591395 c 0.0921,-0.295724 0.17092,-0.876418 0.17515,-1.290432 l 0.008,-0.752752 h -1.109143 c -0.610026,0 -1.070933,-0.06142 -1.024236,-0.136486 0.140436,-0.225762 1.998199,-0.438954 2.483329,-0.284979 0.37952,0.120455 0.43246,0.262923 0.33069,0.890023 -0.0666,0.410637 -0.32586,1.053894 -0.57605,1.429459 -0.38987,0.585249 -0.43096,0.605997 -0.28743,0.145167 z M 89.853174,36.783066 c -1.913385,-0.461721 -2.84494,-1.898475 -2.700606,-4.165198 0.168694,-2.649291 1.782368,-3.984809 5.412922,-4.479874 l 1.861533,-0.25384 V 27.01184 c 0,-0.479772 -0.142386,-1.075597 -0.316412,-1.324055 -0.679592,-0.970254 -2.663665,-0.653816 -3.173649,0.50616 -0.358535,0.815502 -0.509994,0.892347 -1.537763,0.78021 -2.076345,-0.226544 -2.226101,-0.434107 -1.433766,-1.987212 0.568413,-1.114182 1.527487,-1.877328 2.854601,-2.271439 2.892279,-0.858914 6.044346,0.07288 6.893692,2.037881 0.127824,0.295724 0.287453,2.328154 0.354731,4.516511 0.115985,3.772597 0.14949,4.016919 0.646402,4.713653 l 0.524076,0.734824 -1.130525,1.03952 c -0.62179,0.571739 -1.261408,1.039522 -1.421374,1.039522 -0.159966,0 -0.622172,-0.38708 -1.027126,-0.860176 l -0.736279,-0.860176 -0.409608,0.461257 c -0.883951,0.995409 -3.167189,1.605181 -4.660849,1.244746 z M 93.11827,34.11849 c 0.819795,-0.423933 1.308753,-1.544458 1.308753,-2.999218 0,-1.34036 -0.03214,-1.36019 -1.61304,-0.995374 -1.848416,0.426548 -2.712678,2.582425 -1.51528,3.779821 0.608442,0.608443 0.974693,0.651672 1.819567,0.214771 z m 11.46803,-9.366119 c -0.26774,-0.217361 -0.60648,-0.437088 -0.75276,-0.488281 -0.19751,-0.06912 -0.17751,-0.198023 0.0777,-0.500875 0.18902,-0.224289 0.41805,-0.601363 0.50895,-0.837942 0.1075,-0.279794 0.20089,-0.334594 0.26719,-0.156779 0.0561,0.150351 0.39238,0.423562 0.74737,0.607135 0.55819,0.288655 0.60028,0.367987 0.31134,0.586923 -0.18376,0.139234 -0.41036,0.462824 -0.50357,0.719088 -0.16583,0.455931 -0.17992,0.45745 -0.65625,0.07073 z m 0.73573,-0.606164 c 0.19968,-0.319749 0.1659,-0.441423 -0.18306,-0.659354 -0.35952,-0.224521 -0.47477,-0.204814 -0.7209,0.123266 -0.25116,0.33479 -0.24248,0.428876 0.0608,0.659354 0.46584,0.353987 0.55304,0.341239 0.84313,-0.123266 z m -4.73841,-2.265115 c -0.0821,-0.327202 -0.57743,-1.023028 -1.100683,-1.546279 -0.723732,-0.723733 -1.262127,-1.037766 -2.250146,-1.31246 l -1.29878,-0.361093 0.603876,-0.367239 c 1.382183,-0.840556 2.821328,-3.170356 2.842331,-4.601387 0.0065,-0.441391 0.0088,-0.441537 0.240446,-0.01545 1.049806,1.93055 2.309806,3.015099 4.002056,3.444778 l 1.00474,0.255116 -0.76203,0.361609 c -1.33222,0.632179 -2.35016,1.879288 -2.762,3.383827 -0.33326,1.217471 -0.3855,1.293707 -0.51981,0.758583 z m 0.25241,-1.681636 c 0.0669,-0.941513 0.63294,-1.696029 1.65171,-2.2017 l 0.82805,-0.411005 -1.04977,-0.266546 c -1.07145,-0.272054 -2.24713,-1.279633 -2.24713,-1.925844 0,-0.175568 -0.09678,-0.319215 -0.215068,-0.319215 -0.118289,0 -0.215072,0.163008 -0.215072,0.362241 0,0.770814 -0.878328,2.160603 -1.616814,2.558305 -0.948693,0.510904 -0.949826,0.735678 -0.0037,0.735678 0.86532,0 2.190284,1.022445 2.398134,1.850588 0.17267,0.68795 0.40717,0.496966 0.46967,-0.382502 z m 7.48913,0.799979 c 0.1258,-0.327817 0.91115,-0.876512 1.03944,-0.726219 0.0334,0.03916 -0.2165,0.296057 -0.5554,0.57089 -0.4351,0.352845 -0.57735,0.398493 -0.48404,0.155329 z m -0.77875,-0.08466 c 0,-0.139744 -0.29,-0.430438 -0.64444,-0.645988 -0.35444,-0.215551 -0.58553,-0.450827 -0.51352,-0.522837 0.072,-0.07201 0.4311,0.149601 0.79797,0.49247 0.36686,0.342868 0.59795,0.69248 0.51351,0.776915 -0.0844,0.08443 -0.15352,0.03918 -0.15352,-0.10056 z m 1.56375,-1.269348 c -0.34786,-0.325297 -0.6837,-0.736622 -0.74632,-0.914056 -0.0883,-0.250277 -0.22033,-0.190001 -0.58878,0.26884 -0.26122,0.325296 -0.58889,0.58837 -0.72817,0.584608 -0.15592,-0.0042 -0.12732,-0.107519 0.0744,-0.26884 0.18021,-0.1441 0.53192,-0.526924 0.78156,-0.850719 l 0.4539,-0.588718 0.26909,0.649637 c 0.14799,0.3573 0.57055,0.887302 0.93901,1.177781 0.36846,0.29048 0.55919,0.529218 0.42384,0.53053 -0.13535,0.0013 -0.53071,-0.263767 -0.87856,-0.589063 z"
           style="fill:#000000;fill-opacity:1;stroke-width:0.215072" />
        <path
           id="path322"
           d="m 90.003131,36.812612 c -2.002402,-0.485484 -2.9938,-1.945252 -2.850416,-4.197052 0.167422,-2.629315 1.80522,-3.982635 5.40226,-4.463914 l 1.872048,-0.250478 V 26.89829 c 0,-1.198726 -0.525441,-1.80079 -1.571607,-1.80079 -1.029857,0 -1.366896,0.194795 -1.958473,1.131913 -0.514002,0.814231 -0.577716,0.846926 -1.46092,0.749681 -2.126414,-0.234129 -2.267476,-0.430126 -1.455317,-2.022088 1.377482,-2.700088 6.452398,-3.446558 8.887896,-1.307321 0.941164,0.826678 1.081693,1.482502 1.204291,5.620211 0.111997,3.779942 0.144167,4.015676 0.643576,4.715916 l 0.525686,0.737082 -1.158094,1.037262 c -0.636952,0.570493 -1.280275,1.037259 -1.429607,1.037259 -0.149332,0 -0.576143,-0.37907 -0.948467,-0.842378 l -0.676953,-0.842377 -0.937919,0.715929 c -0.515855,0.393763 -1.232002,0.772831 -1.591437,0.842379 -1.39375,0.269672 -1.859493,0.296098 -2.496547,0.141644 z M 93.11827,34.11849 c 0.82647,-0.427385 1.308753,-1.543387 1.308753,-3.02845 v -1.233395 l -0.985558,0.135087 c -1.829337,0.250737 -2.670666,1.079784 -2.670666,2.631676 0,0.512091 0.168612,0.92102 0.527904,1.280311 0.608442,0.608443 0.974693,0.651672 1.819567,0.214771 z m 10.55685,-9.899085 c 0,-0.07107 0.20551,-0.342935 0.45668,-0.604141 l 0.45669,-0.474919 -0.24277,0.471934 c -0.24024,0.467009 -0.6706,0.856637 -0.6706,0.607126 z m 1.64923,-0.09328 c 0.19674,-0.222302 0.12674,-0.398455 -0.32261,-0.811838 l -0.57387,-0.527934 0.69898,0.486281 c 0.38444,0.267454 0.69899,0.50462 0.69899,0.527036 0,0.02242 -0.16937,0.168916 -0.37638,0.325557 -0.30916,0.233942 -0.3315,0.234102 -0.12511,9.03e-4 z"
           style="fill:#000000;fill-opacity:1;stroke-width:0.215072" />
        <path
           id="path320"
           d="m 88.832965,36.313503 c -1.0714,-0.729188 -1.551841,-1.514674 -1.668398,-2.727708 -0.198499,-2.065816 0.692386,-3.799006 2.409041,-4.686723 0.361387,-0.18688 1.625441,-0.49896 2.809009,-0.69351 l 2.151942,-0.353727 -0.07156,-0.957777 c -0.09333,-1.249221 -0.63143,-1.808289 -1.740461,-1.808289 -0.913373,0 -1.572351,0.449109 -2.015431,1.373565 -0.226907,0.473426 -0.38371,0.541842 -1.121638,0.489391 -2.213459,-0.157331 -2.414746,-0.404026 -1.612592,-1.976377 1.191784,-2.336089 5.14295,-3.289065 7.900894,-1.905604 1.909584,0.9579 2.196942,1.823116 2.204343,6.637139 0.005,3.258487 0.01872,3.357459 0.57953,4.182761 l 0.574399,0.845306 -1.153039,1.032733 c -0.634171,0.568003 -1.27522,1.032732 -1.424552,1.032732 -0.149332,0 -0.58021,-0.384131 -0.957505,-0.853625 l -0.685991,-0.853622 -0.668343,0.563607 c -0.99895,0.842404 -1.901246,1.14364 -3.425566,1.14364 -1.069873,0 -1.530075,-0.106856 -2.084084,-0.483912 z m 4.33125,-2.218772 c 0.789158,-0.408089 1.193925,-1.311309 1.294755,-2.889187 l 0.07559,-1.182896 -0.887279,0.01658 c -1.868695,0.03493 -2.876481,0.933019 -2.876481,2.563377 0,0.534176 0.163199,0.936408 0.527904,1.301112 0.61581,0.615811 0.973266,0.65241 1.865512,0.191012 z"
           style="fill:#000000;fill-opacity:1;stroke-width:0.215072" />
        <path
           id="path318"
           d="m 88.832965,36.313503 c -1.088546,-0.740858 -1.513312,-1.462523 -1.652053,-2.806794 -0.255297,-2.473586 1.088091,-4.315093 3.606795,-4.944173 0.759583,-0.189716 1.913363,-0.423394 2.563956,-0.519285 l 1.182896,-0.174346 -0.04449,-0.966312 c -0.03461,-0.751614 -0.174376,-1.078726 -0.629061,-1.472261 -0.977022,-0.845625 -2.611834,-0.311871 -3.120584,1.018849 -0.185684,0.485688 -0.270593,0.50692 -1.600404,0.400175 -0.772373,-0.062 -1.462792,-0.171202 -1.534264,-0.242673 -0.225324,-0.225324 0.358326,-1.807475 0.907558,-2.460201 1.367916,-1.625676 5.146346,-2.202065 7.300504,-1.113673 1.970256,0.995476 2.245692,1.82159 2.260067,6.77861 0.0091,3.137559 0.02577,3.254063 0.583028,4.074141 l 0.573662,0.84422 -1.165109,1.031444 c -0.640811,0.567296 -1.281528,1.032514 -1.423815,1.033819 -0.142288,0.0013 -0.567402,-0.381759 -0.944697,-0.851253 l -0.685991,-0.853622 -0.668343,0.563607 c -0.99895,0.842404 -1.901246,1.14364 -3.425566,1.14364 -1.069873,0 -1.530075,-0.106856 -2.084084,-0.483912 z m 4.472072,-2.217542 c 0.731294,-0.51222 1.143733,-1.501411 1.188754,-2.851106 0.04001,-1.19945 0.02917,-1.223529 -0.581896,-1.293273 -0.825514,-0.09422 -2.415565,0.528903 -2.818848,1.10467 -0.177236,0.253041 -0.322248,0.915426 -0.322248,1.47197 0,0.837 0.09795,1.088937 0.566685,1.457648 0.675706,0.531509 1.314835,0.567272 1.967553,0.110091 z"
           style="fill:#000000;fill-opacity:1;stroke-width:0.215072" />
        <path
           id="path316"
           d="m 89.15776,36.495775 c -2.211312,-0.976098 -2.725264,-4.438653 -0.957657,-6.451847 0.819711,-0.9336 2.265961,-1.540969 4.360603,-1.831287 0.925303,-0.128247 1.784736,-0.233176 1.90985,-0.233176 0.143936,0 0.185485,-0.372582 0.113132,-1.014496 -0.130001,-1.15336 -0.886944,-1.996512 -1.792379,-1.996512 -0.849431,0 -1.738884,0.575007 -1.986004,1.283897 -0.246503,0.70712 -0.707854,0.802268 -2.474653,0.510366 -0.790316,-0.130572 -0.8212,-0.166186 -0.694311,-0.800633 0.237412,-1.187058 1.095935,-2.202093 2.40373,-2.841937 1.025615,-0.501787 1.512486,-0.602032 2.968207,-0.611141 1.442039,-0.009 1.924271,0.08127 2.805535,0.525292 1.854581,0.934431 1.930736,1.148206 2.054362,5.766788 0.104277,3.895764 0.12533,4.047766 0.694822,5.016517 l 0.587287,0.99902 -1.15985,0.990891 c -1.296362,1.107517 -1.537891,1.107693 -2.381436,0.0017 l -0.561154,-0.735712 -0.698363,0.532669 c -1.519767,1.159182 -3.724916,1.537012 -5.191721,0.889551 z m 4.405243,-2.672547 c 0.665707,-0.665708 1.076026,-1.846384 1.077893,-3.101596 0.0011,-0.76703 -0.03303,-0.806462 -0.697785,-0.80532 -2.049607,0.0035 -3.172312,0.90281 -3.172312,2.541039 0,1.855002 1.546546,2.611535 2.792204,1.365877 z"
           style="fill:#000000;fill-opacity:1;stroke-width:0.215072" />
      </g>
    </g>
  </g>
</svg>
