<?xml version="1.0" encoding="UTF-8" standalone="no"?>
<svg
   xmlns:dc="http://purl.org/dc/elements/1.1/"
   xmlns:cc="http://creativecommons.org/ns#"
   xmlns:rdf="http://www.w3.org/1999/02/22-rdf-syntax-ns#"
   xmlns:svg="http://www.w3.org/2000/svg"
   xmlns="http://www.w3.org/2000/svg"
   xmlns:sodipodi="http://sodipodi.sourceforge.net/DTD/sodipodi-0.dtd"
   xmlns:inkscape="http://www.inkscape.org/namespaces/inkscape"
   sodipodi:docname="Amazonギフト券.svg"
   inkscape:version="1.0 (4035a4fb49, 2020-05-01)"
   id="svg8"
   version="1.1"
   viewBox="0 0 66.006874 71.067741"
   height="71.067741mm"
   width="66.006874mm">
  <defs
     id="defs2" />
  <sodipodi:namedview
     fit-margin-bottom="0"
     fit-margin-right="0"
     fit-margin-left="0"
     fit-margin-top="0"
     inkscape:window-maximized="1"
     inkscape:window-y="-8"
     inkscape:window-x="-8"
     inkscape:window-height="684"
     inkscape:window-width="1024"
     showguides="false"
     showgrid="false"
     inkscape:document-rotation="0"
     inkscape:current-layer="g282"
     inkscape:document-units="mm"
     inkscape:cy="134.30124"
     inkscape:cx="124.7374"
     inkscape:zoom="1.6827841"
     inkscape:pageshadow="2"
     inkscape:pageopacity="0.0"
     borderopacity="1.0"
     bordercolor="#666666"
     pagecolor="#ffffff"
     id="base" />
  <metadata
     id="metadata5">
    <rdf:RDF>
      <cc:Work
         rdf:about="">
        <dc:format>image/svg+xml</dc:format>
        <dc:type
           rdf:resource="http://purl.org/dc/dcmitype/StillImage" />
        <dc:title></dc:title>
      </cc:Work>
    </rdf:RDF>
  </metadata>
  <g
     transform="translate(-72.734338,-41.242418)"
     id="layer1"
     inkscape:groupmode="layer"
     inkscape:label="レイヤー 1">
    <path
       d=""
       id="path60"
       style="fill:#000000;stroke-width:0.264583" />
    <path
       d=""
       id="path58"
       style="fill:#000000;stroke-width:0.264583" />
    <path
       d=""
       id="path56"
       style="fill:#000000;stroke-width:0.264583" />
    <path
       d=""
       id="path54"
       style="fill:#000000;stroke-width:0.264583" />
    <path
       d=""
       id="path52"
       style="fill:#000000;stroke-width:0.264583" />
    <g
       style="fill:#000000"
       transform="translate(4.5995575,-6.570795)"
       id="g282">
      <path
         id="path298"
         d="m 92.481514,117.6597 c -7.43663,-1.61567 -15.090603,-5.81899 -20.386276,-11.19551 -2.384725,-2.42113 -4.158896,-4.57235 -3.942602,-4.78047 0.216295,-0.20813 2.848235,1.11056 5.848755,2.93043 6.580443,3.99116 12.834879,6.12005 21.922555,7.46202 5.703514,0.84224 8.061384,0.75894 14.537904,-0.51359 4.25165,-0.83537 9.93393,-2.49342 12.62728,-3.68455 5.56549,-2.46133 7.0428,-1.70617 3.38632,1.731 -3.50999,3.29946 -12.28615,7.29726 -18.5181,8.43553 -6.53816,1.19421 -8.423467,1.14732 -15.475836,-0.38486 z m 36.775686,-5.80076 c 0.34232,-1.22975 0.86063,-3.54393 1.1518,-5.1426 l 0.52939,-2.9067 h -4.76772 c -6.3805,0 -4.64497,-1.92092 2.25231,-2.4929 4.05938,-0.33664 5.04003,-0.13961 5.51912,1.10891 0.84153,2.19298 -1.11138,7.96313 -3.37044,9.95846 -1.93197,1.70643 -1.93529,1.70511 -1.31446,-0.52517 z M 86.094701,99.59726 C 78.421154,95.817002 76.78986,83.456308 82.991783,76.08574 c 3.343459,-3.973474 8.260171,-6.165063 16.41973,-7.318976 l 7.144947,-1.010428 v -2.990952 c 0,-3.780639 -2.67437,-6.568417 -6.30121,-6.568417 -2.687765,0 -5.563918,2.192193 -7.624502,5.811364 -0.859495,1.509599 -1.49974,1.595686 -6.260563,0.841792 -5.120276,-0.810815 -5.29678,-0.928775 -5.118182,-3.420525 0.295912,-4.128477 4.155807,-9.051613 8.923263,-11.381248 5.92055,-2.893099 16.892134,-2.95976 22.281554,-0.135377 6.45163,3.381048 6.99885,4.961822 7.51178,21.699488 0.41886,13.66783 0.6133,15.016244 2.63424,18.268803 l 2.182,3.511761 -4.39428,3.86676 c -2.41685,2.126719 -4.86874,3.866765 -5.44864,3.866765 -0.57989,0 -2.20077,-1.313214 -3.60195,-2.91825 l -2.54759,-2.918247 -4.33811,2.918247 c -3.74292,2.51786 -5.092718,2.91545 -9.838033,2.89788 -3.285074,-0.0122 -6.716736,-0.61981 -8.521536,-1.50892 z m 16.124439,-9.275097 c 2.38238,-1.275008 4.33732,-6.12007 4.33732,-10.74944 v -3.723952 l -3.61154,0.48441 c -4.538961,0.608802 -7.832475,2.73148 -8.999104,5.799947 -0.946564,2.489652 -0.419474,6.122894 1.165299,8.032429 1.14408,1.378532 4.679302,1.456422 7.108025,0.156606 z"
         style="fill:#000000;fill-opacity:1;stroke-width:0.894366" />
      <path
         sodipodi:nodetypes="ssscsssscccccssccssscssssssscscccsssscsss"
         id="path296"
         d="m 88.456235,116.43141 c -6.267851,-2.06308 -12.480958,-5.96254 -17.185156,-10.7857 -1.94446,-1.99364 -3.283374,-3.6248 -2.975363,-3.6248 0.308011,0 3.544202,1.60965 7.191535,3.577 15.458686,8.33831 31.774719,9.22022 47.268559,2.55495 9.36681,-4.02949 5.59566,1.22474 -4.43833,6.18381 -6.18545,3.05701 -7.34615,3.31884 -15.70421,3.54246 -6.939438,0.18566 -10.211089,-0.1489 -14.157035,-1.44772 z m 40.827235,-4.12529 c 0.38652,-0.9838 0.91734,-3.29797 1.17958,-5.1426 l 0.47534,-3.35388 -4.8117,-0.0317 c -4.24122,-0.28632 -4.11268,-1.33374 0.4286,-2.33312 3.41235,0.72635 6.73296,-0.7231 7.41604,1.05698 0.67187,1.75088 -2.00534,8.84115 -3.92868,10.40463 -1.28344,1.04331 -1.37613,0.97001 -0.75918,-0.60032 z M 86.031196,99.532362 c -4.150142,-2.286846 -6.55096,-7.135012 -6.497178,-13.120277 0.09565,-10.644926 6.746263,-15.99292 22.327022,-17.95396 l 4.69542,-0.59098 v -3.354924 c 0,-8.252798 -9.315959,-8.617237 -13.900546,-0.543787 -0.828545,1.459067 -1.524911,1.551107 -6.260563,0.827468 -5.095713,-0.778659 -5.320754,-0.922559 -5.154903,-3.296236 0.755347,-10.810587 19.112572,-17.497458 31.096022,-11.327151 6.78596,3.494103 7.63549,5.888048 7.63549,21.516377 0,12.358218 0.12699,13.311488 2.32369,17.442914 l 2.32369,4.370264 -4.33602,3.793844 c -2.38481,2.086614 -4.82194,3.802116 -5.41584,3.812236 -0.59391,0.0101 -2.16333,-1.339516 -3.48762,-2.999186 l -2.40778,-3.017581 -3.92513,2.766688 c -5.094881,3.591199 -14.098326,4.383939 -19.015754,1.674291 z m 16.102974,-9.164723 c 2.59701,-1.389877 4.42229,-5.653792 4.42229,-10.3306 v -4.185376 l -4.21922,0.475567 c -3.252595,0.366615 -4.789354,1.11365 -6.707749,3.260707 -5.584118,6.249714 -0.566928,14.564312 6.504679,10.779702 z"
         style="fill:#000000;fill-opacity:1;stroke-width:0.894366" />
      <path
         sodipodi:nodetypes="sssssscssscssssscsssssssssssscssscsccsssss"
         id="path294"
         d="m 91.010356,117.1247 c -5.108942,-1.19938 -13.556541,-5.96414 -18.577474,-10.47839 -2.422125,-2.1777 -4.239754,-4.12357 -4.039176,-4.32414 0.200579,-0.20058 2.731666,1.03144 5.624638,2.73782 9.532716,5.62274 15.514084,7.18065 27.619106,7.19371 10.74716,0.0116 13.50659,-0.57956 24.9407,-5.3431 3.23598,-1.34814 1.02347,1.72515 -3.39511,4.71598 -8.34039,5.64538 -21.76959,7.94035 -32.172684,5.49812 z m 39.303814,-8.11041 c 1.64425,-4.66031 0.89266,-5.52263 -4.71979,-5.41514 l -1.59778,-1.15495 v 0 c 0,0 8.17479,-1.66481 9.08688,-0.19968 0.97518,1.56648 0.38891,5.1452 -1.31865,8.0493 -2.15762,3.66954 -2.95016,2.97051 -1.45066,-1.27951 z M 86.433223,99.513485 C 80.980272,96.041656 80.17266,94.400119 80.17266,86.788374 c 0,-5.696993 0.347278,-7.464142 1.870967,-9.520541 3.801003,-5.129902 8.794473,-7.295694 20.264593,-8.789259 4.2221,-0.549775 4.24824,-0.574 4.24824,-3.937228 0,-7.640977 -9.322766,-8.922246 -13.011883,-1.78828 -1.380752,2.670081 -1.486632,2.704444 -6.493412,2.107469 -2.799375,-0.333779 -5.387728,-0.87908 -5.751897,-1.21178 -1.142487,-1.043762 0.965989,-6.544946 3.551199,-9.265365 5.017005,-5.279399 13.376554,-7.596394 21.746743,-6.027488 5.26319,0.986533 8.18342,2.726325 11.08357,6.603288 1.63951,2.191734 1.89358,4.119502 2.29118,17.38488 0.41857,13.965173 0.58523,15.113366 2.60481,17.945033 l 2.15764,3.025234 -4.39355,3.871742 c -2.41646,2.129458 -4.87948,3.887201 -5.47338,3.906101 -0.59391,0.0189 -2.17982,-1.344207 -3.52425,-3.029132 l -2.44442,-3.063497 -3.91888,2.814321 c -3.28324,2.357848 -4.88756,2.862458 -9.891238,3.111118 -4.703891,0.23375 -6.542236,-0.066 -8.655469,-1.411505 z M 104.51537,87.802383 c 1.42723,-2.124982 2.04109,-4.344085 2.04109,-7.378522 0,-4.256267 -0.0532,-4.339569 -2.77152,-4.339569 -8.090535,0 -13.278884,7.46689 -9.21744,13.265413 2.236431,3.192954 7.29227,2.406552 9.94787,-1.547322 z"
         style="fill:#000000;fill-opacity:1;stroke-width:0.894366" />
      <path
         sodipodi:nodetypes="sssssssssssscsccsssscssscsssssccssssssscscccssssccscssssssssscsscscccscssscsss"
         id="path292"
         d="m 98.283576,117.47252 c 1.598679,-0.19839 4.214704,-0.19839 5.813384,0 1.59868,0.1984 0.29067,0.36072 -2.90669,0.36072 -3.197363,0 -4.505374,-0.16232 -2.906694,-0.36072 z m -6.260564,-0.8397 c 0.614877,-0.24811 1.621039,-0.24811 2.235916,0 0.614877,0.24811 0.111796,0.4511 -1.117958,0.4511 -1.229754,0 -1.732835,-0.20299 -1.117958,-0.4511 z m 16.098588,0 c 0.61488,-0.24811 1.62104,-0.24811 2.23592,0 0.61488,0.24811 0.1118,0.4511 -1.11796,0.4511 -1.22975,0 -1.73283,-0.20299 -1.11796,-0.4511 z m -21.241194,-1.19641 c -1.634871,-1.05654 -0.222773,-1.05654 2.235916,0 1.179437,0.50682 1.33176,0.78539 0.447183,0.81781 -0.737852,0.027 -1.945246,-0.34098 -2.683099,-0.81781 z m 32.420774,-2.74046 c 5.32573,-2.74894 6.62202,-4.03464 3.13028,-3.10472 -1.10677,0.29476 -0.4651,-0.31092 1.42595,-1.34595 4.02256,-2.20167 5.58217,-1.52575 2.36175,1.02355 -2.52184,1.9963 -10.29986,6.18967 -11.36008,6.12456 -0.38528,-0.0237 1.61367,-1.23751 4.4421,-2.69744 z m -25.265844,0.45441 c 2.876655,-0.62145 20.886894,-0.93479 18.781694,-0.32677 -1.22976,0.35518 -6.26057,0.63921 -11.17958,0.63119 -4.919015,-0.008 -8.339966,-0.14502 -7.602114,-0.30442 z m -15.288463,-1.96809 c -3.251489,-2.18514 -7.276818,-5.75443 -8.844012,-7.84204 -1.270486,-1.69237 -1.25172,-1.70508 0.447183,-0.30276 0.975326,0.80506 4.188109,2.69741 7.139517,4.20522 2.951409,1.50782 5.044362,2.76084 4.651009,2.7845 -0.393354,0.0237 -1.939999,-0.59035 -3.436987,-1.36448 -3.878639,-2.00572 -4.155914,-0.96344 -0.366698,1.37842 1.747528,1.08004 3.177324,2.13211 3.177324,2.33794 0,0.59101 -0.300396,0.4611 -2.767336,-1.1968 z m 10.593041,0.97872 c 0.614876,-0.24811 1.621038,-0.24811 2.235915,0 0.614877,0.2481 0.111796,0.4511 -1.117958,0.4511 -1.229753,0 -1.732834,-0.203 -1.117957,-0.4511 z m 27.501756,-1.19642 c 2.4587,-1.05653 3.8708,-1.05653 2.23592,0 -0.73785,0.47684 -1.94525,0.84486 -2.6831,0.81781 -0.88458,-0.0324 -0.73225,-0.31098 0.44718,-0.81781 z m 13.75385,-1.11795 c 0.40771,-1.10678 0.99264,-3.05347 1.29986,-4.32598 0.52905,-2.19138 0.36269,-2.32134 -3.14777,-2.45889 -5.41274,-0.21209 -5.26975,-0.91293 0.14681,-0.91293 5.24034,0 5.59946,0.85884 3.19708,6.60857 -1.42139,3.40185 -2.68747,4.32368 -1.49602,1.08923 z M 86.201457,99.342645 c -4.365786,-2.661852 -6.468704,-6.735988 -6.472637,-12.539912 -0.0041,-6.10366 2.093158,-10.306734 6.796936,-13.621369 3.167069,-2.231754 6.179485,-3.082179 16.676834,-4.707982 3.196,-0.494989 3.35387,-0.6794 3.35387,-3.917762 0,-4.217129 -2.155,-6.358653 -6.39867,-6.358653 -3.17945,0 -6.126776,2.259048 -7.306742,5.600421 -0.478128,1.35394 -1.283805,1.495248 -5.72306,1.003761 -2.841628,-0.314607 -5.506188,-0.880339 -5.921244,-1.257182 -1.043991,-0.947873 2.283419,-8.051259 4.893607,-10.446919 3.579466,-3.285275 8.523172,-4.837549 15.403699,-4.836609 8.80783,0.0012 13.7319,2.331488 17.21689,8.147796 0.44212,0.737852 1.00507,7.982218 1.25102,16.098592 0.41599,13.727966 0.59547,14.964953 2.57364,17.738497 l 2.12647,2.981455 -4.36238,3.909805 c -2.39931,2.150393 -4.71057,3.927846 -5.13612,3.949886 -0.42556,0.022 -2.08191,-1.38811 -3.68079,-3.13367 l -2.90703,-3.173746 -2.679,2.254228 c -3.65392,3.074568 -6.682764,4.093868 -12.153229,4.089918 -3.04819,-0.002 -5.636023,-0.61233 -7.552064,-1.780555 z M 103.88487,89.040353 c 1.59727,-1.700211 2.20643,-3.553103 2.49931,-7.602113 l 0.38727,-5.353948 h -2.81932 c -6.533426,0 -10.81116,3.660043 -10.81116,9.250066 0,5.751906 6.662773,8.050159 10.7439,3.705995 z"
         style="fill:#000000;fill-opacity:1;stroke-width:0.894366" />
      <path
         id="path290"
         d="m 86.898234,99.560015 c -1.711849,-0.860062 -4.026022,-2.931279 -5.142606,-4.602702 -4.02551,-6.025822 -1.949949,-17.157531 3.986573,-21.380901 3.016435,-2.145958 11.138069,-4.64705 15.090059,-4.64705 4.75413,0 5.7242,-0.750558 5.7242,-4.428902 0,-4.158954 -2.17692,-6.303493 -6.39867,-6.303493 -3.163539,0 -6.128357,2.258741 -7.288415,5.552663 -0.449433,1.276139 -1.3191,1.442127 -5.275878,1.006974 -6.511245,-0.716084 -7.299512,-1.635338 -5.273198,-6.149454 3.205915,-7.14197 9.182612,-10.234168 19.798421,-10.243223 6.7559,-0.0057 12.56889,2.437403 15.56496,6.541856 1.63251,2.236452 1.89176,4.212278 2.28828,17.440141 0.36798,12.276066 0.72435,15.309558 2.01232,17.129271 2.2218,3.139099 1.98641,4.177737 -1.68397,7.430435 -5.27183,4.67189 -5.46733,4.69382 -8.8567,0.993481 l -3.07983,-3.362388 -2.03382,1.910676 c -4.88234,4.586721 -13.689714,5.997501 -19.431726,3.112616 z M 104.09696,88.521357 c 2.10099,-2.244289 2.4595,-3.386748 2.4595,-7.837555 v -5.210299 l -3.80105,0.58775 c -6.918679,1.06982 -9.61444,3.578877 -9.61444,8.948557 0,3.701967 3.693238,7.515927 6.499045,6.711482 1.098585,-0.314974 3.104215,-1.754945 4.456945,-3.199935 z"
         style="fill:#000000;fill-opacity:1;stroke-width:0.894366" />
      <path
         id="path288"
         d="M 86.943982,99.560015 C 82.338583,97.211665 80.34081,93.894878 79.949008,87.946663 79.243351,77.233571 86.33161,70.475812 99.571088,69.23949 c 7.654892,-0.714824 8.155132,-1.062936 7.389822,-5.142408 -0.81018,-4.318608 -2.50973,-5.900115 -6.34051,-5.900115 -4.234084,0 -6.212353,1.22153 -7.373743,4.553096 -0.703736,2.018739 -1.375576,2.649107 -2.403137,2.254795 -0.784471,-0.30103 -3.015885,-0.547327 -4.958697,-0.547327 -5.557902,0 -5.879765,-4.355235 -0.753354,-10.193893 5.226771,-5.952963 18.860991,-7.935172 26.772921,-3.892375 7.06311,3.609076 7.55759,4.958788 8.06757,22.021259 0.36533,12.223031 0.73365,15.397617 2.01232,17.344441 2.16062,3.289628 2.02061,3.885669 -1.68397,7.168667 -5.05561,4.48027 -5.22183,4.49758 -8.70966,0.90669 l -3.20319,-3.297848 -2.04566,1.921802 c -4.89038,4.594266 -13.724138,6.016816 -19.397818,3.123741 z M 103.37435,89.276194 c 2.24403,-2.249534 3.04047,-3.974871 3.52272,-7.631391 0.34272,-2.598585 0.39892,-5.08749 0.12488,-5.530901 -0.63415,-1.026072 -6.42592,-0.15343 -9.606228,1.447364 -4.914469,2.47368 -5.980936,9.572242 -1.918223,12.767972 3.199808,2.51697 4.48727,2.344851 7.876851,-1.053044 z"
         style="fill:#000000;fill-opacity:1;stroke-width:0.894366" />
      <path
         id="path286"
         d="M 88.07252,100.14516 C 80.193141,97.863965 77.17693,85.890822 82.366385,77.494105 c 2.668671,-4.317999 9.493873,-7.478671 17.786135,-8.236554 7.41483,-0.677689 8.08037,-1.346029 6.52152,-6.548993 -1.36413,-4.553067 -4.78073,-6.097402 -9.306257,-4.206517 -1.846368,0.771462 -3.431925,2.190875 -3.813991,3.414337 -0.905362,2.899179 -1.470525,3.110954 -6.857731,2.56968 -4.007085,-0.402607 -4.777369,-0.775645 -5.012531,-2.427499 -0.64891,-4.558131 4.916854,-10.595847 11.803443,-12.804322 4.828807,-1.54856 15.642457,-0.753479 19.360137,1.423469 6.11534,3.580933 6.62943,5.144506 7.12485,21.669763 0.38136,12.720879 0.70496,15.342591 2.19857,17.811945 l 1.75139,2.895544 -3.03837,3.134806 c -4.39264,4.532036 -5.91454,4.745376 -9.44461,1.32391 l -2.98777,-2.895868 -2.76386,2.325634 c -4.5313,3.81284 -11.272009,5.03805 -17.61479,3.20172 z m 13.58992,-9.030762 c 1.28979,-0.587668 2.94011,-2.219165 3.66738,-3.62555 1.71564,-3.317674 2.63717,-10.979984 1.41164,-11.737404 -1.90533,-1.177561 -9.965386,1.318986 -11.803797,3.656146 -2.391531,3.040338 -2.395558,8.598964 -0.008,10.986561 2.062511,2.062511 3.458927,2.211895 6.732737,0.720247 z"
         style="fill:#000000;fill-opacity:1;stroke-width:0.894366" />
      <path
         id="path284"
         d="M 87.290106,99.497586 C 82.7895,97.388055 80.67378,94.244246 80.015779,88.688453 c -0.684903,-5.782933 0.879187,-10.047839 5.075095,-13.83859 3.742778,-3.381375 7.830263,-4.814075 16.446456,-5.76463 5.27248,-0.58167 5.47456,-0.698195 5.69883,-3.286153 0.72964,-8.419546 -9.823774,-11.4199 -13.713151,-3.898673 -1.173683,2.269651 -1.797346,2.555585 -5.547612,2.543428 -5.556328,-0.01801 -6.873813,-0.903619 -6.075589,-4.083996 0.976135,-3.889235 3.888186,-7.383731 7.962608,-9.555227 5.224228,-2.784296 18.313614,-2.886 22.922964,-0.17811 5.76944,3.389419 6.6835,6.229266 7.18658,22.327508 0.38148,12.207508 0.70997,14.749591 2.23591,17.302932 l 1.78873,2.993074 -3.91608,3.491081 c -2.15384,1.920096 -4.43223,3.491083 -5.0631,3.491083 -0.63086,0 -2.16297,-1.207395 -3.4047,-2.683099 -1.24172,-1.475704 -2.47313,-2.683098 -2.73645,-2.683098 -0.26333,0 -2.20102,1.200894 -4.30598,2.668654 -5.118189,3.568843 -12.149928,4.367613 -17.280184,1.962949 z m 14.728084,-8.621892 c 2.88265,-1.490679 5.43264,-6.947922 5.43264,-11.626436 0,-3.80777 -0.7076,-4.253352 -5.52989,-3.482235 -5.406545,0.86454 -8.77997,4.396327 -8.77997,9.192134 0,2.453774 0.584994,4.231256 1.788732,5.434994 2.129078,2.129078 3.696585,2.235564 7.088488,0.481543 z"
         style="fill:#000000;fill-opacity:1;stroke-width:0.894366" />
    </g>
  </g>
</svg>
