<?xml version="1.0" encoding="UTF-8" standalone="no"?>
<svg
   xmlns:dc="http://purl.org/dc/elements/1.1/"
   xmlns:cc="http://creativecommons.org/ns#"
   xmlns:rdf="http://www.w3.org/1999/02/22-rdf-syntax-ns#"
   xmlns:svg="http://www.w3.org/2000/svg"
   xmlns="http://www.w3.org/2000/svg"
   xmlns:sodipodi="http://sodipodi.sourceforge.net/DTD/sodipodi-0.dtd"
   xmlns:inkscape="http://www.inkscape.org/namespaces/inkscape"
   width="47.687065mm"
   height="47.642376mm"
   viewBox="0 0 47.687065 47.642376"
   version="1.1"
   id="svg130"
   inkscape:version="1.0 (4035a4fb49, 2020-05-01)"
   sodipodi:docname="PayPay.svg">
  <defs
     id="defs124" />
  <sodipodi:namedview
     id="base"
     pagecolor="#ffffff"
     bordercolor="#666666"
     borderopacity="1.0"
     inkscape:pageopacity="0.0"
     inkscape:pageshadow="2"
     inkscape:zoom="2.5101953"
     inkscape:cx="90.117288"
     inkscape:cy="90.032836"
     inkscape:document-units="mm"
     inkscape:current-layer="layer1"
     inkscape:document-rotation="0"
     showgrid="false"
     inkscape:window-width="1024"
     inkscape:window-height="684"
     inkscape:window-x="-8"
     inkscape:window-y="-8"
     inkscape:window-maximized="1"
     fit-margin-top="0"
     fit-margin-left="0"
     fit-margin-right="0"
     fit-margin-bottom="0" />
  <metadata
     id="metadata127">
    <rdf:RDF>
      <cc:Work
         rdf:about="">
        <dc:format>image/svg+xml</dc:format>
        <dc:type
           rdf:resource="http://purl.org/dc/dcmitype/StillImage" />
        <dc:title />
      </cc:Work>
    </rdf:RDF>
  </metadata>
  <g
     inkscape:label="レイヤー 1"
     inkscape:groupmode="layer"
     id="layer1"
     transform="translate(-31.294467,-108.39998)">
    <g
       style="fill:#000000"
       transform="translate(-2.9134076,65.099552)"
       id="g110">
      <path
         id="path122"
         d="M 38.371275,90.379102 C 36.943897,89.667175 35.452949,88.163913 34.803137,86.781499 34.285719,85.68074 34.266766,85.150811 34.266766,71.784733 V 57.929049 l 2.62013,-0.180458 c 4.718309,-0.324968 14.577787,-0.162237 14.577787,0.240608 0,0.06691 -1.630159,6.776439 -4.884703,20.104828 -0.92387,3.783542 -1.999082,8.21862 -2.389361,9.85573 l -0.709597,2.976562 -2.02744,-0.01056 c -1.477186,-0.0077 -2.313736,-0.153336 -3.082307,-0.536673 z m 8.077595,0.348779 c 0.0062,-0.10914 0.464546,-2.103437 1.018547,-4.43177 l 1.007277,-4.233334 1.296557,-0.183353 c 0.713106,-0.100844 2.721367,-0.378463 4.462802,-0.616935 11.013471,-1.508175 17.073324,-5.018963 19.206493,-11.127321 0.825127,-2.362757 0.654346,-5.525414 -0.412009,-7.630019 C 69.114412,54.780075 55.400838,49.915902 37.535636,49.915902 h -3.26887 v -0.664341 c 0,-1.08734 1.026919,-2.943474 2.254565,-4.075078 2.144802,-1.97701 0.973922,-1.875164 21.557935,-1.875164 20.584012,0 19.413133,-0.101846 21.557935,1.875164 0.632116,0.582664 1.397987,1.588442 1.701932,2.235062 0.544,1.157307 0.552633,1.465096 0.552633,19.702274 0,18.237179 -0.0086,18.544966 -0.552633,19.702275 -0.303945,0.64662 -1.069816,1.652397 -1.701932,2.235062 -2.11991,1.954064 -1.356185,1.875163 -18.150663,1.875163 -8.276917,0 -15.043867,-0.0893 -15.037668,-0.198438 z m 4.023625,-14.03968 c -0.507986,-0.04898 -0.859896,-0.230172 -0.859896,-0.442749 0,-0.197911 0.35145,-1.827477 0.780999,-3.621256 1.005752,-4.199983 2.819525,-11.997446 3.059258,-13.151846 l 0.18578,-0.894593 1.502327,0.157024 c 1.990875,0.208088 7.137119,1.557744 9.288303,2.435956 5.314233,2.16951 8.007977,5.255039 7.142731,8.181587 -0.837186,2.831652 -5.598056,5.462667 -12.010309,6.6373 -2.442409,0.447413 -7.590459,0.843082 -9.089193,0.698577 z"
         style="fill:#000000;fill-opacity:1;stroke-width:0.264583" />
      <path
         id="path120"
         d="M 38.615094,90.426148 C 37.035582,89.708736 35.71538,88.437743 34.946017,86.893834 L 34.266766,85.530753 V 71.829411 58.128067 l 0.727604,-0.203478 c 0.809786,-0.226461 16.079434,-0.285179 16.302229,-0.06269 0.07754,0.07743 -0.138584,1.268059 -0.480276,2.645833 -0.341692,1.377775 -1.284047,5.243482 -2.094124,8.590461 -0.810076,3.346979 -2.238347,9.240573 -3.173935,13.096875 -0.935588,3.856302 -1.782532,7.398411 -1.882098,7.871354 l -0.181029,0.859896 -1.897206,-0.0058 c -1.269292,-0.0039 -2.253206,-0.167505 -2.972837,-0.494361 z m 7.917188,0.03715 c 0.07169,-0.254661 0.565125,-2.264309 1.096527,-4.465883 l 0.966186,-4.002866 2.956198,-0.315058 C 55.125132,81.298595 60.231535,80.30383 62.577183,79.531548 68.840039,77.469566 72.664904,73.828134 73.842649,68.806351 75.410448,62.12142 69.30338,55.703462 58.343849,52.518564 52.95683,50.953067 47.522265,50.205443 40.021453,49.997983 34.396045,49.842394 34.266897,49.82631 34.272577,49.282048 c 0.01778,-1.703421 1.97354,-4.278358 4.026675,-5.301478 l 1.36308,-0.679251 H 58.079266 76.4962 l 1.363081,0.679251 c 1.543909,0.769363 2.814902,2.089565 3.532314,3.669077 0.45983,1.012397 0.488892,2.157473 0.494361,19.478368 l 0.0058,18.402738 -0.679252,1.363081 c -0.769363,1.543909 -2.089565,2.814902 -3.669075,3.532314 -1.004901,0.456422 -2.064179,0.488931 -16.108566,0.494361 -14.191921,0.0055 -15.025641,-0.02008 -14.902592,-0.457211 z M 49.612599,76.39282 c 0,-0.135297 0.598168,-2.784438 1.329263,-5.886979 0.731094,-3.102539 1.653828,-7.039094 2.050521,-8.7479 0.57462,-2.475253 0.813487,-3.107312 1.174897,-3.108854 1.069296,-0.0046 5.878125,1.07644 8.100025,1.820844 5.434735,1.820804 8.728559,4.217167 9.304097,6.769028 0.928801,4.118176 -4.47634,7.621487 -13.889011,9.002088 -2.961606,0.434393 -8.069792,0.530466 -8.069792,0.151773 z"
         style="fill:#000000;fill-opacity:1;stroke-width:0.264583" />
      <path
         id="path118"
         d="M 38.962583,90.548825 C 37.721796,90.106031 36.332633,89.059279 35.57647,87.997347 34.314121,86.224541 34.266766,85.626895 34.266766,71.468239 V 58.179674 l 0.727604,-0.175927 c 1.159157,-0.280274 13.276035,-0.469385 14.914494,-0.232775 l 1.486889,0.214722 -0.330588,1.322917 c -0.181824,0.727604 -0.831826,3.40651 -1.44445,5.953125 -0.612623,2.546614 -2.045836,8.440208 -3.184919,13.096875 -1.139082,4.656666 -2.283741,9.389401 -2.543687,10.517187 l -0.472629,2.050521 -1.732086,-0.01162 c -0.952648,-0.0064 -2.178813,-0.171035 -2.724811,-0.365882 z m 7.594321,0.0569 c 0.06076,-0.187476 0.544561,-2.193959 1.075109,-4.458851 l 0.964633,-4.117986 3.087664,-0.326966 c 6.302914,-0.667446 12.359043,-2.268826 15.465825,-4.089519 3.564816,-2.089121 5.899674,-5.140889 6.797919,-8.885192 C 75.196853,63.521641 71.218025,57.963095 63.784701,54.528688 57.257179,51.512787 48.464688,49.92384 38.272216,49.918165 l -4.064341,-0.0023 0.176893,-0.992187 c 0.399384,-2.240124 2.717027,-4.767554 4.914409,-5.359247 0.699361,-0.188319 7.061267,-0.255861 19.369604,-0.20564 l 18.328193,0.07478 1.228884,0.722415 c 1.296149,0.761956 2.327937,1.837862 3.080203,3.211907 0.416213,0.760229 0.453413,2.380298 0.453413,19.745886 v 18.917708 l -0.722415,1.228884 c -0.761955,1.296149 -1.837862,2.327937 -3.211907,3.080203 -0.750186,0.410715 -2.266688,0.460597 -16.103452,0.529695 -12.36981,0.06177 -15.254259,0.01146 -15.164796,-0.264583 z m 3.055695,-14.132608 c 0,-0.09113 0.34308,-1.609182 0.762399,-3.373437 0.419319,-1.764255 1.201945,-5.112737 1.739168,-7.44107 0.537223,-2.328334 1.087113,-4.578522 1.221976,-5.00042 0.134864,-0.421897 0.245207,-1.058148 0.245207,-1.41389 0,-0.627137 0.04224,-0.641236 1.389063,-0.463678 7.419417,0.978134 14.715993,4.305136 16.17228,7.374039 0.481288,1.014237 0.5611,2.697408 0.17594,3.710453 -1.034065,2.719801 -6.740649,5.353085 -13.802489,6.369114 -2.792602,0.401788 -7.903544,0.556268 -7.903544,0.238889 z"
         style="fill:#000000;fill-opacity:1;stroke-width:0.264583" />
      <path
         id="path116"
         d="m 39.390346,90.643794 c -1.573069,-0.466571 -3.321838,-1.89969 -4.175277,-3.421642 l -0.816011,-1.455208 -0.07507,-13.79193 -0.07507,-13.791929 0.736526,-0.168225 c 1.247352,-0.2849 12.531302,-0.476375 14.515282,-0.246307 l 1.872507,0.217141 -0.974588,3.96875 c -0.536023,2.182813 -1.71079,7.004844 -2.610593,10.715625 -2.949561,12.163978 -3.49427,14.396932 -3.969367,16.271875 l -0.469305,1.852083 -1.564747,0.04791 c -0.860611,0.02635 -1.938043,-0.06282 -2.394292,-0.198139 z m 7.308149,-0.569129 c 0.114887,-0.477475 0.47405,-1.999231 0.798139,-3.381679 0.324089,-1.382448 0.733092,-2.986093 0.908896,-3.563655 l 0.319644,-1.050112 3.684859,-0.449869 c 8.44045,-1.030462 13.253676,-2.614073 17.046316,-5.608452 3.442629,-2.718036 5.380993,-7.606993 4.489516,-11.323504 C 73.041446,60.926909 70.053403,57.715619 65.058678,55.14621 58.587321,51.817185 51.124835,50.247624 40.53847,49.988953 l -6.296005,-0.153839 0.176731,-0.819502 c 0.23369,-1.083617 1.092125,-2.784402 1.795658,-3.55767 0.310999,-0.341827 1.160766,-0.937139 1.88837,-1.322917 l 1.322917,-0.701414 h 18.653125 18.653125 l 1.455208,0.816011 c 1.581407,0.886778 2.965281,2.619736 3.430982,4.296451 0.36848,1.326682 0.36848,35.808811 0,37.135493 -0.465701,1.676714 -1.849575,3.409672 -3.430982,4.296449 l -1.455208,0.816012 -15.12139,0.07439 -15.121392,0.07439 z m 3.038556,-14.031158 c 0.168003,-0.743414 1.212483,-5.222095 2.113359,-9.06198 0.375548,-1.600729 0.80443,-3.446198 0.953072,-4.101041 0.148642,-0.654844 0.42983,-1.845469 0.624863,-2.645834 l 0.354605,-1.455208 1.15597,0.07424 c 1.205873,0.07744 5.847335,1.147366 7.902846,1.821725 3.169748,1.039911 7.038803,3.438672 7.946491,4.926714 2.447012,4.011577 -1.141775,7.90101 -9.064964,9.824372 -2.731675,0.663115 -7.127037,1.212329 -9.702295,1.212329 -2.371527,0 -2.415868,-0.01156 -2.283947,-0.595312 z"
         style="fill:#000000;fill-opacity:1;stroke-width:0.264583" />
      <path
         id="path114"
         d="M 39.909376,90.655947 C 38.405639,90.350506 37.487978,89.831849 36.330206,88.633022 34.344035,86.576421 34.408408,87.114411 34.31976,71.830856 l -0.0793,-13.671507 1.534505,-0.205723 c 1.922512,-0.257741 15.074615,-0.274351 15.329606,-0.01936 0.103441,0.103441 -0.13822,1.526548 -0.537025,3.162459 -0.929994,3.814869 -2.331936,9.612625 -3.502286,14.483761 -0.506966,2.110052 -1.207249,4.967552 -1.556185,6.35 -0.348935,1.382448 -0.979012,3.942291 -1.40017,5.688541 l -0.765741,3.175 -1.164763,0.04311 c -0.64062,0.02371 -1.661682,-0.05782 -2.269028,-0.181189 z m 6.656376,-0.04816 c 0.0665,-0.188608 0.426671,-1.652611 0.800387,-3.25334 1.372111,-5.877123 0.94933,-5.284208 3.966252,-5.562341 1.762039,-0.162441 6.923543,-0.990145 8.334375,-1.336505 C 67.441968,78.546777 71.794049,75.288563 73.566583,70.0494 74.948247,65.965546 74.006074,62.414631 70.65048,59.059037 66.917662,55.326218 61.797863,53.040216 52.919891,51.142288 48.964903,50.296793 38.629022,49.49072 35.81906,49.808631 l -1.510336,0.170875 0.251182,-1.117928 c 0.361113,-1.607198 0.834932,-2.402846 2.156203,-3.620751 2.036852,-1.877505 1.205965,-1.807216 21.363157,-1.807216 20.281866,0 19.333461,-0.08455 21.470128,1.914052 2.315572,2.165946 2.21008,1.127008 2.21008,21.766156 0,14.748182 -0.06812,18.316937 -0.365731,19.16003 -0.491429,1.392158 -2.275215,3.286029 -3.73531,3.965837 -1.157817,0.539067 -1.604259,0.5565 -16.202105,0.632682 -12.205618,0.0637 -14.988881,0.01423 -14.890576,-0.264584 z m 3.189192,-14.656199 c 0.09498,-0.422386 0.331695,-1.422818 0.526035,-2.223183 0.194339,-0.800364 0.47429,-1.990989 0.622113,-2.645833 0.147823,-0.654844 0.579551,-2.500313 0.959396,-4.101042 0.379845,-1.600729 0.820758,-3.505729 0.979807,-4.233333 0.159049,-0.727604 0.459432,-1.951608 0.667518,-2.720008 l 0.378337,-1.397092 0.971079,0.155424 c 3.204865,0.512948 8.372001,1.932731 10.357387,2.845918 7.383137,3.395905 8.437853,8.000619 2.617869,11.429174 -3.335848,1.965148 -8.306048,3.137093 -14.731329,3.473569 l -3.520903,0.184378 z"
         style="fill:#000000;fill-opacity:1;stroke-width:0.264583" />
      <path
         id="path112"
         d="m 43.191483,90.375943 c 0.09356,-0.357769 0.213493,-0.477705 0.279545,-0.279545 0.06363,0.190881 -0.01011,0.472853 -0.16386,0.626602 -0.196338,0.196339 -0.230772,0.09304 -0.115685,-0.347057 z m 3.531588,-0.08904 c -0.01149,-0.278913 0.05105,-0.435184 0.138964,-0.347265 0.08792,0.08792 0.09732,0.316121 0.02089,0.507119 -0.08446,0.211066 -0.147157,0.148373 -0.159852,-0.159854 z m -3.175,-1.322916 c -0.01149,-0.278913 0.05105,-0.435184 0.138964,-0.347266 0.08792,0.08792 0.09732,0.316122 0.02089,0.507119 -0.08446,0.211066 -0.147157,0.148373 -0.159852,-0.159853 z m 3.439583,0 c -0.01149,-0.278913 0.05105,-0.435184 0.138965,-0.347266 0.08792,0.08792 0.09732,0.316122 0.02089,0.507119 -0.08446,0.211066 -0.147156,0.148373 -0.159852,-0.159853 z m -2.889528,-2.006423 c 0,-0.363802 0.06005,-0.51263 0.133452,-0.330729 0.0734,0.181901 0.0734,0.479557 0,0.661458 -0.0734,0.181901 -0.133452,0.03307 -0.133452,-0.330729 z m 3.442777,-0.132292 c -0.0043,-0.291041 0.09455,-0.767291 0.219613,-1.058333 0.289721,-0.674217 0.289721,0.02138 0,0.926042 -0.170294,0.531741 -0.213361,0.557686 -0.219613,0.132291 z m -3.175,-0.926041 c 0.0043,-0.218282 0.103103,-0.694532 0.219613,-1.058334 0.170294,-0.531741 0.213361,-0.557686 0.219613,-0.132291 0.0043,0.291041 -0.09455,0.767291 -0.219613,1.058333 -0.139312,0.324197 -0.224378,0.375438 -0.219613,0.132292 z m 3.700973,-1.322917 c 0,-0.363802 0.06005,-0.51263 0.133452,-0.330729 0.0734,0.181901 0.0734,0.479557 0,0.661458 -0.0734,0.181901 -0.133452,0.03307 -0.133452,-0.330729 z m -3.179584,-1.058333 c 0,-0.218282 0.102326,-0.635 0.227391,-0.926042 0.143328,-0.333544 0.22739,-0.38245 0.22739,-0.132292 0,0.218282 -0.102325,0.635 -0.22739,0.926042 -0.143329,0.333544 -0.227391,0.38245 -0.227391,0.132292 z m 3.439583,0 c 0,-0.218282 0.102326,-0.635 0.227391,-0.926042 0.143329,-0.333544 0.227391,-0.38245 0.227391,-0.132292 0,0.218282 -0.102326,0.635 -0.227391,0.926042 -0.143329,0.333544 -0.227391,0.38245 -0.227391,0.132292 z m 2.079474,-1.601005 c 0.654844,-0.11652 1.547813,-0.205777 1.984375,-0.19835 0.58548,0.01 0.481344,0.06909 -0.396875,0.225359 -0.654843,0.11652 -1.547812,0.205777 -1.984375,0.19835 -0.585479,-0.01 -0.481344,-0.06909 0.396875,-0.225359 z M 45.400154,81.29107 c -0.01149,-0.278913 0.05105,-0.435184 0.138965,-0.347266 0.08792,0.08792 0.09732,0.316122 0.02089,0.507119 -0.08446,0.211066 -0.147156,0.148373 -0.159852,-0.159853 z m 8.903764,0.201277 c 0.179132,-0.07247 0.536319,-0.07689 0.79375,-0.0098 0.257431,0.06708 0.110869,0.126381 -0.325694,0.131774 -0.436562,0.0054 -0.647187,-0.04949 -0.468056,-0.121971 z m 1.923265,-0.355616 c 0.363802,-0.11651 0.959114,-0.209616 1.322916,-0.206907 0.594148,0.0044 0.580685,0.02548 -0.132291,0.206907 -0.436563,0.111085 -1.031875,0.204194 -1.322917,0.206906 -0.414654,0.0039 -0.386025,-0.04091 0.132292,-0.206906 z m 2.778125,-0.529167 c 0.291041,-0.125066 0.767291,-0.22389 1.058333,-0.219612 0.425393,0.0062 0.39945,0.04932 -0.132292,0.219612 -0.904655,0.289721 -1.600259,0.289721 -0.926041,0 z m 2.248958,-0.529167 c 0.218281,-0.141065 0.575469,-0.249936 0.79375,-0.241935 0.261689,0.0096 0.216625,0.092 -0.132292,0.241935 -0.727363,0.312558 -1.145108,0.312558 -0.661458,0 z m -15.324945,-0.63941 c -0.01149,-0.278913 0.05104,-0.435184 0.138964,-0.347266 0.08792,0.08792 0.09732,0.316122 0.02089,0.507119 -0.08446,0.211066 -0.147157,0.148373 -0.159852,-0.159853 z m 17.706195,-0.15434 c 0.218281,-0.141065 0.515938,-0.256479 0.661458,-0.256479 0.145521,0 0.08599,0.115414 -0.132291,0.256479 -0.218282,0.141066 -0.515938,0.256479 -0.661459,0.256479 -0.145521,0 -0.08599,-0.115413 0.132292,-0.256479 z m 1.322917,-0.529166 c 0.218281,-0.141066 0.515937,-0.256479 0.661458,-0.256479 0.145521,0 0.08599,0.115413 -0.132292,0.256479 -0.218281,0.141065 -0.515937,0.256479 -0.661458,0.256479 -0.145521,0 -0.08599,-0.115414 0.132292,-0.256479 z M 46.217986,78.226319 c 0.0043,-0.218281 0.103104,-0.694531 0.219613,-1.058333 0.170294,-0.531741 0.213361,-0.557686 0.219614,-0.132292 0.0043,0.291042 -0.09455,0.767292 -0.219614,1.058333 -0.139312,0.324197 -0.224378,0.375439 -0.219613,0.132292 z m 19.79878,0.173548 c 0,-0.07409 0.644025,-0.503184 1.431166,-0.953542 0.78714,-0.450356 2.037297,-1.387896 2.778125,-2.083422 0.740828,-0.695526 1.346959,-1.176089 1.346959,-1.067919 0,0.336907 -2.854108,2.679525 -4.23804,3.478532 -0.725014,0.418587 -1.31821,0.700445 -1.31821,0.626351 z M 51.0053,76.448959 c 0.402183,-0.06082 0.997495,-0.05919 1.322917,0.0036 0.32542,0.0628 -0.0036,0.112559 -0.731243,0.110574 -0.727604,-0.0021 -0.993857,-0.05337 -0.591674,-0.114186 z m 4.450181,-0.173889 c 0.06063,-0.05454 0.824618,-0.165592 1.697743,-0.246782 1.043895,-0.09707 1.315698,-0.07383 0.79375,0.06786 -0.816134,0.221554 -2.688355,0.356002 -2.491493,0.178919 z m -5.533328,-0.826876 c -0.0043,-0.291042 0.09455,-0.767292 0.219613,-1.058333 0.289721,-0.674217 0.289721,0.02138 0,0.926041 -0.170294,0.531741 -0.213361,0.557686 -0.219613,0.132292 z m 9.678467,0.221647 c 0.181901,-0.0734 0.479557,-0.0734 0.661458,0 0.181902,0.0734 0.03307,0.133453 -0.330729,0.133453 -0.363802,0 -0.51263,-0.06005 -0.330729,-0.133453 z M 47.011736,75.051319 c 0.0043,-0.218281 0.103104,-0.694531 0.219613,-1.058333 0.170294,-0.531741 0.213361,-0.557686 0.219614,-0.132292 0.0043,0.291042 -0.09455,0.767292 -0.219614,1.058333 -0.139312,0.324197 -0.224378,0.375439 -0.219613,0.132292 z m 14.843354,0.10473 c 0.08792,-0.08792 0.316124,-0.09732 0.507119,-0.02088 0.211066,0.08446 0.148373,0.147156 -0.159854,0.159851 -0.278913,0.01148 -0.435184,-0.05104 -0.347265,-0.138964 z M 50.427237,73.353575 c -0.01149,-0.278913 0.05105,-0.435184 0.138965,-0.347266 0.08792,0.08792 0.09732,0.316125 0.02089,0.507119 -0.08446,0.211066 -0.147157,0.148373 -0.159853,-0.159853 z m 0.264584,-1.322917 c -0.01149,-0.278913 0.05105,-0.435184 0.138964,-0.347265 0.08792,0.08792 0.09732,0.316124 0.02089,0.507119 -0.08446,0.211066 -0.147157,0.148373 -0.159852,-0.159854 z m 22.08883,0.03269 c 0.09936,-0.260937 0.247303,-0.407781 0.328766,-0.326319 0.08146,0.08146 1.69e-4,0.294955 -0.180652,0.474433 -0.261308,0.25936 -0.291698,0.22897 -0.148114,-0.148114 z m -24.999247,-0.29727 c -0.01149,-0.278913 0.05105,-0.435184 0.138965,-0.347266 0.08792,0.08792 0.09732,0.316125 0.02089,0.507119 -0.08446,0.211066 -0.147156,0.148373 -0.159852,-0.159853 z m 21.410362,0.341537 c 0,-0.07276 0.357187,-0.474498 0.79375,-0.892751 0.436562,-0.418254 0.79375,-0.700929 0.79375,-0.628169 0,0.07276 -0.357188,0.474499 -0.79375,0.892752 -0.436563,0.418253 -0.79375,0.700929 -0.79375,0.628168 z m -18.235362,-1.13529 c -0.01149,-0.278913 0.05105,-0.435184 0.138965,-0.347266 0.08792,0.08792 0.09732,0.316125 0.02089,0.507119 -0.08446,0.211066 -0.147156,0.148373 -0.159852,-0.159853 z m 22.222157,0.374827 c -0.0019,-0.07276 0.231285,-0.787135 0.517813,-1.5875 0.362402,-1.012318 0.471387,-1.173369 0.35809,-0.529166 -0.136091,0.773797 -0.865907,2.537436 -0.875903,2.116666 z m -25.116269,-0.79375 c 0,-0.218281 0.102326,-0.635 0.227391,-0.926041 0.143328,-0.333544 0.22739,-0.38245 0.22739,-0.132292 0,0.218281 -0.102325,0.635 -0.22739,0.926042 -0.143329,0.333544 -0.227391,0.38245 -0.227391,0.132291 z m 22.866276,-0.606724 c 0.09936,-0.260937 0.247303,-0.407781 0.328766,-0.326318 0.08146,0.08146 1.69e-4,0.294955 -0.180653,0.474432 -0.261307,0.259361 -0.291697,0.228971 -0.148113,-0.148114 z M 51.220987,69.649409 c -0.01149,-0.278915 0.05105,-0.435184 0.138965,-0.347265 0.08792,0.08792 0.09732,0.316122 0.02089,0.507118 -0.08446,0.211066 -0.147157,0.148373 -0.159853,-0.159853 z m 20.159508,-1.477257 c 0,-0.654843 0.0516,-0.922734 0.114662,-0.595312 0.06307,0.327422 0.06307,0.863203 0,1.190625 -0.06306,0.327422 -0.114662,0.05953 -0.114662,-0.595313 z m 2.920341,-1.455208 c -0.0016,-0.873125 0.04669,-1.26221 0.107066,-0.864634 0.06037,0.397576 0.06158,1.111951 0.0027,1.5875 -0.05889,0.475549 -0.108281,0.150259 -0.109765,-0.722866 z m -22.550682,0.815799 c -0.01149,-0.278915 0.05105,-0.435185 0.138965,-0.347266 0.08792,0.08792 0.09732,0.316122 0.02089,0.507118 -0.08446,0.211067 -0.147156,0.148372 -0.159852,-0.159852 z m -2.886335,-0.154341 c 0.0043,-0.218281 0.103104,-0.694531 0.219614,-1.058333 0.170293,-0.531741 0.213361,-0.557685 0.219613,-0.132292 0.0043,0.291042 -0.09455,0.767292 -0.219613,1.058334 -0.139312,0.324196 -0.224379,0.375439 -0.219614,0.132291 z m 3.175,-0.926041 c -0.0043,-0.291042 0.09455,-0.767292 0.219614,-1.058334 0.289721,-0.674218 0.289721,0.02139 0,0.926042 -0.170294,0.531741 -0.213361,0.557685 -0.219614,0.132292 z m 18.535027,-0.606512 -0.602297,-0.980988 0.668443,0.742358 c 0.367641,0.408297 0.668441,0.854781 0.668441,0.992188 0,0.389065 -0.08929,0.297469 -0.734587,-0.753558 z M 49.509491,64.600277 c 0.217612,-0.972854 0.369048,-1.18404 0.36364,-0.507118 -0.0022,0.278915 -0.124907,0.685712 -0.27262,0.903993 -0.196138,0.28984 -0.220685,0.182805 -0.09102,-0.396875 z m 24.331383,-0.283482 c -0.09732,-0.38775 -0.125918,-0.756027 -0.06355,-0.818393 0.06236,-0.06237 0.193016,0.203857 0.290335,0.591608 0.09732,0.38775 0.125918,0.756027 0.06355,0.818393 -0.06236,0.06237 -0.193016,-0.203858 -0.290335,-0.591608 z M 52.567986,64.071111 c -0.0043,-0.291042 0.09455,-0.767292 0.219613,-1.058334 0.289722,-0.674218 0.289722,0.02139 0,0.926042 -0.170293,0.531741 -0.213361,0.557685 -0.219613,0.132292 z m 16.201767,-0.198438 -0.504029,-0.595312 0.595313,0.504028 c 0.559445,0.473662 0.715761,0.686597 0.504028,0.686597 -0.05021,0 -0.318098,-0.267891 -0.595312,-0.595313 z M 49.914375,62.880486 c 0,-0.218282 0.102326,-0.635 0.227391,-0.926042 0.143329,-0.333544 0.227391,-0.38245 0.227391,-0.132292 0,0.218282 -0.102326,0.635 -0.227391,0.926042 -0.143329,0.333544 -0.227391,0.38245 -0.227391,0.132292 z m 16.366974,-0.529167 c -0.238466,-0.154109 -0.2711,-0.258097 -0.08176,-0.260532 0.173312,-0.0022 0.388699,0.115011 0.478636,0.260532 0.203015,0.328487 0.111422,0.328487 -0.396876,0 z m 6.763885,-0.187027 c -0.143584,-0.377083 -0.113194,-0.407474 0.148114,-0.148112 0.180822,0.179476 0.262115,0.39297 0.180652,0.474432 -0.08146,0.08146 -0.229407,-0.06538 -0.328766,-0.32632 z m -19.951275,-0.34214 c 0,-0.363802 0.06005,-0.51263 0.133452,-0.330729 0.0734,0.181901 0.0734,0.479557 0,0.661458 -0.0734,0.181902 -0.133452,0.03307 -0.133452,-0.330729 z m 19.007406,-1.124479 c -0.389533,-0.532104 -0.453424,-0.716902 -0.167603,-0.484781 0.433859,0.352346 1.089872,1.344677 0.888945,1.344677 -0.05051,0 -0.375119,-0.386953 -0.721342,-0.859896 z m -21.674128,-0.0441 c -0.01149,-0.278915 0.05105,-0.435184 0.138965,-0.347266 0.08792,0.08792 0.09732,0.316122 0.02089,0.507118 -0.08446,0.211067 -0.147157,0.148372 -0.159853,-0.159852 z m 2.926722,0.110243 c 0,-0.218281 0.102325,-0.635 0.22739,-0.926042 0.143329,-0.333544 0.227391,-0.382449 0.227391,-0.132291 0,0.218281 -0.102326,0.635 -0.227391,0.926041 -0.143328,0.333544 -0.22739,0.38245 -0.22739,0.132292 z m 8.95864,0 c -0.218281,-0.141064 -0.277812,-0.25648 -0.132291,-0.25648 0.145521,0 0.443177,0.115416 0.661458,0.25648 0.218281,0.141064 0.277812,0.25648 0.132292,0.25648 -0.145521,0 -0.443177,-0.115416 -0.661459,-0.25648 z M 61.06134,60.339383 c 0.08792,-0.08792 0.316124,-0.09732 0.507119,-0.02089 0.211066,0.08446 0.148373,0.147157 -0.159854,0.159853 -0.278913,0.01149 -0.435184,-0.05105 -0.347265,-0.138965 z m -1.526866,-0.369314 c -0.333544,-0.143329 -0.382449,-0.227391 -0.132291,-0.227391 0.218281,0 0.635,0.102326 0.926041,0.227391 0.333544,0.143329 0.38245,0.227391 0.132292,0.227391 -0.218281,0 -0.635,-0.102326 -0.926042,-0.227391 z m -8.698851,-0.842365 c 0.151137,-0.967808 0.145051,-0.975397 -0.866138,-1.080002 l -1.018344,-0.105345 1.124479,-0.04448 c 1.007819,-0.03986 1.12255,0.01729 1.105883,0.550835 -0.01023,0.327422 -0.126482,0.833437 -0.258342,1.124479 -0.172456,0.380646 -0.197026,0.25561 -0.08754,-0.44549 z m 7.050718,0.417929 c 0.08792,-0.08792 0.316122,-0.09732 0.507118,-0.02089 0.211067,0.08446 0.148372,0.147157 -0.159853,0.159853 -0.278915,0.01149 -0.435184,-0.05105 -0.347265,-0.138965 z m 12.872899,-0.567751 -0.641432,-0.727605 0.727604,0.641433 c 0.680056,0.599516 0.848939,0.813776 0.641432,0.813776 -0.04739,0 -0.374814,-0.327422 -0.727604,-0.727604 z M 56.828007,59.28105 c 0.08792,-0.08792 0.316122,-0.09732 0.507118,-0.02089 0.211067,0.08446 0.148372,0.147157 -0.159852,0.159852 -0.278915,0.01149 -0.435184,-0.05104 -0.347266,-0.138964 z m -1.593012,-0.287115 c 0.254662,-0.06655 0.67138,-0.06655 0.926042,0 0.254661,0.06655 0.0463,0.121 -0.463021,0.121 -0.509323,0 -0.717682,-0.05445 -0.463021,-0.121 z M 34.465203,58.20734 c 0.181902,-0.0734 0.479558,-0.0734 0.661459,0 0.181901,0.0734 0.03307,0.133453 -0.330729,0.133453 -0.363802,0 -0.512631,-0.06005 -0.33073,-0.133453 z m 1.719792,-0.278863 c 0.400182,-0.06062 1.055026,-0.06062 1.455208,0 0.400183,0.06062 0.07276,0.110223 -0.727604,0.110223 -0.800364,0 -1.127786,-0.0496 -0.727604,-0.110223 z m 32.849341,-0.405804 -0.504028,-0.595312 0.595312,0.504028 c 0.327422,0.277215 0.595313,0.545106 0.595313,0.595312 0,0.211734 -0.212934,0.05542 -0.686597,-0.504028 z m -26.234758,0.137989 c 0.545704,-0.05708 1.438672,-0.05708 1.984375,0 0.545704,0.05708 0.09922,0.103786 -0.992187,0.103786 -1.091406,0 -1.537891,-0.0467 -0.992188,-0.103786 z m 23.333904,-2.070814 c -0.493189,-0.395127 -0.489945,-0.400012 0.08172,-0.122983 0.327421,0.158669 0.595312,0.343831 0.595312,0.411471 0,0.202465 -0.137216,0.143997 -0.677034,-0.288488 z m -1.305468,-0.643832 c -0.09269,-0.149982 0.01352,-0.194338 0.248968,-0.103984 0.458369,0.175893 0.542234,0.365537 0.16165,0.365537 -0.136933,0 -0.321712,-0.117699 -0.410618,-0.261553 z m -1.5875,-0.79375 c -0.09269,-0.149982 0.01352,-0.194338 0.248968,-0.103984 0.458369,0.175893 0.542234,0.365537 0.16165,0.365537 -0.136933,0 -0.321712,-0.117699 -0.410618,-0.261553 z M 61.917598,53.6231 c -0.09269,-0.149982 0.01352,-0.194339 0.248967,-0.103985 0.45837,0.175893 0.542235,0.365537 0.16165,0.365537 -0.136932,0 -0.321712,-0.117699 -0.410617,-0.261552 z m -1.457082,-0.532198 c -0.483649,-0.312558 -0.0659,-0.312558 0.661458,0 0.348917,0.149935 0.393981,0.232346 0.132292,0.241936 -0.218281,0.008 -0.575469,-0.100871 -0.79375,-0.241936 z m -2.38125,-0.79375 c -0.483649,-0.312558 -0.0659,-0.312558 0.661458,0 0.348917,0.149935 0.393979,0.232346 0.132292,0.241936 -0.218281,0.008 -0.575469,-0.100871 -0.79375,-0.241936 z m -1.515842,-0.424436 c 0.08792,-0.08792 0.316122,-0.09732 0.507118,-0.02089 0.211067,0.08446 0.148372,0.147156 -0.159852,0.159852 -0.278915,0.01149 -0.435185,-0.05104 -0.347266,-0.138964 z m -1.058333,-0.264583 c 0.08792,-0.08792 0.316122,-0.09732 0.507118,-0.02089 0.211067,0.08446 0.148372,0.147157 -0.159853,0.159853 -0.278915,0.01149 -0.435184,-0.05105 -0.347265,-0.138965 z m -1.196138,-0.279959 c 0.181902,-0.0734 0.479558,-0.0734 0.661459,0 0.181901,0.0734 0.03307,0.133452 -0.330729,0.133452 -0.363802,0 -0.512631,-0.06005 -0.33073,-0.133452 z m -1.185112,-0.249208 c 0.08792,-0.08792 0.316122,-0.09732 0.507118,-0.02089 0.211067,0.08446 0.148372,0.147156 -0.159853,0.159852 -0.278915,0.01149 -0.435184,-0.05105 -0.347265,-0.138964 z m -1.196138,-0.279959 c 0.181902,-0.0734 0.479558,-0.0734 0.661459,0 0.181901,0.0734 0.03307,0.133452 -0.330729,0.133452 -0.363802,0 -0.512631,-0.06005 -0.33073,-0.133452 z m -2.121702,-0.262905 c 0.179132,-0.07247 0.536319,-0.07689 0.79375,-0.0098 0.257431,0.06708 0.110869,0.126381 -0.325693,0.131773 -0.436563,0.0054 -0.647188,-0.04949 -0.468057,-0.12197 z m -1.5875,-0.264583 c 0.179132,-0.07247 0.536319,-0.07689 0.79375,-0.0098 0.257431,0.06708 0.110869,0.126381 -0.325693,0.131773 -0.436563,0.0054 -0.647188,-0.0495 -0.468057,-0.12197 z m -3.571578,-0.280085 c 0.397577,-0.06037 1.111952,-0.06159 1.5875,-0.0027 0.475549,0.05889 0.15026,0.108279 -0.722865,0.109764 -0.873125,0.0015 -1.262211,-0.04669 -0.864635,-0.107064 z m -3.824726,-0.269603 c 0.62231,-0.05589 1.57481,-0.05511 2.116667,0.0017 0.541857,0.05685 0.03269,0.102583 -1.131473,0.101623 -1.164167,-9.53e-4 -1.607504,-0.04748 -0.985194,-0.10337 z"
         style="fill:#000000;fill-opacity:1;stroke-width:0.264583" />
    </g>
  </g>
</svg>
