<?xml version="1.0" encoding="UTF-8" standalone="no"?>
<svg
   xmlns:dc="http://purl.org/dc/elements/1.1/"
   xmlns:cc="http://creativecommons.org/ns#"
   xmlns:rdf="http://www.w3.org/1999/02/22-rdf-syntax-ns#"
   xmlns:svg="http://www.w3.org/2000/svg"
   xmlns="http://www.w3.org/2000/svg"
   xmlns:sodipodi="http://sodipodi.sourceforge.net/DTD/sodipodi-0.dtd"
   xmlns:inkscape="http://www.inkscape.org/namespaces/inkscape"
   sodipodi:docname="rakutenpay.svg"
   inkscape:version="1.0 (4035a4fb49, 2020-05-01)"
   id="svg8"
   version="1.1"
   viewBox="0 0 78.437248 78.437248"
   height="78.437248mm"
   width="78.437248mm">
  <defs
     id="defs2" />
  <sodipodi:namedview
     inkscape:window-maximized="1"
     inkscape:window-y="-8"
     inkscape:window-x="-8"
     inkscape:window-height="684"
     inkscape:window-width="1024"
     showgrid="false"
     inkscape:document-rotation="0"
     inkscape:current-layer="layer1"
     inkscape:document-units="mm"
     inkscape:cy="254.03699"
     inkscape:cx="291.31283"
     inkscape:zoom="0.35"
     inkscape:pageshadow="2"
     inkscape:pageopacity="0.0"
     borderopacity="1.0"
     bordercolor="#666666"
     pagecolor="#ffffff"
     id="base" />
  <metadata
     id="metadata5">
    <rdf:RDF>
      <cc:Work
         rdf:about="">
        <dc:format>image/svg+xml</dc:format>
        <dc:type
           rdf:resource="http://purl.org/dc/dcmitype/StillImage" />
        <dc:title></dc:title>
      </cc:Work>
    </rdf:RDF>
  </metadata>
  <g
     transform="translate(-28.756814,-80.952712)"
     id="layer1"
     inkscape:groupmode="layer"
     inkscape:label="レイヤー 1">
    <path
       id="path24"
       d="m 31.65303,134.15194 -0.796229,-0.73397 -1.049993,-0.8599 -1.049993,-0.85989 13.223305,0.0287 13.223304,0.0287 -3.439583,0.50041 -3.439583,0.50041 -6.482292,0.91076 -6.482292,0.91075 -1.455208,0.15396 -1.455208,0.15397 z m 63.883906,-0.3234 -0.67691,-0.2054 -0.57987,-0.31033 -0.57986,-0.31034 v -0.28057 -0.28058 l 0.53181,-0.74685 0.53181,-0.74685 0.82837,0.41325 0.82838,0.41324 0.69034,-0.2364 0.69034,-0.23641 0.60171,-1.2118 0.60171,-1.21181 -1.48247,-4.21215 -1.48248,-4.21216 -1.56663,-4.45757 -1.56664,-4.45758 v -0.25328 -0.25327 l 1.23388,0.0806 1.23388,0.0806 2.27185,6.66415 2.27186,6.66415 0.179184,0.17372 0.17918,0.17371 1.76066,-5.51495 1.76066,-5.51494 0.45014,-1.32292 0.45015,-1.32292 1.24803,-0.0806 1.24804,-0.0806 v 0.27353 0.27352 l -3.32714,10.07312 -3.32713,10.07311 -0.761204,0.86696 -0.7612,0.86696 -1.03559,0.31028 -1.0356,0.31027 -0.36618,-0.0227 -0.36617,-0.0228 -0.67691,-0.20541 z m -15.8229,-4.81948 -1.41856,-0.54487 -0.99237,-0.99238 -0.99238,-0.99237 -0.75708,-1.55782 -0.75708,-1.55782 0.006,-3.175 0.006,-3.175 0.67689,-1.46939 0.67688,-1.46939 0.84932,-0.96732 0.84932,-0.96732 1.42079,-0.67214 1.4208,-0.67215 h 1.87135 1.87135 l 1.17428,0.55198 1.17427,0.55197 0.31045,0.37407 0.31045,0.37407 h 0.19911 0.19911 l 0.15875,-0.79375 0.15875,-0.79375 h 1.06495 1.06495 v 9.01104 9.01105 l -1.12448,-0.0814 -1.12448,-0.0814 -0.0837,-0.7276 -0.0837,-0.72761 h -0.13237 -0.13237 l -0.85649,0.65327 -0.85648,0.65328 -0.96945,0.40506 -0.96944,0.40506 -1.39756,-0.0138 -1.39757,-0.0138 -1.41855,-0.54488 z m 5.01463,-2.35031 1.06144,-0.54151 0.75764,-1.19467 0.75764,-1.19467 0.3208,-1.33724 0.3208,-1.33725 -0.13323,-1.65975 -0.13323,-1.65975 -0.66232,-1.44669 -0.66231,-1.44669 -1.00356,-0.76545 -1.00355,-0.76545 h -1.76099 -1.76098 l -0.95106,0.72541 -0.95105,0.72541 -0.70573,1.44245 -0.70573,1.44246 -0.13983,1.54214 -0.13984,1.54214 0.31105,1.49831 0.31105,1.49832 0.75115,1.11844 0.75114,1.11843 1.01961,0.6172 1.0196,0.61721 1.13502,10e-4 1.13502,0.001 1.06145,-0.54151 z m -51.943315,-9.40416 -0.07151,-11.79775 4.894792,0.0958 4.894791,0.0958 1.117123,0.59108 1.117123,0.59109 0.881433,0.77391 0.881433,0.77391 0.751598,1.38093 0.751599,1.38094 0.127643,1.78398 0.127643,1.78398 -0.472265,1.50146 -0.472265,1.50145 -1.148762,1.2777 -1.148761,1.2777 v 0.1439 0.1439 l 2.564188,3.3891 2.564188,3.3891 0.642216,0.8599 0.642215,0.85989 h -2.802485 -2.802483 l -2.801793,-3.71687 -2.801793,-3.71688 -1.504731,0.0788 -1.50473,0.0789 -0.07361,3.63802 -0.07361,3.63802 h -2.103836 -2.103835 z m 8.307245,-0.1164 0.970421,-0.26953 0.815516,-0.92883 0.815516,-0.92882 v -1.41032 -1.41032 l -0.552528,-0.70242 -0.552528,-0.70243 -0.757249,-0.39159 -0.75725,-0.39159 H 39.07698 37.079466 v 3.52778 3.52778 l 0.176389,0.17639 0.176389,0.17639 1.344965,-0.002 1.344965,-0.002 0.970422,-0.26954 z m 18.21187,0.64318 V 106.5104 l 4.564062,0.10449 4.564068,0.10449 1.05833,0.46427 1.05833,0.46426 0.88247,0.84649 0.88247,0.84648 0.37426,0.71439 0.37426,0.71438 0.28866,1.34596 0.28865,1.34597 -0.32922,1.37923 -0.32923,1.37924 -0.58653,0.92604 -0.58652,0.92604 -0.5021,0.44848 -0.5021,0.44847 -1.18587,0.5379 -1.18586,0.53791 -3.373442,0.006 -3.373438,0.006 v 4.49792 4.49791 h -1.190625 -1.190625 z m 9.52514,-0.70142 0.87213,-0.59532 0.50583,-0.92604 0.50583,-0.92604 -0.0943,-1.64905 -0.0943,-1.64906 -0.78151,-0.83093 -0.7815,-0.83092 -0.8514,-0.36429 -0.85139,-0.36429 h -2.786628 -2.786623 v 4.36562 4.36563 h 3.135873 3.135868 z"
       style="fill:#000000;fill-opacity:1;stroke-width:0.264583" />
  </g>
</svg>
